<?xml version="1.0" encoding="utf-8"?>
<!-- Generator: Adobe Illustrator 16.0.0, SVG Export Plug-In . SVG Version: 6.00 Build 0)  -->
<!DOCTYPE svg PUBLIC "-//W3C//DTD SVG 1.1//EN" "http://www.w3.org/Graphics/SVG/1.1/DTD/svg11.dtd">
<svg version="1.1" id="shape" xmlns="http://www.w3.org/2000/svg" xmlns:xlink="http://www.w3.org/1999/xlink" x="0px" y="0px"
	 width="64px" height="64.002px" viewBox="0 0 64 64.002" enable-background="new 0 0 64 64.002" xml:space="preserve">
<g>
	<g>
		<path fill="#0095B6" d="M40.316,54.239h-16.61c-2.184,0-3.96-1.775-3.96-3.959V13.724c0-2.184,1.777-3.961,3.96-3.961h16.61
			c2.184,0,3.96,1.777,3.96,3.961V50.28C44.276,52.464,42.5,54.239,40.316,54.239z M23.706,11.815c-1.052,0-1.907,0.855-1.907,1.908
			V50.28c0,1.051,0.855,1.906,1.907,1.906h16.61c1.051,0,1.906-0.855,1.906-1.906V13.724c0-1.053-0.855-1.908-1.906-1.908H23.706z"
			/>
	</g>
	<g>
		<path fill="#95D3E2" d="M30.79,15.245c0,0.762-0.618,1.379-1.38,1.379h-4.311c-0.762,0-1.38-0.617-1.38-1.379l0,0
			c0-0.764,0.618-1.381,1.38-1.381h4.311C30.172,13.864,30.79,14.481,30.79,15.245L30.79,15.245z"/>
	</g>
</g>
</svg>
