<?xml version="1.0" encoding="utf-8"?>
<!-- Generator: Adobe Illustrator 16.0.0, SVG Export Plug-In . SVG Version: 6.00 Build 0)  -->
<!DOCTYPE svg PUBLIC "-//W3C//DTD SVG 1.1//EN" "http://www.w3.org/Graphics/SVG/1.1/DTD/svg11.dtd">
<svg version="1.1" id="shape" xmlns="http://www.w3.org/2000/svg" xmlns:xlink="http://www.w3.org/1999/xlink" x="0px" y="0px"
	 width="64px" height="64.002px" viewBox="0 0 64 64.002" enable-background="new 0 0 64 64.002" xml:space="preserve">
<g>
	<g>
		<path fill="#0095B6" d="M41.956,54.834h-24.14c-0.567,0-1.026-0.46-1.026-1.027V10.194c0-0.566,0.459-1.026,1.026-1.026h24.14
			c2.898,0,5.255,2.357,5.255,5.255v35.155C47.211,52.476,44.854,54.834,41.956,54.834z M18.842,52.78h23.114
			c1.766,0,3.202-1.437,3.202-3.202V14.423c0-1.766-1.436-3.201-3.202-3.201H18.842V52.78z"/>
	</g>
	<g>
		<line fill="#0095B6" x1="18.566" y1="10.895" x2="17.064" y2="9.495"/>
	</g>
	<g>
		<rect x="35.414" y="11.222" fill="#95D3E2" width="2.7" height="41.559"/>
	</g>
</g>
</svg>
