<?xml version="1.0" encoding="utf-8"?>
<!-- Generator: Adobe Illustrator 16.0.0, SVG Export Plug-In . SVG Version: 6.00 Build 0)  -->
<!DOCTYPE svg PUBLIC "-//W3C//DTD SVG 1.1//EN" "http://www.w3.org/Graphics/SVG/1.1/DTD/svg11.dtd">
<svg version="1.1" id="shape" xmlns="http://www.w3.org/2000/svg" xmlns:xlink="http://www.w3.org/1999/xlink" x="0px" y="0px"
	 width="64px" height="64.002px" viewBox="0 0 64 64.002" enable-background="new 0 0 64 64.002" xml:space="preserve">
<g>
	<g>
		<g>
			<path fill="#95D3E2" d="M40.813,9.063c0,4.577-3.629,7.256-8.813,7.256s-8.813-2.68-8.813-7.256c0,0,5.055,1.099,8.813,1.099
				S40.813,9.063,40.813,9.063z"/>
		</g>
	</g>
	<g>
		<g>
			<path fill="#0095B6" d="M44.788,55.966H19.212c-0.566,0-1.026-0.46-1.026-1.027V27.956l-2.218,2.218
				c-0.38,0.38-0.987,0.403-1.395,0.053l-7.345-6.303c-0.398-0.342-0.475-0.929-0.177-1.361c1.067-1.55,6.463-9.338,7.883-10.497
				c1.455-1.177,7.197-3.667,7.847-3.946c0.19-0.083,0.402-0.104,0.604-0.064c0.056,0.011,5.002,1.08,8.614,1.08
				c3.615,0,8.559-1.069,8.614-1.08c0.202-0.04,0.414-0.018,0.604,0.064c0.649,0.28,6.392,2.769,7.843,3.944
				c1.424,1.161,6.819,8.95,7.887,10.5c0.298,0.432,0.222,1.02-0.177,1.361l-7.345,6.303c-0.407,0.35-1.015,0.326-1.395-0.053
				l-2.218-2.218v26.983C45.814,55.506,45.354,55.966,44.788,55.966z M20.238,53.913h23.522V25.478c0-0.416,0.251-0.79,0.634-0.949
				c0.384-0.16,0.825-0.071,1.119,0.223l3.298,3.298l5.921-5.081c-2.444-3.52-6.107-8.612-6.965-9.312
				c-0.896-0.725-4.611-2.458-7.072-3.527c-1.253,0.235-5.355,1.058-8.695,1.058s-7.442-0.823-8.695-1.058
				c-2.461,1.07-6.177,2.803-7.075,3.53c-0.854,0.697-4.519,5.79-6.962,9.309l5.921,5.081l3.298-3.298
				c0.293-0.293,0.734-0.382,1.118-0.223s0.634,0.533,0.634,0.949V53.913z"/>
		</g>
	</g>
	<g>
		<g>
			<path fill="#0095B6" d="M32,17.346c-6.098,0-9.839-3.406-9.839-8.283h2.053c0,4.303,3.653,6.229,7.786,6.229
				s7.786-1.926,7.786-6.229h2.053C41.839,13.939,38.098,17.346,32,17.346z"/>
		</g>
	</g>
</g>
</svg>
