<?xml version="1.0" encoding="utf-8"?>
<!-- Generator: Adobe Illustrator 16.0.0, SVG Export Plug-In . SVG Version: 6.00 Build 0)  -->
<!DOCTYPE svg PUBLIC "-//W3C//DTD SVG 1.1//EN" "http://www.w3.org/Graphics/SVG/1.1/DTD/svg11.dtd">
<svg version="1.1" xmlns="http://www.w3.org/2000/svg" xmlns:xlink="http://www.w3.org/1999/xlink" x="0px" y="0px" width="64px"
	 height="64.002px" viewBox="0 0 64 64.002" enable-background="new 0 0 64 64.002" xml:space="preserve">
<g id="shape" display="none">
	<g display="inline">
		<g>
			<g>
				<path fill="#0095B6" d="M10.476,57.001c-0.212,0-0.425-0.066-0.607-0.204c-0.442-0.336-0.529-0.966-0.194-1.408l0,0
					c0.029-0.039,2.95-3.959,2.73-7.893c-0.106-1.89-0.488-4.218-0.892-6.682c-0.505-3.081-1.028-6.267-1.028-8.814
					c0-2.546,0.522-5.731,1.028-8.812c0.404-2.464,0.786-4.792,0.892-6.684c0.22-3.933-2.701-7.853-2.73-7.892
					C9.34,8.171,9.427,7.54,9.87,7.205c0.442-0.336,1.072-0.249,1.408,0.194c0.139,0.183,3.397,4.536,3.135,9.218
					c-0.112,1.999-0.502,4.379-0.916,6.897c-0.493,3.001-1.001,6.104-1.001,8.485c0,2.384,0.509,5.487,1.001,8.488
					c0.413,2.519,0.803,4.898,0.916,6.896c0.262,4.682-2.997,9.036-3.135,9.219C11.08,56.864,10.779,57.001,10.476,57.001z"/>
			</g>
			<g>
				<path fill="#0095B6" d="M53.55,57c-0.303,0-0.604-0.137-0.801-0.397c-0.139-0.183-3.397-4.537-3.135-9.219
					c0.112-1.998,0.502-4.378,0.915-6.897c0.492-3,1.001-6.104,1.001-8.486c0-2.382-0.509-5.483-1-8.483
					c-0.414-2.52-0.803-4.9-0.916-6.899c-0.262-4.682,2.997-9.035,3.135-9.218c0.335-0.442,0.967-0.53,1.409-0.194
					s0.529,0.967,0.193,1.409c-0.028,0.038-2.949,3.958-2.729,7.891c0.106,1.892,0.487,4.221,0.892,6.686
					c0.505,3.08,1.027,6.264,1.027,8.81c0,2.547-0.522,5.732-1.028,8.813c-0.404,2.465-0.786,4.793-0.892,6.685
					c-0.22,3.933,2.701,7.853,2.729,7.892c0.335,0.442,0.247,1.073-0.195,1.408C53.975,56.935,53.762,57,53.55,57z"/>
			</g>
			<g>
				<path fill="#0095B6" d="M55.993,54.544c-0.211,0-0.424-0.066-0.606-0.204l0,0c-0.039-0.029-3.966-2.942-7.891-2.729
					c-1.893,0.105-4.222,0.487-6.688,0.892c-3.079,0.505-6.262,1.027-8.808,1.027s-5.73-0.522-8.809-1.027
					c-2.466-0.404-4.795-0.786-6.688-0.892c-3.927-0.218-7.852,2.7-7.891,2.729c-0.443,0.335-1.074,0.247-1.409-0.195
					s-0.248-1.072,0.194-1.407c0.183-0.14,4.543-3.393,9.218-3.136c2,0.112,4.38,0.502,6.901,0.916c3,0.491,6.102,1,8.483,1
					s5.483-0.509,8.483-1c2.52-0.414,4.901-0.804,6.901-0.916c4.673-0.258,9.035,2.996,9.218,3.136
					c0.442,0.335,0.529,0.966,0.193,1.408C56.598,54.406,56.297,54.544,55.993,54.544z"/>
			</g>
			<g>
				<path fill="#0095B6" d="M47.925,14.415c-0.18,0-0.36-0.005-0.541-0.015c-1.999-0.112-4.379-0.502-6.899-0.916
					c-3-0.491-6.103-1-8.485-1c-2.382,0-5.485,0.509-8.486,1.001c-2.52,0.413-4.899,0.803-6.898,0.915
					c-4.685,0.257-9.035-2.996-9.218-3.136c-0.442-0.335-0.529-0.966-0.194-1.408c0.335-0.443,0.967-0.529,1.41-0.194
					c0.038,0.029,3.96,2.947,7.89,2.729c1.892-0.105,4.22-0.487,6.685-0.892c3.08-0.505,6.265-1.027,8.812-1.027
					s5.731,0.522,8.811,1.027c2.465,0.404,4.794,0.786,6.686,0.892c3.929,0.219,7.853-2.7,7.891-2.729
					c0.443-0.335,1.073-0.248,1.409,0.195c0.335,0.442,0.248,1.072-0.194,1.407C56.426,11.398,52.394,14.415,47.925,14.415z"/>
			</g>
		</g>
		<g>
			<g>
				<g>
					<path fill="#95D3E2" d="M26.659,25.295h-5.571c-0.486,0-0.88-0.394-0.88-0.88s0.394-0.88,0.88-0.88h5.571
						c0.486,0,0.88,0.394,0.88,0.88S27.146,25.295,26.659,25.295z"/>
				</g>
				<g>
					<path fill="#95D3E2" d="M23.874,28.081c-0.486,0-0.88-0.395-0.88-0.88v-5.572c0-0.485,0.394-0.88,0.88-0.88
						s0.88,0.395,0.88,0.88v5.572C24.753,27.687,24.359,28.081,23.874,28.081z"/>
				</g>
			</g>
			<g>
				<g>
					<path fill="#95D3E2" d="M26.659,40.467h-5.571c-0.486,0-0.88-0.394-0.88-0.88s0.394-0.88,0.88-0.88h5.571
						c0.486,0,0.88,0.394,0.88,0.88S27.146,40.467,26.659,40.467z"/>
				</g>
				<g>
					<path fill="#95D3E2" d="M23.874,43.253c-0.486,0-0.88-0.395-0.88-0.88v-5.572c0-0.486,0.394-0.88,0.88-0.88
						s0.88,0.394,0.88,0.88v5.572C24.753,42.858,24.359,43.253,23.874,43.253z"/>
				</g>
			</g>
			<g>
				<g>
					<path fill="#95D3E2" d="M42.912,25.295h-5.571c-0.486,0-0.88-0.394-0.88-0.88s0.394-0.88,0.88-0.88h5.571
						c0.486,0,0.88,0.394,0.88,0.88S43.398,25.295,42.912,25.295z"/>
				</g>
				<g>
					<path fill="#95D3E2" d="M40.126,28.081c-0.486,0-0.88-0.395-0.88-0.88v-5.572c0-0.485,0.394-0.88,0.88-0.88
						c0.486,0,0.88,0.395,0.88,0.88v5.572C41.006,27.687,40.612,28.081,40.126,28.081z"/>
				</g>
			</g>
			<g>
				<g>
					<path fill="#95D3E2" d="M42.912,40.467h-5.571c-0.486,0-0.88-0.394-0.88-0.88s0.394-0.88,0.88-0.88h5.571
						c0.486,0,0.88,0.394,0.88,0.88S43.398,40.467,42.912,40.467z"/>
				</g>
				<g>
					<path fill="#95D3E2" d="M40.126,43.253c-0.486,0-0.88-0.395-0.88-0.88v-5.572c0-0.486,0.394-0.88,0.88-0.88
						c0.486,0,0.88,0.394,0.88,0.88v5.572C41.006,42.858,40.612,43.253,40.126,43.253z"/>
				</g>
			</g>
		</g>
	</g>
</g>
<g id="shape_x5F_复制">
	<g>
		<g>
			<g>
				<path fill="#606060" d="M10.476,57.001c-0.212,0-0.425-0.066-0.607-0.204c-0.442-0.336-0.529-0.966-0.194-1.408l0,0
					c0.029-0.039,2.95-3.959,2.73-7.893c-0.106-1.89-0.488-4.218-0.892-6.682c-0.505-3.081-1.028-6.267-1.028-8.814
					c0-2.546,0.522-5.731,1.028-8.812c0.404-2.464,0.786-4.792,0.892-6.684c0.22-3.933-2.701-7.853-2.73-7.892
					C9.34,8.171,9.427,7.54,9.87,7.205c0.442-0.336,1.072-0.249,1.408,0.194c0.139,0.183,3.397,4.536,3.135,9.218
					c-0.112,1.999-0.502,4.379-0.916,6.897c-0.493,3.001-1.001,6.104-1.001,8.485c0,2.384,0.509,5.487,1.001,8.488
					c0.413,2.519,0.803,4.898,0.916,6.896c0.262,4.682-2.997,9.036-3.135,9.219C11.08,56.864,10.779,57.001,10.476,57.001z"/>
			</g>
			<g>
				<path fill="#606060" d="M53.55,57c-0.303,0-0.604-0.137-0.801-0.397c-0.139-0.183-3.397-4.537-3.135-9.219
					c0.112-1.998,0.502-4.378,0.915-6.897c0.492-3,1.001-6.104,1.001-8.486c0-2.382-0.509-5.483-1-8.483
					c-0.414-2.52-0.803-4.9-0.916-6.899c-0.262-4.682,2.997-9.035,3.135-9.218c0.335-0.442,0.967-0.53,1.409-0.194
					s0.529,0.967,0.193,1.409c-0.028,0.038-2.949,3.958-2.729,7.891c0.106,1.892,0.487,4.221,0.892,6.686
					c0.505,3.08,1.027,6.264,1.027,8.81c0,2.547-0.522,5.732-1.028,8.813c-0.404,2.465-0.786,4.793-0.892,6.685
					c-0.22,3.933,2.701,7.853,2.729,7.892c0.335,0.442,0.247,1.073-0.195,1.408C53.975,56.935,53.762,57,53.55,57z"/>
			</g>
			<g>
				<path fill="#606060" d="M55.993,54.544c-0.211,0-0.424-0.066-0.606-0.204l0,0c-0.039-0.029-3.966-2.942-7.891-2.729
					c-1.893,0.105-4.222,0.487-6.688,0.892c-3.079,0.505-6.262,1.027-8.808,1.027s-5.73-0.522-8.809-1.027
					c-2.466-0.404-4.795-0.786-6.688-0.892c-3.927-0.218-7.852,2.7-7.891,2.729c-0.443,0.335-1.074,0.247-1.409-0.195
					s-0.248-1.072,0.194-1.407c0.183-0.14,4.543-3.393,9.218-3.136c2,0.112,4.38,0.502,6.901,0.916c3,0.491,6.102,1,8.483,1
					s5.483-0.509,8.483-1c2.52-0.414,4.901-0.804,6.901-0.916c4.673-0.258,9.035,2.996,9.218,3.136
					c0.442,0.335,0.529,0.966,0.193,1.408C56.598,54.406,56.297,54.544,55.993,54.544z"/>
			</g>
			<g>
				<path fill="#606060" d="M47.925,14.415c-0.18,0-0.36-0.005-0.541-0.015c-1.999-0.112-4.379-0.502-6.899-0.916
					c-3-0.491-6.103-1-8.485-1c-2.382,0-5.485,0.509-8.486,1.001c-2.52,0.413-4.899,0.803-6.898,0.915
					c-4.685,0.257-9.035-2.996-9.218-3.136c-0.442-0.335-0.529-0.966-0.194-1.408c0.335-0.443,0.967-0.529,1.41-0.194
					c0.038,0.029,3.96,2.947,7.89,2.729c1.892-0.105,4.22-0.487,6.685-0.892c3.08-0.505,6.265-1.027,8.812-1.027
					s5.731,0.522,8.811,1.027c2.465,0.404,4.794,0.786,6.686,0.892c3.929,0.219,7.853-2.7,7.891-2.729
					c0.443-0.335,1.073-0.248,1.409,0.195c0.335,0.442,0.248,1.072-0.194,1.407C56.426,11.398,52.394,14.415,47.925,14.415z"/>
			</g>
		</g>
		<g>
			<g>
				<g>
					<path fill="#BDBDBD" d="M26.659,25.295h-5.571c-0.486,0-0.88-0.394-0.88-0.88s0.394-0.88,0.88-0.88h5.571
						c0.486,0,0.88,0.394,0.88,0.88S27.146,25.295,26.659,25.295z"/>
				</g>
				<g>
					<path fill="#BDBDBD" d="M23.874,28.081c-0.486,0-0.88-0.395-0.88-0.88v-5.572c0-0.485,0.394-0.88,0.88-0.88
						s0.88,0.395,0.88,0.88v5.572C24.753,27.687,24.359,28.081,23.874,28.081z"/>
				</g>
			</g>
			<g>
				<g>
					<path fill="#BDBDBD" d="M26.659,40.467h-5.571c-0.486,0-0.88-0.394-0.88-0.88s0.394-0.88,0.88-0.88h5.571
						c0.486,0,0.88,0.394,0.88,0.88S27.146,40.467,26.659,40.467z"/>
				</g>
				<g>
					<path fill="#BDBDBD" d="M23.874,43.253c-0.486,0-0.88-0.395-0.88-0.88v-5.572c0-0.486,0.394-0.88,0.88-0.88
						s0.88,0.394,0.88,0.88v5.572C24.753,42.858,24.359,43.253,23.874,43.253z"/>
				</g>
			</g>
			<g>
				<g>
					<path fill="#BDBDBD" d="M42.912,25.295h-5.571c-0.486,0-0.88-0.394-0.88-0.88s0.394-0.88,0.88-0.88h5.571
						c0.486,0,0.88,0.394,0.88,0.88S43.398,25.295,42.912,25.295z"/>
				</g>
				<g>
					<path fill="#BDBDBD" d="M40.126,28.081c-0.486,0-0.88-0.395-0.88-0.88v-5.572c0-0.485,0.394-0.88,0.88-0.88
						c0.486,0,0.88,0.395,0.88,0.88v5.572C41.006,27.687,40.612,28.081,40.126,28.081z"/>
				</g>
			</g>
			<g>
				<g>
					<path fill="#BDBDBD" d="M42.912,40.467h-5.571c-0.486,0-0.88-0.394-0.88-0.88s0.394-0.88,0.88-0.88h5.571
						c0.486,0,0.88,0.394,0.88,0.88S43.398,40.467,42.912,40.467z"/>
				</g>
				<g>
					<path fill="#BDBDBD" d="M40.126,43.253c-0.486,0-0.88-0.395-0.88-0.88v-5.572c0-0.486,0.394-0.88,0.88-0.88
						c0.486,0,0.88,0.394,0.88,0.88v5.572C41.006,42.858,40.612,43.253,40.126,43.253z"/>
				</g>
			</g>
		</g>
	</g>
</g>
</svg>
