<?xml version="1.0" encoding="utf-8"?>
<!-- Generator: Adobe Illustrator 16.0.0, SVG Export Plug-In . SVG Version: 6.00 Build 0)  -->
<!DOCTYPE svg PUBLIC "-//W3C//DTD SVG 1.1//EN" "http://www.w3.org/Graphics/SVG/1.1/DTD/svg11.dtd">
<svg version="1.1" xmlns="http://www.w3.org/2000/svg" xmlns:xlink="http://www.w3.org/1999/xlink" x="0px" y="0px" width="64px"
	 height="64.002px" viewBox="0 0 64 64.002" enable-background="new 0 0 64 64.002" xml:space="preserve">
<g id="shape" display="none">
	<g display="inline">
		<g>
			<path fill="#0095B6" d="M40.484,54.353H23.515c-0.545,0-0.995-0.427-1.025-0.971l-2.367-42.649
				c-0.016-0.281,0.085-0.557,0.279-0.762s0.464-0.321,0.746-0.321h21.704c0.282,0,0.551,0.116,0.746,0.321
				c0.194,0.205,0.295,0.48,0.279,0.762L41.51,53.382C41.479,53.926,41.03,54.353,40.484,54.353z M24.487,52.299h15.026
				l2.255-40.596H22.232L24.487,52.299z"/>
		</g>
		<g>
			<path fill="#0095B6" d="M42.497,18.169H21.502c-0.567,0-1.027-0.46-1.027-1.026c0-0.567,0.46-1.027,1.027-1.027h20.995
				c0.567,0,1.027,0.46,1.027,1.027C43.524,17.709,43.064,18.169,42.497,18.169z"/>
		</g>
		<g>
			<path fill="#95D3E2" d="M36.042,38.778c-0.011,0-0.021-0.001-0.032-0.001c-0.486-0.017-0.866-0.425-0.848-0.91l0.281-7.997
				c0.017-0.486,0.424-0.857,0.91-0.849c0.485,0.017,0.866,0.425,0.849,0.91l-0.282,7.997
				C36.904,38.404,36.513,38.778,36.042,38.778z"/>
		</g>
		<g>
			<path fill="#95D3E2" d="M36.427,27.824c-0.01,0-0.021-0.001-0.032-0.001c-0.485-0.017-0.865-0.425-0.848-0.91l0.052-1.472
				c0.017-0.486,0.409-0.848,0.91-0.849c0.486,0.018,0.865,0.425,0.849,0.911l-0.052,1.472
				C37.289,27.45,36.899,27.824,36.427,27.824z"/>
		</g>
	</g>
</g>
<g id="shape_x5F_复制">
	<g>
		<g>
			<path fill="#606060" d="M40.484,54.353H23.515c-0.545,0-0.995-0.427-1.025-0.971l-2.367-42.649
				c-0.016-0.281,0.085-0.557,0.279-0.762s0.464-0.321,0.746-0.321h21.704c0.282,0,0.551,0.116,0.746,0.321
				c0.194,0.205,0.295,0.48,0.279,0.762L41.51,53.382C41.479,53.926,41.03,54.353,40.484,54.353z M24.487,52.299h15.026
				l2.255-40.596H22.232L24.487,52.299z"/>
		</g>
		<g>
			<path fill="#606060" d="M42.497,18.169H21.502c-0.567,0-1.027-0.46-1.027-1.026c0-0.567,0.46-1.027,1.027-1.027h20.995
				c0.567,0,1.027,0.46,1.027,1.027C43.524,17.709,43.064,18.169,42.497,18.169z"/>
		</g>
		<g>
			<path fill="#BDBDBD" d="M36.042,38.778c-0.011,0-0.021-0.001-0.032-0.001c-0.486-0.017-0.866-0.425-0.848-0.91l0.281-7.997
				c0.017-0.486,0.424-0.857,0.91-0.849c0.485,0.017,0.866,0.425,0.849,0.91l-0.282,7.997
				C36.904,38.404,36.513,38.778,36.042,38.778z"/>
		</g>
		<g>
			<path fill="#BDBDBD" d="M36.427,27.824c-0.01,0-0.021-0.001-0.032-0.001c-0.485-0.017-0.865-0.425-0.848-0.91l0.052-1.472
				c0.017-0.486,0.409-0.848,0.91-0.849c0.486,0.018,0.865,0.425,0.849,0.911l-0.052,1.472
				C37.289,27.45,36.899,27.824,36.427,27.824z"/>
		</g>
	</g>
</g>
</svg>
