<?xml version="1.0" standalone="no"?><!DOCTYPE svg PUBLIC "-//W3C//DTD SVG 1.1//EN" "http://www.w3.org/Graphics/SVG/1.1/DTD/svg11.dtd"><svg class="icon" width="200px" height="200.00px" viewBox="0 0 1024 1024" version="1.1" xmlns="http://www.w3.org/2000/svg"><path fill="#cdcdcd" d="M653.003594 145.003469c0 73.229712-58.062186 116.092372-141.003594 116.092372s-141.003594-42.87866-141.003594-116.092372c0 0 80.877473 17.583451 141.003594 17.58345s141.003594-17.583451 141.003594-17.58345zM716.601606 895.428018H307.398394c-9.055717 0-16.415487-7.35977-16.415487-16.431487V447.282022l-35.486891 35.486891c-6.07981 6.07981-15.791507 6.447799-22.319303 0.847974l-117.516327-100.844849a16.415487 16.415487 0 0 1-2.831912-21.775319c17.071467-24.799225 103.404769-149.403331 126.124059-167.946752 23.279273-18.831412 115.148402-58.670167 125.548076-63.134027 3.039905-1.327959 6.431799-1.663948 9.663698-1.023968 0.895972 0.175995 80.029499 17.27946 137.819693 17.27946 57.838193 0 136.939721-17.103466 137.819694-17.27946 3.231899-0.63998 6.623793-0.287991 9.663698 1.023968 10.383676 4.47986 102.268804 44.302616 125.484078 63.102028 22.783288 18.57542 109.100591 143.195525 126.188057 167.99475 4.767851 6.911784 3.551889 16.31949-2.831912 21.77532l-117.516327 100.844848a16.431487 16.431487 0 0 1-22.319303-0.847973l-35.486891-35.486891V879.012531a16.383488 16.383488 0 0 1-16.383488 16.415487z m-392.787725-32.846974H700.15412V407.635261a16.447486 16.447486 0 0 1 28.047124-11.615637l52.766351 52.766351 94.733039-81.293459c-39.102778-56.31824-97.708947-137.787694-111.436517-148.987344-14.335552-11.599638-73.773695-39.326771-113.148464-56.430237-20.047374 3.759883-85.677323 16.927471-139.115653 16.927471s-119.068279-13.167589-139.115653-16.927471c-39.37477 17.119465-98.828912 44.846599-113.196462 56.478235-13.663573 11.151652-72.301741 92.637105-111.388519 148.939346l94.733039 81.293459 52.766351-52.766351a16.415487 16.415487 0 0 1 28.031124 11.615637v454.945783zM512 277.527327c-97.564951 0-157.419081-54.494297-157.419081-132.523858h32.846974c0 68.845849 58.446174 99.660886 124.572107 99.660885s124.572107-30.815037 124.572107-99.660885h32.846974c0 78.013562-59.85413 132.523859-157.419081 132.523858z" /></svg>