<?xml version="1.0" encoding="utf-8"?>
<!-- Generator: Adobe Illustrator 16.0.0, SVG Export Plug-In . SVG Version: 6.00 Build 0)  -->
<!DOCTYPE svg PUBLIC "-//W3C//DTD SVG 1.1//EN" "http://www.w3.org/Graphics/SVG/1.1/DTD/svg11.dtd">
<svg version="1.1" xmlns="http://www.w3.org/2000/svg" xmlns:xlink="http://www.w3.org/1999/xlink" x="0px" y="0px" width="64px"
	 height="64.002px" viewBox="0 0 64 64.002" enable-background="new 0 0 64 64.002" xml:space="preserve">
<g id="shape" display="none">
	<g display="inline">
		<g>
			<path fill="#0095B6" d="M32,56.981c-13.774,0-24.981-11.205-24.981-24.98S18.226,7.021,32,7.021s24.981,11.205,24.981,24.98
				S45.774,56.981,32,56.981z M32,9.03c-12.666,0-22.971,10.305-22.971,22.971S19.334,54.972,32,54.972s22.971-10.305,22.971-22.971
				S44.666,9.03,32,9.03z"/>
		</g>
		<g>
			<path fill="#0095B6" d="M32,36.216c-2.217,0-4.021-1.803-4.021-4.021c0-2.217,1.804-4.02,4.021-4.02s4.021,1.803,4.021,4.02
				C36.021,34.413,34.217,36.216,32,36.216z M32,30.228c-1.085,0-1.968,0.883-1.968,1.967c0,1.086,0.883,1.969,1.968,1.969
				s1.968-0.883,1.968-1.969C33.968,31.11,33.085,30.228,32,30.228z"/>
		</g>
		<g>
			<path fill="#0095B6" d="M32,30.228c-0.567,0-1.026-0.459-1.026-1.027V18.38c0-0.568,0.459-1.027,1.026-1.027
				s1.026,0.459,1.026,1.027V29.2C33.026,29.769,32.567,30.228,32,30.228z"/>
		</g>
		<g>
			<path fill="#0095B6" d="M42.895,33.222h-7.9c-0.566,0-1.026-0.459-1.026-1.027c0-0.566,0.46-1.025,1.026-1.025h7.9
				c0.567,0,1.027,0.459,1.027,1.025C43.921,32.763,43.461,33.222,42.895,33.222z"/>
		</g>
		<g>
			<g>
				<circle fill="#95D3E2" cx="32" cy="12.386" r="0.99"/>
			</g>
			<g>
				<circle fill="#95D3E2" cx="32" cy="52.003" r="0.99"/>
			</g>
		</g>
		<g>
			<g>
				<circle fill="#95D3E2" cx="22.096" cy="15.04" r="0.99"/>
			</g>
			<g>
				<circle fill="#95D3E2" cx="41.904" cy="49.351" r="0.99"/>
			</g>
		</g>
		<g>
			<g>
				<circle fill="#95D3E2" cx="14.845" cy="22.291" r="0.99"/>
			</g>
			<g>
				<circle fill="#95D3E2" cx="49.155" cy="42.1" r="0.99"/>
			</g>
		</g>
		<g>
			<g>
				<circle fill="#95D3E2" cx="12.191" cy="32.194" r="0.99"/>
			</g>
			<g>
				<circle fill="#95D3E2" cx="51.808" cy="32.194" r="0.991"/>
			</g>
		</g>
		<g>
			<g>
				<circle fill="#95D3E2" cx="14.845" cy="42.1" r="0.99"/>
			</g>
			<g>
				<circle fill="#95D3E2" cx="49.155" cy="22.291" r="0.99"/>
			</g>
		</g>
		<g>
			<g>
				<circle fill="#95D3E2" cx="22.095" cy="49.351" r="0.99"/>
			</g>
			<g>
				<circle fill="#95D3E2" cx="41.904" cy="15.04" r="0.99"/>
			</g>
		</g>
	</g>
</g>
<g id="shape_x5F_复制">
	<g>
		<g>
			<path fill="#606060" d="M32,56.981c-13.774,0-24.981-11.205-24.981-24.98S18.226,7.021,32,7.021s24.981,11.205,24.981,24.98
				S45.774,56.981,32,56.981z M32,9.03c-12.666,0-22.971,10.305-22.971,22.971S19.334,54.972,32,54.972s22.971-10.305,22.971-22.971
				S44.666,9.03,32,9.03z"/>
		</g>
		<g>
			<path fill="#606060" d="M32,36.216c-2.217,0-4.021-1.803-4.021-4.021c0-2.217,1.804-4.02,4.021-4.02s4.021,1.803,4.021,4.02
				C36.021,34.413,34.217,36.216,32,36.216z M32,30.228c-1.085,0-1.968,0.883-1.968,1.967c0,1.086,0.883,1.969,1.968,1.969
				s1.968-0.883,1.968-1.969C33.968,31.11,33.085,30.228,32,30.228z"/>
		</g>
		<g>
			<path fill="#606060" d="M32,30.228c-0.567,0-1.026-0.459-1.026-1.027V18.38c0-0.568,0.459-1.027,1.026-1.027
				s1.026,0.459,1.026,1.027V29.2C33.026,29.769,32.567,30.228,32,30.228z"/>
		</g>
		<g>
			<path fill="#606060" d="M42.895,33.222h-7.9c-0.566,0-1.026-0.459-1.026-1.027c0-0.566,0.46-1.025,1.026-1.025h7.9
				c0.567,0,1.027,0.459,1.027,1.025C43.921,32.763,43.461,33.222,42.895,33.222z"/>
		</g>
		<g>
			<g>
				<circle fill="#BDBDBD" cx="32" cy="12.386" r="0.99"/>
			</g>
			<g>
				<circle fill="#BDBDBD" cx="32" cy="52.003" r="0.99"/>
			</g>
		</g>
		<g>
			<g>
				<circle fill="#BDBDBD" cx="22.096" cy="15.04" r="0.99"/>
			</g>
			<g>
				<circle fill="#BDBDBD" cx="41.904" cy="49.351" r="0.99"/>
			</g>
		</g>
		<g>
			<g>
				<circle fill="#BDBDBD" cx="14.845" cy="22.291" r="0.99"/>
			</g>
			<g>
				<circle fill="#BDBDBD" cx="49.155" cy="42.1" r="0.99"/>
			</g>
		</g>
		<g>
			<g>
				<circle fill="#BDBDBD" cx="12.191" cy="32.194" r="0.99"/>
			</g>
			<g>
				<circle fill="#BDBDBD" cx="51.808" cy="32.194" r="0.991"/>
			</g>
		</g>
		<g>
			<g>
				<circle fill="#BDBDBD" cx="14.845" cy="42.1" r="0.99"/>
			</g>
			<g>
				<circle fill="#BDBDBD" cx="49.155" cy="22.291" r="0.99"/>
			</g>
		</g>
		<g>
			<g>
				<circle fill="#BDBDBD" cx="22.095" cy="49.351" r="0.99"/>
			</g>
			<g>
				<circle fill="#BDBDBD" cx="41.904" cy="15.04" r="0.99"/>
			</g>
		</g>
	</g>
</g>
</svg>
