<?xml version="1.0" encoding="utf-8"?>
<!-- Generator: Adobe Illustrator 16.0.0, SVG Export Plug-In . SVG Version: 6.00 Build 0)  -->
<!DOCTYPE svg PUBLIC "-//W3C//DTD SVG 1.1//EN" "http://www.w3.org/Graphics/SVG/1.1/DTD/svg11.dtd">
<svg version="1.1" xmlns="http://www.w3.org/2000/svg" xmlns:xlink="http://www.w3.org/1999/xlink" x="0px" y="0px" width="64px"
	 height="64.002px" viewBox="0 0 64 64.002" enable-background="new 0 0 64 64.002" xml:space="preserve">
<g id="shape" display="none">
	<g display="inline">
		<g>
			<path fill="#0095B6" d="M56.036,54.149H8.089c-0.567,0-1.026-0.46-1.026-1.026V16.188c0-0.567,0.459-1.027,1.026-1.027h47.947
				c0.566,0,1.026,0.46,1.026,1.027v36.935C57.063,53.689,56.603,54.149,56.036,54.149z M9.116,52.096h45.894V17.215H9.116V52.096z"
				/>
		</g>
		<path fill="#95D3E2" d="M8.971,17.086v35.01h46.039v-35.01H8.971z M53.457,50.544H10.523V18.638h42.934V50.544z"/>
		<g>
			<path fill="#0095B6" d="M41.149,17.086l-9.087-5.033l-9.087,5.033L21.98,15.29l9.584-5.309c0.309-0.172,0.686-0.172,0.995,0
				l9.585,5.309L41.149,17.086z"/>
		</g>
	</g>
</g>
<g id="shape_x5F_复制">
	<g>
		<g>
			<path fill="#606060" d="M56.036,54.149H8.089c-0.567,0-1.026-0.46-1.026-1.026V16.188c0-0.567,0.459-1.027,1.026-1.027h47.947
				c0.566,0,1.026,0.46,1.026,1.027v36.935C57.063,53.689,56.603,54.149,56.036,54.149z M9.116,52.096h45.894V17.215H9.116V52.096z"
				/>
		</g>
		<path fill="#BDBDBD" d="M8.971,17.086v35.01h46.039v-35.01H8.971z M53.457,50.544H10.523V18.638h42.934V50.544z"/>
		<g>
			<path fill="#606060" d="M41.149,17.086l-9.087-5.033l-9.087,5.033L21.98,15.29l9.584-5.309c0.309-0.172,0.686-0.172,0.995,0
				l9.585,5.309L41.149,17.086z"/>
		</g>
	</g>
</g>
</svg>
