<?xml version="1.0" standalone="no"?><!DOCTYPE svg PUBLIC "-//W3C//DTD SVG 1.1//EN" "http://www.w3.org/Graphics/SVG/1.1/DTD/svg11.dtd"><svg class="icon" width="200px" height="200.00px" viewBox="0 0 1024 1024" version="1.1" xmlns="http://www.w3.org/2000/svg"><path fill="#cdcdcd" d="M664.33124 658.075435a4.783851 4.783851 0 0 0 4.655854-4.975844c-0.815975-23.503266-2.959908-25.903191-4.031874-27.007156-9.91969-10.87966-51.2144-23.983251-55.902253-25.471204-5.935815-1.823943-10.319678-8.879723-10.975657-11.407644 1.215962-3.551889 6.799788-16.767476 8.671729-19.487391 5.391832-4.047874 8.559733-8.415737 10.159683-13.967563 2.767914-9.583701-0.591982-14.527546-3.039905-17.023468 0.143996-4.15987 0.463986-13.727571-0.031999-24.207244-0.751977-14.479548-7.983751-21.151339-15.007531-27.567139l-0.543983-0.575982c-14.255555-13.071592-44.382613-10.911659-44.702603-10.911659-5.343833 0.783976-8.527734 5.615825-10.863661 9.151714-0.383988 0.687979-1.103966 1.695947-1.471954 2.223931-2.463923 0.687979-4.767851 1.407956-4.767851 1.407956a4.223868 4.223868 0 0 0-1.711946 0.863973c-13.583576 11.263648-12.8156 31.327021-12.319615 43.342646 0.127996 2.607919 0.239993 5.631824-0.111997 6.687791a11.151652 11.151652 0 0 0-2.271929 6.303803c-1.263961 14.559545 2.495922 19.53539 8.559733 22.607293l0.031999 0.016c0.511984 3.263898 2.543921 7.503766 5.631824 13.663573 1.327959 2.719915 3.279898 6.543796 3.951876 8.559732-1.903941 2.783913-5.951814 8.479735-9.91969 10.351677-1.439955 0.63998-8.703728 3.551889-15.119527 6.047811-7.071779 2.831912-14.335552 5.727821-16.527484 6.687791l-3.039905 1.247961c-8.751727 3.503891-17.631449 7.391769-21.727321 12.191619-2.415925 2.863911-4.047874 11.615637-4.911847 26.143183a4.81585 4.81585 0 0 0 4.527859 5.055842h192.809975zM697.818193 846.981532H429.842567a82.205431 82.205431 0 0 1-82.125433-82.125434V385.139964c0-45.278585 36.846849-90.397175 82.125433-90.397175h267.975626c45.278585 0 82.125434 45.11859 82.125434 90.397175v379.732134a82.205431 82.205431 0 0 1-82.125434 82.109434zM429.842567 327.589763c-27.167151 0-49.27846 30.367051-49.27846 57.550201v379.732134a49.342458 49.342458 0 0 0 49.27846 49.27846h267.975626a49.326459 49.326459 0 0 0 49.27846-49.27846V385.139964c0-27.167151-22.111309-57.550202-49.27846-57.550201H429.842567zM306.006437 264.295741c-34.158933 0-61.950064-27.791132-61.950064-61.950064s27.791132-61.950064 61.950064-61.950064 61.950064 27.791132 61.950064 61.950064-27.791132 61.950064-61.950064 61.950064z m0-91.053155c-16.047499 0-29.103091 13.055592-29.10309 29.103091s13.055592 29.103091 29.10309 29.10309 29.103091-13.055592 29.103091-29.10309-13.055592-29.103091-29.103091-29.103091zM364.676604 335.061529c-3.695885-18.207431-8.303741-21.77532-17.455455-28.879097-10.25568-7.967751-24.303241-18.863411-37.11884-49.29446l30.287054-12.751601c9.471704 22.511297 17.983438 29.103091 26.991156 36.094872 10.959658 8.511734 23.35927 18.143433 29.487079 48.30249l-32.190994 6.527796z" /></svg>