<?xml version="1.0" standalone="no"?><!DOCTYPE svg PUBLIC "-//W3C//DTD SVG 1.1//EN" "http://www.w3.org/Graphics/SVG/1.1/DTD/svg11.dtd"><svg class="icon" width="200px" height="200.00px" viewBox="0 0 1024 1024" version="1.1" xmlns="http://www.w3.org/2000/svg"><path fill="#cdcdcd" d="M805.014843 790.967282H218.985157C160.011 790.967282 112.0125 742.968782 112.0125 683.962626V340.005375c0-58.974157 47.9985-106.972657 106.988656-106.972657h586.029687c58.990157 0 106.988657 47.9985 106.988656 106.972657v343.957251C911.9875 742.968782 863.989 790.967282 805.014843 790.967282zM218.985157 265.879691a74.205681 74.205681 0 0 0-74.125684 74.125684v343.957251a74.23768 74.23768 0 0 0 74.125684 74.157683h586.029686a74.23768 74.23768 0 0 0 74.125684-74.157683V340.005375a74.205681 74.205681 0 0 0-74.125684-74.125684H218.985157zM445.090091 386.22793m-26.959158 0a26.959158 26.959158 0 1 0 53.918315 0 26.959158 26.959158 0 1 0-53.918315 0ZM385.491953 396.627605m-19.1994 0a19.1994 19.1994 0 1 0 38.3988 0 19.1994 19.1994 0 1 0-38.3988 0ZM344.021249 422.994781m-14.991531 0a14.991532 14.991532 0 1 0 29.983063 0 14.991532 14.991532 0 1 0-29.983063 0ZM321.749945 459.969626m-14.671541 0a14.671542 14.671542 0 1 0 29.343083 0 14.671542 14.671542 0 1 0-29.343083 0ZM418.130933 438.978282c-46.558545 19.119403-51.342396 26.25518-57.214212 31.711009-44.590607 41.310709-10.223681 90.87716 2.991907 114.188432 15.103528 26.687166 47.69451 70.781788 73.005718 67.533889 28.831099-3.663886 42.750664-26.095185 14.351552-91.005156-14.815537-33.774945 24.623231-65.93394 28.383113-83.341396 5.535827-25.471204-14.927534-58.222181-61.518078-39.086778zM578.909909 386.22793m-26.959157 0a26.959158 26.959158 0 1 0 53.918315 0 26.959158 26.959158 0 1 0-53.918315 0ZM638.508047 396.627605m-19.1994 0a19.1994 19.1994 0 1 0 38.3988 0 19.1994 19.1994 0 1 0-38.3988 0ZM679.978751 422.994781m-14.991532 0a14.991532 14.991532 0 1 0 29.983063 0 14.991532 14.991532 0 1 0-29.983063 0ZM702.250055 459.969626m-14.671542 0a14.671542 14.671542 0 1 0 29.343083 0 14.671542 14.671542 0 1 0-29.343083 0ZM605.869067 438.978282c46.558545 19.119403 51.342396 26.25518 57.214212 31.711009 44.590607 41.310709 10.223681 90.87716-2.991907 114.188432-15.119528 26.687166-47.710509 70.781788-73.005718 67.533889-28.831099-3.663886-42.750664-26.095185-14.351552-91.005156 14.815537-33.774945-24.623231-65.93394-28.383113-83.341396-5.551827-25.471204 14.927534-58.222181 61.518078-39.086778z" /></svg>