<?xml version="1.0" encoding="utf-8"?>
<!-- Generator: Adobe Illustrator 16.0.0, SVG Export Plug-In . SVG Version: 6.00 Build 0)  -->
<!DOCTYPE svg PUBLIC "-//W3C//DTD SVG 1.1//EN" "http://www.w3.org/Graphics/SVG/1.1/DTD/svg11.dtd">
<svg version="1.1" xmlns="http://www.w3.org/2000/svg" xmlns:xlink="http://www.w3.org/1999/xlink" x="0px" y="0px" width="64px"
	 height="64.002px" viewBox="0 0 64 64.002" enable-background="new 0 0 64 64.002" xml:space="preserve">
<g id="shape" display="none">
	<g display="inline">
		<g>
			<polygon fill="#95D3E2" points="13.808,45.78 13.32,53.169 21.363,53.036 			"/>
		</g>
		<g>
			<polygon fill="#95D3E2" points="50.183,45.78 50.67,53.169 42.627,53.036 			"/>
		</g>
		<g>
			<path fill="#0095B6" d="M50.68,54.196c-0.002,0-0.006,0-0.01,0H13.32c-0.275,0-0.539-0.11-0.731-0.307s-0.299-0.461-0.295-0.736
				l0.487-29.414c0.009-0.561,0.466-1.01,1.027-1.01h36.375c0.561,0,1.017,0.45,1.026,1.01l0.484,29.267
				c0.009,0.053,0.013,0.107,0.013,0.163C51.707,53.736,51.248,54.196,50.68,54.196z M14.364,52.143h35.263l-0.454-27.36H14.818
				L14.364,52.143z"/>
		</g>
		<g>
			<path fill="#0095B6" d="M39.362,28.971c-0.546,0-1-0.431-1.024-0.981c-0.002-0.063-0.278-6.306-0.487-10.221
				c-0.181-3.424-2.644-5.909-5.856-5.909c-3.211,0-5.675,2.485-5.856,5.909c-0.208,3.916-0.484,10.159-0.486,10.222
				c-0.025,0.567-0.509,0.996-1.071,0.98c-0.566-0.025-1.005-0.505-0.98-1.071c0.003-0.063,0.279-6.315,0.488-10.24
				c0.241-4.55,3.566-7.853,7.906-7.853s7.666,3.303,7.906,7.854c0.208,3.924,0.485,10.177,0.488,10.239
				c0.024,0.566-0.414,1.046-0.98,1.071C39.393,28.971,39.378,28.971,39.362,28.971z"/>
		</g>
	</g>
</g>
<g id="shape_x5F_复制">
	<g>
		<g>
			<polygon fill="#BDBDBD" points="13.808,45.78 13.32,53.169 21.363,53.036 			"/>
		</g>
		<g>
			<polygon fill="#BDBDBD" points="50.183,45.78 50.67,53.169 42.627,53.036 			"/>
		</g>
		<g>
			<path fill="#606060" d="M50.68,54.196c-0.002,0-0.006,0-0.01,0H13.32c-0.275,0-0.539-0.11-0.731-0.307s-0.299-0.461-0.295-0.736
				l0.487-29.414c0.009-0.561,0.466-1.01,1.027-1.01h36.375c0.561,0,1.017,0.45,1.026,1.01l0.484,29.267
				c0.009,0.053,0.013,0.107,0.013,0.163C51.707,53.736,51.248,54.196,50.68,54.196z M14.364,52.143h35.263l-0.454-27.36H14.818
				L14.364,52.143z"/>
		</g>
		<g>
			<path fill="#606060" d="M39.362,28.971c-0.546,0-1-0.431-1.024-0.981c-0.002-0.063-0.278-6.306-0.487-10.221
				c-0.181-3.424-2.644-5.909-5.856-5.909c-3.211,0-5.675,2.485-5.856,5.909c-0.208,3.916-0.484,10.159-0.486,10.222
				c-0.025,0.567-0.509,0.996-1.071,0.98c-0.566-0.025-1.005-0.505-0.98-1.071c0.003-0.063,0.279-6.315,0.488-10.24
				c0.241-4.55,3.566-7.853,7.906-7.853s7.666,3.303,7.906,7.854c0.208,3.924,0.485,10.177,0.488,10.239
				c0.024,0.566-0.414,1.046-0.98,1.071C39.393,28.971,39.378,28.971,39.362,28.971z"/>
		</g>
	</g>
</g>
</svg>
