<?xml version="1.0" standalone="no"?>
<!DOCTYPE svg PUBLIC "-//W3C//DTD SVG 1.1//EN" "http://www.w3.org/Graphics/SVG/1.1/DTD/svg11.dtd" >
<svg xmlns="http://www.w3.org/2000/svg">
  <metadata>Generated by IcoMoon</metadata>
  <defs>
    <font id="wallwa_webfont" horiz-adv-x="1024">
      <font-face units-per-em="1024" ascent="960" descent="-64"/>
      <missing-glyph horiz-adv-x="1024"/>
      <glyph unicode="&#x20;" horiz-adv-x="512" d=""/>
      <glyph unicode="&#xe600;" glyph-name="plus-o"
             d="M512 912c255.84 0 464-208.16 464-464s-208.16-464-464-464-464 208.16-464 464 208.16 464 464 464zM512 960c-282.752 0-512-229.216-512-512s229.248-512 512-512c282.784 0 512 229.216 512 512s-229.216 512-512 512v0zM832 472h-296v296c0 13.248-10.752 24-24 24s-24-10.752-24-24v-296h-296c-13.248 0-24-10.752-24-24s10.752-24 24-24h296v-296c0-13.248 10.752-24 24-24s24 10.752 24 24v296h296c13.248 0 24 10.752 24 24s-10.752 24-24 24z"/>
      <glyph unicode="&#xe601;" glyph-name="minus-o"
             d="M512 912c255.84 0 464-208.16 464-464s-208.16-464-464-464-464 208.16-464 464 208.16 464 464 464zM512 960c-282.752 0-512-229.216-512-512s229.248-512 512-512c282.784 0 512 229.216 512 512s-229.216 512-512 512v0zM832 424h-640c-13.248 0-24 10.752-24 24s10.752 24 24 24h640c13.248 0 24-10.752 24-24s-10.752-24-24-24z"/>
      <glyph unicode="&#xe602;" glyph-name="left"
             d="M512-49.778c-10.923 0-21.845 4.153-30.151 12.516l-455.111 455.111c-16.668 16.668-16.668 43.691 0 60.359l455.111 455.111c16.668 16.668 43.691 16.668 60.359 0s16.668-43.691 0-60.359l-425.017-424.96 424.96-424.96c16.668-16.668 16.668-43.691 0-60.359-8.306-8.306-19.228-12.459-30.151-12.459z"/>
      <glyph unicode="&#xe603;" glyph-name="right"
             d="M56.889-49.778c-10.923 0-21.845 4.153-30.151 12.516-16.668 16.668-16.668 43.691 0 60.359l424.903 424.903-424.903 424.96c-16.668 16.668-16.668 43.691 0 60.359s43.691 16.668 60.359 0l455.111-455.111c16.668-16.668 16.668-43.691 0-60.359l-455.111-455.111c-8.363-8.363-19.285-12.516-30.208-12.516z"/>
      <glyph unicode="&#xe604;" glyph-name="qq"
             d="M975.264 276.064c-21.44 124.704-111.52 206.464-111.52 206.464 12.864 113.28-34.368 133.376-34.368 133.376-9.92 350.304-311.040 344.224-317.344 344.064-6.336 0.128-307.52 6.24-317.376-344.064 0 0-47.2-20.096-34.336-133.376 0 0-90.080-81.76-111.552-206.464 0 0-11.456-210.784 102.976-25.824 0 0 25.728-70.208 72.928-133.312 0 0-84.416-28.768-77.216-103.232 0 0-2.88-83.168 180.224-77.44 0 0 128.704 9.984 167.328 64.512h34.016c38.624-54.528 167.392-64.512 167.392-64.512 183.040-5.728 180.192 77.44 180.192 77.44 7.104 74.496-77.216 103.232-77.216 103.232 47.2 63.104 72.96 133.312 72.96 133.312 114.336-184.928 102.912 25.824 102.912 25.824v0z"/>
      <glyph unicode="&#xe605;" glyph-name="weibo"
             d="M739.072 468.192c0 0 133.888 237.632-253.408 112.896 48.544 38.080 40.704 115.584 2.624 143.136-141.792 102.368-488.288-224.512-488.288-418.848 0-118.112 127.328-271.712 417.44-271.712 364.992 0 479.2 199.552 479.2 296.672 0 133.92-157.568 137.856-157.568 137.856v0zM429.44 84.768c-169.984-15.84-316.544 64.8-327.2 180.128-10.848 115.328 118.304 221.696 288.32 237.504 170.016 15.84 316.576-64.768 327.264-180.128 10.752-115.36-118.336-221.664-288.384-237.504v0zM369.408 419.168c-92.064-15.616-155.872-92.16-142.496-171.008s98.752-130.144 190.848-114.592c92 15.584 155.808 92.096 142.464 171.008-13.376 78.848-98.72 130.112-190.816 114.592v0zM353.376 194.272c-29.696-8.16-59.936 7.296-67.456 34.496-7.488 27.328 10.56 56.032 40.224 64.224 29.76 8.224 59.968-7.2 67.456-34.464 7.552-27.328-10.464-56.064-40.224-64.256v0zM430.624 281.792c-15.232 0-27.68 12.32-27.68 27.616 0 15.328 12.416 27.712 27.68 27.712s27.68-12.384 27.68-27.712c0-15.264-12.416-27.616-27.68-27.616v0zM967.488 762.784c-61.12 78.144-159.072 112.032-275.712 95.424-19.648-2.784-33.376-20.992-30.56-40.704 2.784-19.616 20.896-33.28 40.672-30.528 115.52 16.512 177.408-28.128 208.96-68.512 41.472-53.056 53.184-128.672 29.088-188.064-7.456-18.432 1.376-39.424 19.84-46.88 4.448-1.792 8.992-2.624 13.472-2.624 14.24 0 27.68 8.48 33.376 22.432 33.408 82.56 17.728 186.816-39.136 259.456v0zM726.368 727.648c-19.584-2.816-33.28-20.992-30.464-40.64 2.784-19.648 20.896-33.28 40.64-30.56 33.024 4.8 58.784-3.2 74.208-22.912 13.888-17.856 18.048-44 10.112-63.712-7.456-18.4 1.472-39.36 19.808-46.848 4.512-1.792 8.992-2.592 13.536-2.592 14.176 0 27.68 8.448 33.312 22.4 17.728 43.712 9.824 96.736-20.096 135.008-18.368 23.584-61.12 61.28-141.056 49.856v0z"/>
      <glyph unicode="&#xe606;" glyph-name="douban"
             d="M27.36 949.856h969.184v-109.12h-969.184v109.12zM912.352 300.096v426.816h-800.672v-426.816h800.672zM227.808 617.792h569.536v-208.64h-569.536v208.64zM739.104 54.112c34.816 53.376 67.712 115.168 98.144 185.376l-116.448 42.464c-30.336-83.232-65.536-159.296-105.696-227.84h-202.688c-33.568 88.864-71.456 164.832-114.048 227.84l-107.040-42.464c44.128-66.24 79.776-128 107.040-185.376h-298.368v-107.968h1024v107.968h-284.896z"/>
      <glyph unicode="&#xe607;" glyph-name="wechat"
             d="M693.088 612.32c11.84 0 23.392-0.896 35.040-2.176-31.328 145.664-187.488 253.856-365.696 253.856-199.232 0-362.432-135.36-362.432-307.392 0-99.264 54.272-180.8 145.056-244.096l-36.224-108.64 126.688 63.232c45.312-8.832 81.664-17.984 126.88-17.984 11.392 0 22.656 0.48 33.792 1.344-7.040 24.192-11.168 49.44-11.168 75.776 0.064 157.952 136 286.080 308.064 286.080v0zM498.272 710.304c27.424 0 45.408-17.952 45.408-45.12 0-27.040-17.984-45.184-45.408-45.184-27.072 0-54.304 18.144-54.304 45.184 0 27.232 27.168 45.12 54.304 45.12v0zM244.672 620c-27.2 0-54.624 18.144-54.624 45.184 0 27.168 27.392 45.12 54.624 45.12 27.168 0 45.248-17.888 45.248-45.12 0-27.040-18.080-45.184-45.248-45.184v0zM1024 330.592c0 144.512-145.024 262.272-307.904 262.272-172.48 0-308.192-117.824-308.192-262.272 0-144.928 135.776-262.272 308.192-262.272 36.096 0 72.512 9.024 108.736 18.080l99.392-54.4-27.2 90.368c72.736 54.496 126.976 126.752 126.976 208.224v0zM616.128 375.808c-18.016 0-36.192 17.888-36.192 36.128 0 17.984 18.208 36.128 36.192 36.128 27.488 0 45.408-18.144 45.408-36.128 0-18.208-17.888-36.128-45.408-36.128v0zM815.488 375.808c-17.856 0-36.032 17.888-36.032 36.128 0 17.984 18.144 36.128 36.032 36.128 27.264 0 45.376-18.144 45.376-36.128 0-18.208-18.080-36.128-45.376-36.128v0z"/>
      <glyph unicode="&#xe608;" glyph-name="wechat-pay"
             d="M390.368 324.96c-61.28-34.24-70.368 19.264-70.368 19.264l-76.864 179.776c-29.568 85.504 25.6 38.496 25.6 38.496s47.296-35.872 83.168-57.76c35.904-21.824 76.832-6.432 76.832-6.432l502.176 232.544c-92.64 115.648-245.696 191.264-418.976 191.264-282.752 0.064-511.936-201.152-511.936-449.408 0-142.816 75.872-269.952 194.080-352.288l-21.28-122.944c0 0-10.432-35.904 25.664-19.264 24.48 11.328 87.104 52.064 124.32 76.736 58.528-20.448 122.4-31.808 189.248-31.808 282.72 0 512 201.28 512 449.568 0 71.872-19.296 139.776-53.536 200.064-160-96.576-532.16-320.992-580.128-347.808v0z"/>
      <glyph unicode="&#xe609;" glyph-name="caret-up" d="M1024 174.933l-511.932 546.133-512.068-546.133z"/>
      <glyph unicode="&#xe60a;" glyph-name="caret-down" d="M1024 721.067l-511.932-546.133-512.068 546.133z"/>
      <glyph unicode="&#xe60b;" glyph-name="check-tri"
             d="M0 960v-1024l1024 1024h-1024zM306.062 466.204c-8.021-8.021-18.83-12.516-30.151-12.516s-22.187 4.494-30.151 12.516l-204.8 204.8c-16.668 16.668-16.668 43.691 0 60.359s43.691 16.668 60.359 0l174.592-174.649 333.938 333.938c16.668 16.668 43.691 16.668 60.359 0s16.668-43.691 0-60.359l-364.146-364.089z"/>
      <glyph unicode="&#xe60c;" glyph-name="camera" horiz-adv-x="1280"
             d="M874.667 896c11.776 0 21.333-9.557 21.333-21.333v-85.333c0-35.328 28.672-64 64-64h234.667c11.776 0 21.333-9.557 21.333-21.333v-682.667c0-11.776-9.557-21.333-21.333-21.333h-1109.333c-11.776 0-21.333 9.557-21.333 21.333v682.667c0 11.776 9.557 21.333 21.333 21.333h234.667c35.328 0 64 28.672 64 64v85.333c0 11.776 9.557 21.333 21.333 21.333h469.333zM874.667 960h-469.333c-47.104 0-85.333-38.229-85.333-85.333v-85.333h-234.667c-47.104 0-85.333-38.229-85.333-85.333v-682.667c0-47.104 38.229-85.333 85.333-85.333h1109.333c47.104 0 85.333 38.229 85.333 85.333v682.667c0 47.104-38.229 85.333-85.333 85.333h-234.667v85.333c0 47.104-38.229 85.333-85.333 85.333v0zM640 640c105.856 0 192-86.144 192-192s-86.144-192-192-192-192 86.144-192 192 86.144 192 192 192zM640 704c-141.397 0-256-114.603-256-256s114.603-256 256-256 256 114.603 256 256-114.603 256-256 256v0z"/>
      <glyph unicode="&#xe60d;" glyph-name="alipay"
             d="M659.2 344.256c69.184 125.728 94.4 245.216 94.4 245.216h-232.832v88.128h276.736v37.76h-276.736v132.032h-125.728v-132.032h-251.552v-37.76h251.552v-88.128h-213.856v-37.728h434.016l-7.2-22.464c0 0-30.496-97.056-55.712-147.36-320.8 125.824-429.344 43.808-440.288 37.856-229.6-125.856-45.44-312.224 18.88-333.408 186.976-61.44 371.104 44 471.744 163.52 6.272-6.272 421.376-201.28 421.376-201.28v188.704c-50.368 0-232.704 62.88-364.8 106.944v0zM495.68 287.616c-157.312-201.248-345.888-138.272-377.376-125.824-76.8 30.432-100.64 157.216-6.304 201.312 157.28 50.304 295.584-6.304 396.256-56.64-6.304-12.608-12.576-18.848-12.576-18.848v0z"/>
      <glyph unicode="&#xe60e;" glyph-name="qq-circle"
             d="M512 960c-282.752 0-512-229.216-512-512s229.248-512 512-512c282.784 0 512 229.216 512 512s-229.216 512-512 512zM737.216 324.416c0 0-16.096-43.872-45.6-83.296 0 0 52.704-17.984 48.256-64.512 0 0 1.76-51.968-112.608-48.416 0 0-80.48 6.24-104.608 40.32h-21.248c-24.16-34.080-104.608-40.32-104.608-40.32-114.432-3.584-112.64 48.416-112.64 48.416-4.48 46.56 48.256 64.512 48.256 64.512-29.504 39.424-45.568 83.296-45.568 83.296-71.52-115.584-64.384 16.128-64.384 16.128 13.408 77.952 69.728 129.056 69.728 129.056-8.032 70.784 21.472 83.36 21.472 83.36 6.144 218.912 194.4 215.104 198.336 215.008 3.968 0.096 192.16 3.904 198.336-215.040 0 0 29.536-12.544 21.472-83.36 0 0 56.32-51.104 69.696-129.056 0.032 0.032 7.168-131.712-64.288-16.096z"/>
      <glyph unicode="&#xe60f;" glyph-name="weibo-circle"
             d="M478.432 361.408c0-9.543-7.737-17.28-17.28-17.28s-17.28 7.737-17.28 17.28c0 9.543 7.737 17.28 17.28 17.28s17.28-7.737 17.28-17.28zM395.866 351.129c18.587 5.129 37.466-4.525 42.167-21.561s-6.556-35.006-25.143-40.135c-18.587-5.129-37.466 4.525-42.167 21.561s6.556 35.006 25.143 40.135zM512 960c-282.752 0-512-229.216-512-512s229.248-512 512-512c282.784 0 512 229.216 512 512s-229.216 512-512 512zM452.896 189.024c-181.312 0-260.896 96-260.896 169.824 0 121.472 216.576 325.76 305.184 261.792 23.808-17.216 28.704-65.664-1.632-89.472 242.048 77.984 158.368-70.56 158.368-70.56s98.464-2.464 98.464-86.176c0.032-60.672-71.36-185.408-299.488-185.408zM698.72 563.968c-9.664 12.32-25.76 17.312-46.4 14.336-12.352-1.696-23.648 6.816-25.408 19.104-1.76 12.256 6.784 23.648 19.040 25.408 49.952 7.136 76.672-16.448 88.16-31.136 18.688-23.904 23.648-57.056 12.576-84.384-3.52-8.736-11.936-14.016-20.832-14.016-2.848 0-5.632 0.512-8.448 1.632-11.456 4.672-17.024 17.76-12.384 29.28 4.992 12.288 2.4 28.64-6.304 39.776zM821.152 482.624c-3.552-8.704-11.968-14.016-20.864-14.016-2.784 0-5.632 0.512-8.416 1.632-11.552 4.672-17.056 17.76-12.416 29.28 15.072 37.12 7.744 84.384-18.176 117.536-19.744 25.216-58.4 53.12-130.624 42.816-12.352-1.728-23.68 6.816-25.408 19.072-1.76 12.32 6.816 23.712 19.104 25.44 72.896 10.368 134.144-10.816 172.32-59.648 35.552-45.408 45.344-110.56 24.48-162.112zM436.096 481.984c-106.272-9.888-186.976-76.352-180.224-148.416 6.656-72.096 98.272-122.496 204.512-112.576 106.272 9.888 186.944 76.352 180.256 148.448-6.688 72.064-98.272 122.464-204.544 112.544zM453.088 251.488c-57.568-9.728-110.912 22.336-119.264 71.616-8.352 49.248 31.52 97.12 89.056 106.88 57.536 9.696 110.912-22.336 119.264-71.616 8.32-49.312-31.552-97.12-89.056-106.88z"/>
      <glyph unicode="&#xe610;" glyph-name="douban-circle"
             d="M352.128 543.488h320.352v-117.344h-320.352v117.344zM512 960c-282.752 0-512-229.216-512-512s229.248-512 512-512c282.784 0 512 229.216 512 512s-229.216 512-512 512zM239.392 730.304h545.152v-61.376h-545.152v61.376zM737.184 604.896v-240.096h-450.368v240.096h450.368zM800 165.696h-576v60.736h167.84c-15.328 32.288-35.392 67.008-60.224 104.288l60.224 23.904c23.936-35.424 45.28-78.176 64.16-128.16h114.016c22.592 38.56 42.4 81.344 59.456 128.16l65.504-23.904c-17.12-39.488-35.616-74.24-55.2-104.288h160.224v-60.736z"/>
      <glyph unicode="&#xe611;" glyph-name="wechat-circle"
             d="M577.088 448.064c-11.232 0-22.624-11.36-22.624-22.592 0-11.392 11.36-22.592 22.624-22.592 17.184 0 28.384 11.2 28.384 22.592 0 11.232-11.2 22.592-28.384 22.592zM344.928 611.936c-16.992 0-34.144-11.232-34.144-28.224 0-16.896 17.12-28.256 34.144-28.256 16.992 0 28.288 11.328 28.288 28.256 0 17.056-11.296 28.224-28.288 28.224zM503.424 555.488c17.152 0 28.384 11.328 28.384 28.256 0 16.992-11.232 28.224-28.384 28.224-16.96 0-33.952-11.2-33.952-28.224 0-16.896 17.024-28.256 33.952-28.256zM701.696 448.064c-11.2 0-22.528-11.36-22.528-22.592 0-11.392 11.36-22.592 22.528-22.592 17.056 0 28.352 11.2 28.352 22.592 0 11.232-11.328 22.592-28.352 22.592zM512 960c-282.752 0-512-229.216-512-512s229.248-512 512-512c282.784 0 512 229.216 512 512s-229.216 512-512 512zM418.496 323.712c-28.256 0-50.976 5.728-79.296 11.232l-79.2-39.52 22.656 67.904c-56.736 39.552-90.656 90.528-90.656 152.576 0 107.52 101.984 192.096 226.496 192.096 111.392 0 208.992-67.616 228.576-158.656-7.264 0.8-14.528 1.376-21.92 1.376-107.552 0-192.512-80.096-192.544-178.816 0-16.48 2.56-32.256 6.976-47.36-6.912-0.544-13.952-0.832-21.088-0.832zM752.64 244.48l16.992-56.48-62.112 34.016c-22.656-5.664-45.376-11.296-67.968-11.296-107.776 0-192.64 73.344-192.64 163.936 0 90.272 84.832 163.936 192.64 163.936 101.792 0 192.448-73.6 192.448-163.936 0-50.944-33.888-96.128-79.36-130.176z"/>
      <glyph unicode="&#xe612;" glyph-name="wallwa-logo"
             d="M707.072-48.416l-55.104 50.976-0.512 0.096c-1.472 1.12-3.136 1.76-5.056 2.016l-0.544 0.192h-354.304c-4.576 0.224-8.32 3.424-8.928 7.872v806.88c0 0 0 0.608 0 0.8 0 1.408-0.448 2.656-1.952 4.608-0.224 0.128-0.672 0.768-0.672 0.768l-96.256 92.256c-1.728 1.632-4 2.464-6.368 2.464-5.28 0-9.472-3.872-9.472-8.928v-966.496l0.128-0.224c0.224-4.768 4.256-8.544 9.344-8.736l0.032-0.128 523.36 0.128c5.12 0 9.312 3.968 9.312 8.96 0 2.72-1.024 4.896-2.88 6.496h-0.128zM855.872 951.392c-0.128 4.672-4.192 8.512-9.088 8.608h-523.552c-5.12 0-9.344-4.128-9.344-8.992 0-2.592 1.184-4.736 2.944-6.496l55.136-50.624 0.448-0.32c1.504-1.184 3.328-1.824 5.12-2.144l0.608-0.096h354.208c4.736-0.256 8.448-3.52 9.024-7.904v-806.784c0 0 0-0.544 0-0.768 0-1.664 0.384-2.656 1.856-4.576 0.256-0.32 0.864-0.896 0.864-0.896l96.032-92.448c1.696-1.536 4-2.24 6.56-2.24 5.184 0 9.344 3.904 9.344 8.832 0 0.32 0 0.32 0 0.32v966.304l-0.16 0.224z"/>
      <glyph unicode="&#xe613;" glyph-name="menu-combo"
             d="M4.96 647.008h620.224v-64h-620.224v64zM4.928 480h620.224v-64h-620.224v64zM4.96 312.992h620.224v-64h-620.224v64zM743.584 528.928l137.76-139.904 137.728 139.904z"/>
      <glyph unicode="&#xe614;" glyph-name="menu"
             d="M21.094 872.55h1323.145v-136.533h-1323.145v136.533zM21.094 516.267h1323.213v-136.533h-1323.213v136.533zM21.094 159.983h1323.145v-136.533h-1323.145v136.533z"/>
      <glyph unicode="&#xe615;" glyph-name="expand"
             d="M995.379 923.546c-0.461 1.126-1.434 1.894-1.997 2.97-1.741 3.328-3.482 6.656-6.246 9.472-7.68 7.68-17.818 11.315-27.904 11.11l-255.232 0.102c-21.197 0-38.4-17.203-38.4-38.4s17.152-38.4 38.4-38.4l163.226-0.102-764.826-764.826v163.328c0 21.197-17.203 38.4-38.4 38.4s-38.4-17.203-38.4-38.4v-255.846c0 0 0-0.051 0-0.051 0-5.069 1.024-10.086 2.97-14.797 0.461-1.126 1.434-1.894 1.997-2.97 1.741-3.328 3.482-6.656 6.298-9.472 7.475-7.475 17.306-11.264 27.136-11.264 0.256 0 0.512 0.154 0.768 0.154l255.232-0.154c21.197 0 38.4 17.203 38.4 38.4s-17.203 38.4-38.349 38.4l-163.226 0.102 764.774 764.826v-163.328c0-21.197 17.203-38.4 38.4-38.4s38.4 17.203 38.4 38.4v255.846c0 0 0 0.051 0 0.051 0 5.069-1.024 10.086-3.021 14.848z"/>
      <glyph unicode="&#xe616;" glyph-name="shopping-cart"
             d="M371.168 112c26.464 0 48-21.536 48-48s-21.536-48-48-48-48 21.536-48 48 21.536 48 48 48zM371.168 160c-53.024 0-96-42.976-96-96s42.976-96 96-96c53.024 0 96 42.976 96 96s-42.976 96-96 96v0zM724.512 112c26.464 0 48-21.536 48-48s-21.536-48-48-48-48 21.536-48 48 21.504 48 48 48zM724.512 160c-53.024 0-96-42.976-96-96s42.976-96 96-96c53.024 0 96 42.976 96 96s-43.008 96-96 96v0zM987.968 705.824c-4.512 6.4-11.808 10.176-19.616 10.176h-737.024l-9.888 86.72c-1.376 12.128-11.648 21.28-23.84 21.28h-167.264c-13.248 0-24-10.752-24-24s10.752-24 24-24h145.856l64.256-562.848c1.376-12.128 11.648-21.28 23.84-21.28h568.384c13.248 0 24 10.752 24 24s-10.752 24-24 24h-546.976l-8.832 77.472h565.824c10.144 0 19.168 6.368 22.592 15.904l125.664 350.656c2.624 7.36 1.536 15.52-2.976 21.92zM825.792 365.344h-551.52c-1.024 0-1.856-0.448-2.848-0.576l-34.592 303.232h697.44l-108.48-302.656z"/>
      <glyph unicode="&#xe617;" glyph-name="shopping-cart-fill"
             d="M360.512 112c26.464 0 48-21.536 48-48s-21.536-48-48-48-48 21.536-48 48 21.504 48 48 48zM360.512 160c-53.024 0-96-42.976-96-96s42.976-96 96-96c53.024 0 96 42.976 96 96s-42.976 96-96 96v0zM713.824 112c26.464 0 48-21.536 48-48s-21.536-48-48-48-48 21.536-48 48 21.536 48 48 48zM713.824 160c-53.024 0-96-42.976-96-96s42.976-96 96-96c53.024 0 96 42.976 96 96s-42.976 96-96 96v0zM977.312 705.824c-4.512 6.4-11.808 10.176-19.616 10.176h-737.024l-9.888 86.72c-1.408 12.128-11.648 21.28-23.872 21.28h-167.232c-13.248 0-24-10.752-24-24s10.752-24 24-24h145.824l64.256-562.848c1.376-12.128 11.648-21.28 23.84-21.28h568.384c13.248 0 24 10.752 24 24s-10.752 24-24 24h-546.976l-8.832 77.472h565.824c10.144 0 19.168 6.368 22.592 15.904l125.696 350.656c2.624 7.36 1.536 15.52-2.976 21.92z"/>
      <glyph unicode="&#xe618;" glyph-name="caret-left" d="M785.067-64l-546.133 511.932 546.133 512.068z"/>
      <glyph unicode="&#xe619;" glyph-name="caret-right" d="M238.933-64l546.133 511.932-546.133 512.068z"/>
      <glyph unicode="&#xe61a;" glyph-name="compress"
             d="M1002.124 938.124c-13.638 13.638-35.747 13.638-49.385 0l-312.785-312.785v148.48c0 19.27-15.639 34.909-34.909 34.909s-34.863-15.639-34.863-34.909v-232.588c0 0 0-0.047 0-0.047 0-4.608 0.931-9.169 2.7-13.452 0.419-1.024 1.257-1.722 1.815-2.7 1.583-3.025 3.165-6.051 5.679-8.611 6.842-6.796 15.732-10.24 24.669-10.24 0.233 0 0.465 0.14 0.698 0.14l232.076-0.14c19.27 0 34.909 15.639 34.909 34.909s-15.593 34.909-34.909 34.909l-148.387 0.093 312.692 312.692c13.638 13.638 13.638 35.7 0 49.338zM451.072 368.314c-0.419 1.024-1.257 1.722-1.815 2.7-1.583 3.025-3.165 6.051-5.679 8.611-6.982 6.982-16.198 10.287-25.367 10.1l-232.029 0.093c-19.27 0-34.909-15.639-34.909-34.909s15.593-34.909 34.909-34.909l148.387-0.093-312.692-312.692c-13.638-13.638-13.638-35.747 0-49.385 6.796-6.796 15.732-10.24 24.669-10.24s17.873 3.398 24.669 10.24l312.785 312.785v-148.433c0-19.27 15.639-34.909 34.909-34.909s34.909 15.639 34.909 34.909v232.588c0 0 0 0.047 0 0.047 0 4.608-0.931 9.169-2.746 13.498z"/>
      <glyph unicode="&#xe61b;" glyph-name="woman" horiz-adv-x="1170"
             d="M928.293 169.472c-1.28 0.402-2.56 0.658-3.877 0.841-1.39 0.183-121.966 17.92-169.070 91.392 63.195-0.768 171.045 7.387 202.094 74.459 6.254 13.568-0.585 30.135-14.007 36.681-0.768 0.402-78.080 41.143-74.715 297.289 0 2.56-3.547 252.928-275.895 283.026-3.511 1.28-7.278 1.902-11.191 1.573-0.073 0-0.183 0.037-0.256 0.037h-0.073c-0.11 0-0.219-0.037-0.329-0.037-3.84 0.293-7.534-0.329-10.971-1.573-273.006-30.062-268.507-281.307-268.434-283.355 3.365-255.598-73.838-296.485-73.655-296.485-7.095-2.706-12.727-8.265-15.579-15.287s-2.67-14.958 0.512-21.87c31.049-67.035 138.679-75.374 202.021-74.459-47.141-73.143-167.68-91.209-169.070-91.429-1.28-0.183-2.597-0.439-3.84-0.805-217.71-63.378-232.229-192.841-232.704-198.327-1.39-14.921 9.472-27.977 24.357-29.586 1.024-0.11 2.011-0.183 2.962-0.183 13.714 0 25.527 10.386 27.282 24.247 0.475 4.023 14.153 98.377 191.744 150.674 22.455 3.547 196.645 35.072 228.169 169.033 2.048 8.631-0.256 17.774-6.144 24.43s-14.555 10.094-23.479 9.143c-46.117-4.974-139.227-4.023-177.518 24.101 33.499 34.011 82.505 119.552 79.762 328.009-0.183 8.448-2.56 206.519 224.951 228.498 228.462-22.053 232.448-220.855 232.485-228.974-2.743-208.091 46.299-293.522 79.762-327.497-38.254-28.087-131.291-29.038-177.481-24.137-8.631 0.914-17.554-2.487-23.479-9.143-5.888-6.693-8.192-15.799-6.144-24.43 31.525-133.961 205.714-165.486 228.169-169.033 176.786-52.078 191.122-145.81 191.744-150.565 1.499-14.043 13.349-24.539 27.246-24.539 0.841 0 1.719 0.037 2.56 0.11 15.104 1.426 26.185 14.775 24.759 29.842-0.439 5.486-14.958 134.912-232.667 198.327z"/>
      <glyph unicode="&#xe620;" glyph-name="check-circle-o"
             d="M414.255 189.673c-8.937 0-17.873 3.398-24.669 10.24l-251.345 251.345c-13.638 13.638-13.638 35.747 0 49.385s35.747 13.638 49.385 0l226.676-226.676 422.167 422.121c13.638 13.638 35.747 13.638 49.385 0s13.638-35.747 0-49.385l-446.836-446.836c-6.889-6.796-15.825-10.193-24.762-10.193zM512-52.364c-275.921 0-500.364 224.442-500.364 500.364s224.442 500.364 500.364 500.364 500.364-224.442 500.364-500.364-224.442-500.364-500.364-500.364zM512 878.545c-237.428 0-430.545-193.117-430.545-430.545s193.117-430.545 430.545-430.545 430.545 193.117 430.545 430.545-193.117 430.545-430.545 430.545z"/>
      <glyph unicode="&#xe621;" glyph-name="check-circle"
             d="M512 913.455c-257.071 0-465.455-208.384-465.455-465.455s208.384-465.455 465.455-465.455 465.455 208.384 465.455 465.455-208.384 465.455-465.455 465.455zM438.924 199.913c-6.796-6.842-15.732-10.24-24.669-10.24s-17.873 3.398-24.669 10.24l-251.345 251.345c-13.638 13.638-13.638 35.747 0 49.385s35.747 13.638 49.385 0l226.676-226.676 422.167 422.121c13.638 13.638 35.747 13.638 49.385 0s13.638-35.747 0-49.385l-446.929-446.79z"/>
      <glyph unicode="&#xe623;" glyph-name="discount-o"
             d="M389.76 910.432l98.336-56.48c7.424-4.256 15.68-6.368 23.904-6.368 8.256 0 16.512 2.112 23.904 6.368l98.336 56.448c2.976-2.048 7.328-6.016 11.36-12.928l49.888-85.92c8.576-14.784 24.416-23.904 41.504-23.904h99.776c7.968 0 13.632-1.76 16.96-3.264v-112.576c0-17.184 9.184-33.056 24.096-41.632l98.080-56.32c-0.352-3.552-1.664-9.152-5.536-15.808l-49.888-85.92c-8.64-14.88-8.64-33.28 0-48.192l49.888-85.92c3.872-6.656 5.184-12.256 5.536-15.808l-98.080-56.32c-14.912-8.576-24.096-24.448-24.096-41.632v-112.576c-3.328-1.536-8.992-3.264-16.96-3.264h-99.776c-17.12 0-32.928-9.12-41.504-23.904l-49.888-85.952c-4-6.912-8.384-10.912-11.36-12.96l-98.304 56.448c-7.392 4.256-15.648 6.368-23.904 6.368s-16.512-2.112-23.904-6.368l-98.304-56.448c-2.976 2.048-7.392 6.048-11.424 12.96l-49.888 85.92c-8.576 14.784-24.416 23.904-41.504 23.904h-99.744c-7.968 0-13.632 1.76-16.96 3.264v112.544c0 17.184-9.184 33.056-24.096 41.632l-98.080 56.32c0.352 3.552 1.664 9.152 5.536 15.808l49.888 85.92c8.64 14.912 8.64 33.312 0 48.192l-49.888 85.952c-3.872 6.656-5.184 12.256-5.536 15.776l98.112 56.32c14.912 8.544 24.096 24.448 24.096 41.632v112.608c3.296 1.536 8.992 3.264 16.96 3.264h99.744c17.12 0 32.928 9.12 41.504 23.904l49.888 85.952c4 6.944 8.384 10.912 11.328 12.96zM391.232 960c-18.752 0-40.512-14.592-54.336-38.432l-49.888-85.92h-99.744c-35.872 0-64.96-19.264-64.96-43.040v-120.768l-105.152-60.384c-20.704-11.904-22.944-46.592-5.024-77.472l49.888-85.984-49.888-85.92c-17.92-30.912-15.712-65.568 5.024-77.472l105.152-60.416v-120.768c0-23.776 29.088-43.072 64.96-43.072h99.744l49.888-85.92c13.824-23.84 35.616-38.432 54.336-38.432 5.568 0 10.848 1.28 15.584 4l105.184 60.416 105.12-60.384c4.768-2.72 10.112-4.032 15.68-4.032 18.752 0 40.512 14.592 54.336 38.432l49.888 85.92h99.776c35.872 0 64.96 19.264 64.96 43.072v120.768l105.12 60.384c20.736 11.904 22.976 46.56 5.024 77.472l-49.92 85.952 49.888 85.92c17.952 30.912 15.712 65.6-5.024 77.472l-105.12 60.384v120.8c0 23.776-29.088 43.040-64.96 43.040h-99.776l-49.888 85.92c-13.824 23.808-35.552 38.432-54.304 38.432-5.6 0-10.912-1.312-15.68-4.032l-105.12-60.352-105.184 60.416c-4.704 2.688-10.016 4-15.584 4v0zM730.24 736h-63.648l-154.592-156.416-154.592 156.416h-63.648l191.584-194.432h-164.288v-48h166.944v-85.344h-166.944v-47.648h166.944v-200.576h48v200.576h165.984v47.648h-165.984v85.344h165.984v48h-163.328z"/>
      <glyph unicode="&#xe624;" glyph-name="discount"
             d="M961.984 448l49.888 85.952c17.952 30.912 15.744 65.568-4.992 77.472l-105.12 60.384v120.768c0 23.776-29.088 43.072-64.96 43.072h-99.776l-49.888 85.92c-17.952 30.912-49.216 46.304-69.952 34.4l-105.184-60.384-105.184 60.416c-20.704 11.904-52.032-3.488-69.952-34.432l-49.856-85.92h-99.744c-35.872 0-64.96-19.296-64.96-43.072v-120.768l-105.152-60.384c-20.704-11.904-22.944-46.592-5.024-77.472l49.888-85.952-49.888-85.92c-17.92-30.912-15.68-65.568 5.024-77.472l105.152-60.416v-120.768c0-23.776 29.088-43.072 64.96-43.072h99.744l49.888-85.92c17.952-30.912 49.248-46.304 69.952-34.464l105.152 60.448 105.12-60.384c20.736-11.904 52.032 3.488 69.952 34.432l49.888 85.92h99.776c35.872 0 64.96 19.296 64.96 43.072v120.768l105.12 60.384c20.736 11.904 22.976 46.56 4.992 77.472l-49.824 85.92zM701.984 541.536v-47.968h-165.984v-85.376h165.984v-47.648h-165.984v-200.544h-48v200.576h-166.944v47.648h166.944v85.376h-166.976v47.968h164.288l-191.552 194.432h63.648l154.592-156.416 154.592 156.416h63.648l-191.584-194.464h163.328z"/>
      <glyph unicode="&#xe625;" glyph-name="share"
             d="M16.48 57.952l-6.912 59.232c-0.896 7.872-20.992 194.432 107.040 338.272 89.6 100.64 227.84 153.696 411.232 157.92v135.584c0 44.928 25.76 65.056 51.264 65.056 14.816 0 30.048-6.176 45.312-18.336l358.72-284.736c20.992-16.736 32.992-40.32 32.896-64.704-0.064-24.288-12.096-47.616-32.992-64.064l-358.72-282.176c-15.168-11.936-30.304-18.016-45.024-18.016v0c-25.6 0-51.424 20.096-51.424 65.056v151.84c-286.432-2.304-364.576-47.488-475.296-193.44l-36.096-47.488zM551.808 346.976h24v-199.968c0-10.656 2.336-15.68 3.424-17.056 2.56 0 8.128 2.016 15.328 7.712l358.72 282.176c9.44 7.424 14.656 16.832 14.688 26.496 0.032 9.792-5.216 19.36-14.784 27.008l-358.656 284.768c-9.664 7.68-14.912 7.904-15.456 7.904-0.544-0.544-3.264-5.536-3.264-17.056v-183.328h-24c-180.768 0-315.040-47.68-399.008-141.728-70.080-78.464-90.144-173.92-95.2-236.032 104 118.112 211.36 159.104 494.208 159.104z"/>
      <glyph unicode="&#xe626;" glyph-name="share-fill"
             d="M551.808 147.040c0-40.608 25.856-53.216 57.632-28.192l358.72 282.176c31.808 25.024 31.776 65.792 0 91.104l-358.72 284.768c-31.776 25.312-57.632 12.896-57.632-27.936v-159.328c-573.152 0-518.4-469.696-518.4-469.696 118.528 156.224 207.424 203.040 518.4 203.040v-175.936z"/>
      <glyph unicode="&#xe627;" glyph-name="times-circle"
             d="M512 960c-282.752 0-512-229.184-512-512 0-282.752 229.248-512 512-512 282.784 0 512 229.248 512 512 0 282.816-229.216 512-512 512zM784.96 208.96c9.376-9.376 9.376-24.576 0-33.952-4.672-4.672-10.816-7.040-16.96-7.040s-12.288 2.336-16.96 7.040l-239.040 239.072-239.040-239.040c-4.672-4.704-10.816-7.040-16.96-7.040s-12.288 2.336-16.96 7.040c-9.376 9.376-9.376 24.576 0 33.952l239.040 239.040-239.040 239.008c-9.376 9.376-9.376 24.576 0 33.952s24.576 9.376 33.952 0l239.040-239.040 239.040 239.040c9.376 9.376 24.576 9.376 33.952 0s9.376-24.576 0-33.952l-239.104-239.040 239.040-239.040z"/>
      <glyph unicode="&#xe628;" glyph-name="photo"
             d="M128 175.968c-6.112 0-12.224 2.304-16.896 6.976-9.408 9.312-9.472 24.512-0.16 33.92l285.824 288.288c4.896 4.928 11.68 7.552 18.656 7.072 6.944-0.48 13.344-3.936 17.536-9.472l165.184-218.24 139.712 120.032c9.824 8.544 24.64 7.552 33.408-2.016l142.496-156.576c8.928-9.824 8.192-24.96-1.6-33.888-9.76-8.896-24.992-8.192-33.92 1.6l-126.784 139.328-141.376-121.504c-5.024-4.32-11.552-6.4-18.176-5.664-6.592 0.704-12.608 4.128-16.608 9.376l-163.904 216.544-266.336-268.672c-4.704-4.736-10.88-7.104-17.056-7.104zM768 591.2c0-35.346-28.654-64-64-64s-64 28.654-64 64c0 35.346 28.654 64 64 64s64-28.654 64-64zM960 784c6.368 0 16-11.488 16-28.8v-614.4c0-17.312-9.632-28.8-16-28.8h-896c-6.368 0-16 11.488-16 28.8v614.4c0 17.312 9.632 28.8 16 28.8h896zM960 832h-896c-35.36 0-64-34.4-64-76.8v-614.4c0-42.432 28.64-76.8 64-76.8h896c35.36 0 64 34.368 64 76.8v614.4c0 42.4-28.64 76.8-64 76.8v0z"/>
      <glyph unicode="&#xe629;" glyph-name="plus"
             d="M977.455 482.909h-430.545v430.545c0 19.27-15.639 34.909-34.909 34.909s-34.909-15.639-34.909-34.909v-430.545h-430.545c-19.27 0-34.909-15.639-34.909-34.909s15.639-34.909 34.909-34.909h430.545v-430.545c0-19.27 15.639-34.909 34.909-34.909s34.909 15.639 34.909 34.909v430.545h430.545c19.27 0 34.909 15.639 34.909 34.909s-15.639 34.909-34.909 34.909z"/>
      <glyph unicode="&#xe62a;" glyph-name="close"
             d="M572.359 448l424.96 424.96c16.668 16.668 16.668 43.691 0 60.359s-43.691 16.668-60.359 0l-424.96-424.96-424.96 424.903c-16.668 16.668-43.691 16.668-60.359 0s-16.668-43.691 0-60.359l424.96-424.903-424.96-424.96c-16.668-16.668-16.668-43.691 0-60.359 8.306-8.306 19.228-12.516 30.151-12.516s21.845 4.153 30.151 12.516l425.017 424.96 424.96-424.96c8.306-8.306 19.228-12.516 30.151-12.516s21.845 4.153 30.151 12.516c16.668 16.668 16.668 43.691 0 60.359l-424.903 424.96z"/>
      <glyph unicode="&#xe62b;" glyph-name="rotate-left"
             d="M22.118 101.069c11.592 12.411 31.048 13.107 43.418 1.475 70.369-65.7 162.161-101.827 258.499-101.827 208.937 0 378.88 169.943 378.88 378.88 0 169.738-112.148 313.713-266.24 361.8v-132.833l-348.16 174.080 348.16 174.080v-151.921c188.293-49.971 327.68-221.389 327.68-425.206 0-242.811-197.509-440.32-440.32-440.32-111.944 0-218.644 42.025-300.401 118.415-12.411 11.551-13.066 31.007-1.516 43.377z"/>
      <glyph unicode="&#xe62c;" glyph-name="rotate-right"
             d="M756.081 101.069c-11.592 12.411-31.048 13.107-43.418 1.475-70.369-65.7-162.161-101.827-258.499-101.827-208.937 0-378.88 169.943-378.88 378.88 0 169.738 112.148 313.713 266.24 361.8v-132.833l348.16 174.080-348.16 174.080v-151.921c-188.293-49.971-327.68-221.389-327.68-425.206 0-242.811 197.509-440.32 440.32-440.32 111.944 0 218.644 42.025 300.401 118.415 12.452 11.551 13.107 31.007 1.516 43.377z"/>
      <glyph unicode="&#xe62f;" glyph-name="times-circle-o"
             d="M512 912c255.84 0 464-208.16 464-464s-208.16-464-464-464-464 208.16-464 464 208.16 464 464 464zM512 960c-282.752 0-512-229.184-512-512 0-282.752 229.248-512 512-512 282.784 0 512 229.248 512 512 0 282.816-229.216 512-512 512v0zM545.92 448l239.040 239.040c9.376 9.376 9.376 24.576 0 33.952s-24.576 9.376-33.952 0l-239.008-239.040-239.040 239.008c-9.376 9.376-24.576 9.376-33.952 0s-9.376-24.576 0-33.952l239.040-239.040-239.040-239.040c-9.376-9.376-9.376-24.576 0-33.952 4.704-4.672 10.816-7.040 16.96-7.040s12.288 2.336 16.96 7.040l239.072 239.104 239.040-239.040c4.672-4.672 10.816-7.040 16.96-7.040s12.288 2.336 16.96 7.040c9.376 9.376 9.376 24.576 0 33.952l-239.040 239.008z"/>
      <glyph unicode="&#xe632;" glyph-name="trash"
             d="M857.442 779.5h-206.769v128c0 16.305-13.233 29.538-29.538 29.538h-315.077c-16.305 0-29.538-13.233-29.538-29.538v-128h-206.769c-16.305 0-29.538-13.233-29.538-29.538s13.233-29.538 29.538-29.538h49.231v-758.154c0-16.305 13.233-29.538 29.538-29.538h630.154c16.305 0 29.538 13.233 29.538 29.538v758.154h49.231c16.305 0 29.538 13.233 29.538 29.538s-13.233 29.538-29.538 29.538zM335.596 877.962h256v-98.462h-256v98.462zM749.135-8.192h-571.077v728.615h571.077v-728.615zM306.058 618.654c-16.305 0-29.538-13.233-29.538-29.538v-472.615c0-16.305 13.233-29.538 29.538-29.538s29.538 13.233 29.538 29.538v472.615c0 16.305-13.233 29.538-29.538 29.538zM463.596 618.654c-16.305 0-29.538-13.233-29.538-29.538v-472.615c0-16.305 13.233-29.538 29.538-29.538s29.538 13.233 29.538 29.538v472.615c0 16.305-13.233 29.538-29.538 29.538zM591.596 589.115v-472.615c0-16.305 13.233-29.538 29.538-29.538s29.538 13.233 29.538 29.538v472.615c0 16.305-13.233 29.538-29.538 29.538s-29.538-13.233-29.538-29.538z"/>
      <glyph unicode="&#xe635;" glyph-name="file"
             d="M880.384 674.592l-256 238.944c-4.448 4.16-10.304 6.464-16.384 6.464h-448c-13.248 0-24-10.752-24-24v-896c0-13.248 10.752-24 24-24h704c13.248 0 24 10.752 24 24v657.056c0 6.656-2.752 12.992-7.616 17.536zM629.152 843.424l200.288-186.944h-200.288v186.944zM184 24v848h397.152v-239.52c0-13.248 10.752-24 24-24h234.848v-584.48h-656z"/>
      <glyph unicode="&#xe636;" glyph-name="info"
             d="M512 912c255.84 0 464-208.16 464-464s-208.16-464-464-464-464 208.16-464 464 208.16 464 464 464zM512 960c-282.752 0-512-229.184-512-512 0-282.752 229.248-512 512-512 282.784 0 512 229.248 512 512 0 282.816-229.216 512-512 512v0zM472 511.328h80v-416h-80v416zM576 670.656c0-35.346-28.654-64-64-64s-64 28.654-64 64c0 35.346 28.654 64 64 64s64-28.654 64-64z"/>
      <glyph unicode="&#xe637;" glyph-name="truck"
             d="M1012.288 488.576l-161.344 254.944c-4.416 6.944-12.064 11.168-20.288 11.168h-190.656v61.312c0 26.496-17.92 48-40 48h-560c-22.080 0-40-21.504-40-48v-384c0-26.496 17.92-48 40-48h64v-139.712c0-39.136 30.496-70.944 68-70.944h72.8c4.192-66.912 59.232-120 127.2-120s123.008 53.12 127.2 120h113.6c4.192-66.912 59.232-120 127.2-120s123.008 53.12 127.2 120h80.8c37.504 0 68 31.808 68 70.944v231.424c0 4.544-1.28 9.024-3.712 12.864zM48 432v384h544v-384h-544zM372 101.344c-41.376 0-75.104 31.68-79.2 72-0.288 2.656-0.8 5.248-0.8 8 0 14.624 4.256 28.192 11.136 40 13.888 23.776 39.392 40 68.864 40s54.976-16.192 68.864-40c6.88-11.808 11.136-25.376 11.136-40 0-2.752-0.544-5.344-0.8-8-4.096-40.32-37.824-72-79.2-72zM740 101.344c-41.376 0-75.104 31.68-79.2 72-0.256 2.656-0.8 5.248-0.8 8 0 14.624 4.256 28.192 11.136 40 13.888 23.776 39.392 40 68.864 40s54.976-16.192 68.864-40c6.88-11.808 11.136-25.376 11.136-40 0-2.752-0.544-5.344-0.8-8-4.096-40.32-37.824-72-79.2-72zM968 244.288c0-12.672-8.96-22.944-20-22.944h-87.008c-16.864 50.976-64.352 88-120.992 88s-104.128-37.024-120.992-88h-126.016c-16.864 50.976-64.352 88-120.992 88s-104.128-37.024-120.992-88h-79.008c-11.040 0-20 10.272-20 22.944v139.712h448c22.080 0 40 21.504 40 48v274.656h177.44l150.56-237.92v-224.448zM848 384.672h-160c-13.248 0-24 10.752-24 24v247.328c0 13.248 10.752 24 24 24h74.688c8 0 15.456-4 19.936-10.656l85.312-127.328c2.656-3.936 4.064-8.608 4.064-13.344v-120c0-13.28-10.752-24-24-24zM712 432.672h112v88.704l-74.112 110.624h-37.888v-199.328z"/>
      <glyph unicode="&#xe800;" glyph-name="angle-down"
             d="M512.060 161.882c-12.469 0-24.395 5.18-32.949 14.276l-451.825 481.882c-17.047 18.191-16.143 46.803 2.048 63.849 18.251 17.107 46.743 16.203 63.849-2.048l418.876-446.705 418.756 446.705c16.986 18.131 45.658 19.155 63.849 2.048 18.251-17.047 19.095-45.658 2.048-63.849l-451.704-481.882c-8.553-9.096-20.48-14.276-32.949-14.276z"/>
      <glyph unicode="&#xe900;" glyph-name="iPad-case"
             d="M743.424 816h-448c-22.064 0-40-17.936-40-40v-52.88c-1.232 2.848-4.048 4.832-7.344 4.832-4.416 0-8-3.584-8-8v-535.552c0-4.416 3.584-8 8-8 3.296 0 6.112 2 7.344 4.832v-77.232c0-22.064 17.936-40 40-40h448c22.064 0 40 17.936 40 40v672c0 22.064-17.936 40-40 40zM767.424 104c0-13.232-10.768-24-24-24h-448c-13.232 0-24 10.768-24 24v672c0 13.232 10.768 24 24 24h448c13.232 0 24-10.768 24-24v-672zM431.984 727.808c-4.416 0-8-3.584-8-8v-535.552c0-4.416 3.584-8 8-8s8 3.584 8 8v535.552c0 4.416-3.584 8-8 8zM606.848 727.808c-4.416 0-8-3.584-8-8v-535.552c0-4.416 3.584-8 8-8s8 3.584 8 8v535.552c0 4.416-3.584 8-8 8z"/>
      <glyph unicode="&#xe901;" glyph-name="user-status"
             d="M882.72 95.52c87.36 91.84 141.28 215.744 141.28 352.48 0 282.816-229.216 512-512 512-282.752 0-512-229.184-512-512 0-136.608 53.824-260.384 141.024-352.192 0.864-1.184 1.824-2.176 2.88-3.2 93.12-96.416 223.488-156.608 368.096-156.608 144.544 0 274.848 60.128 367.968 156.48 1.024 0.928 1.92 1.952 2.752 3.040zM512 912c255.84 0 464-208.16 464-464 0-103.52-34.496-198.88-92-276.16-3.744 32.384-8.704 37.888-12.384 41.92-37.472 40.928-190.208 89.536-207.52 94.944-17.568 5.504-31.616 26.464-35.232 35.712 5.472 15.136 23.136 56.416 29.792 66.752 20.288 15.488 32.224 32.224 38.496 53.888 10.464 35.936-1.504 56.064-10.752 66.4 0.608 16.512 1.536 50.080-0.352 86.592-2.848 55.68-30.336 80.928-58.944 107.2-53.824 49.504-167.648 41.664-168.768 41.536-22.496-3.2-35.488-23.104-44.096-36.288-1.44-2.208-2.72-4.352-4-6.080-8.288-2.336-15.488-4.48-15.488-4.48-3.136-0.928-6.016-2.464-8.544-4.576-52.128-43.232-49.088-118.56-47.328-163.584 0.384-8.736 0.768-19.616 0.864-20.64-4.384-5.952-8.576-13.248-9.696-26.336-4.736-55.808 11.168-75.424 32.128-87.456 2.752-12.288 10.016-27.392 20.672-48.672 4.224-8.448 10.112-20.224 13.024-27.488-7.008-10.048-19.968-27.456-31.904-32.896-5.568-2.56-30.208-12.32-55.328-22.304-25.92-10.272-52.352-20.768-60.256-24.288-2.656-1.184-6.432-2.688-10.912-4.512-32.8-13.184-66.176-27.648-82.080-46.4-2.752-3.264-8.672-10.784-13.6-41.344-58.592 77.664-93.792 173.952-93.792 278.56 0 255.84 208.16 464 464 464zM184.672 119.488c2.080 28.448 5.792 55.968 7.296 60.224 9.6 11.296 47.328 26.464 63.424 32.928 5.088 2.048 9.376 3.776 12.416 5.12 7.68 3.392 33.376 13.6 58.56 23.584 26.208 10.4 51.872 20.64 57.632 23.296 25.984 11.872 45.184 40.096 54.432 53.696l2.016 2.912c11.584 16.544 2.24 35.168-14.656 68.928-5.984 11.904-15.968 31.872-16.768 37.632-0.896 19.936-15.968 27.584-22.432 30.88-4.672 2.368-11.712 5.984-8.096 44.064 2.080 2.88 6.016 8.256 7.744 16.896 1.696 8.416 1.248 19.168 0.672 34.016-1.376 34.88-3.68 92.448 26.528 121.664l14.496 4.16c12.672 3.52 19.712 14.304 26.528 24.736 3.136 4.768 8.928 13.664 10.336 14.912 17.76 2.016 98.528-0.48 131.872-31.136 23.84-21.92 39.616-36.384 41.472-72.448 1.984-38.432 0.672-73.856 0.16-87.2l-0.192-5.792c0-11.36 7.104-17.984 10.528-21.152 3.36-3.168 7.232-6.72 2.464-23.008-3.552-12.192-10.016-20.672-23.2-30.368-17.056-12.64-46.368-93.376-47.040-96.448-5.088-23.712 26.4-75.488 68.896-88.768 62.688-19.584 158.624-56.288 183.872-79.008 2.368-10.144 4.704-38.272 5.92-64.16-83.968-83.744-199.808-135.648-327.552-135.648-127.616 0-243.36 51.808-327.328 135.488z"/>
      <glyph unicode="&#xe902;" glyph-name="heart-fill"
             d="M822.368 805.344c-96.288 51.872-207.424 22.208-281.504-51.84l-29.632-29.632-29.632 29.632c-74.080 74.080-192.608 96.288-281.504 51.84-155.552-81.472-177.76-274.080-66.656-385.216l333.376-333.376c29.632-29.632 66.656-29.632 96.32 0l333.344 333.376c103.68 111.136 81.472 303.744-74.112 385.216v0 0z"/>
      <glyph unicode="&#xe903;" glyph-name="heart"
             d="M514.944 40.576c-23.456 0-45.984 10.112-65.12 29.248l-333.344 333.376c-59.36 59.328-86.144 140.96-73.472 224 12.96 84.928 66.144 157.632 145.984 199.392 33.568 16.768 71.872 25.568 111.168 25.568 74.176 0 146.496-29.792 198.432-81.696l12.672-12.672 12.672 12.672c54.016 54.016 125.28 84.96 195.552 84.96 40.16 0 78.624-9.76 114.304-28.96 78.56-41.12 132-113.248 146.4-197.728 13.888-81.6-10.848-165.728-66.144-224.96l-333.984-333.952c-19.136-19.136-41.632-29.248-65.12-29.248zM300.16 804.16c-31.904 0-62.784-7.040-89.312-20.288-65.728-34.432-109.76-94.24-120.384-163.936-10.336-67.744 11.52-134.368 59.968-182.816l333.344-333.376c6.944-6.944 17.984-15.2 31.2-15.2s24.256 8.256 31.2 15.2l333.28 333.376c44.608 47.776 64.768 116.64 53.344 183.552-11.84 69.568-56.16 129.12-121.6 163.392-80.64 43.36-183.2 22.624-253.376-47.552l-46.592-46.592-46.592 46.592c-42.336 42.368-103.84 67.648-164.48 67.648z"/>
      <glyph unicode="&#xe904;" glyph-name="qzone"
             d="M504.768 958.848c-5.216-2.272-19.936-18.528-19.936-22.272 0-1.28-22.88-52.352-51.040-113.152-28.128-60.928-52.256-114.24-53.632-118.4-1.152-3.968-3.296-8.64-4.288-10.176-1.152-1.44-7.84-14.848-14.912-29.792-7.552-16.224-15.616-29.856-20.064-33.6-10.912-9.6-3.584-8.704-221.344-34.176-98.368-11.616-109.216-13.344-115.136-19.072-4.256-4-5.888-18.272-2.848-26.816 0.96-2.144 43.296-44.256 94.112-93.504 160.8-155.456 150.368-144.672 150.368-156.32 0-5.632-3.328-26.176-7.104-46.048-3.968-19.776-12.992-69.28-20.32-110.176-7.296-40.832-15.84-87.648-18.912-104.032-16.32-87.104-16.544-89.568-8.032-98.976 8.032-8.928 17.216-7.968 41.568 4.928 22.72 12.128 24.832 13.344 69.504 40.832 16.288 9.952 37.632 22.816 47.296 28.448 9.696 5.728 27.68 16.896 39.776 24.576 12.032 7.68 22.464 13.856 23.104 13.856 0.48 0 7.84 4.448 16.096 9.92 8.32 5.44 15.84 9.856 16.832 9.856 0.96 0 9.408 4.928 18.944 11.104 22.432 14.624 41.856 22.080 52.928 19.872 4.768-1.024 16.032-5.728 25.056-10.88 23.648-13.152 172.64-102.976 218.944-132 39.456-24.768 51.104-29.472 64.48-25.728 9.024 2.272 11.616 15.84 8.544 42.848-1.376 12.192-3.456 25.792-4.704 30.496-1.856 7.968-9.632 51.776-28.608 161.6-8.704 52.32-8.704 53.28 10.88 60.992 27.2 10.656 39.968 20.096 35.040 25.344-1.6 1.696-16.8-0.352-48.256-6.304-58.304-11.072-70.432-12.896-132.192-18.752-70.208-6.976-135.008-8.448-221.536-5.248-67.648 2.528-148.032 8.704-152.544 11.616-3.52 2.56-1.856 10.144 3.552 15.168 2.88 2.784 38.784 29.696 79.712 60.192 128.16 95.104 211.36 157.984 218.24 164.672 11.776 11.648 10.88 12.128-38.304 18.848-77.792 10.368-98.080 12.128-224.864 18.368-42.304 1.856-80.64 4.448-85.12 5.152-46.336 8.192 189.856 30.4 289.664 27.232 65.472-1.952 142.528-7.68 187.904-13.856 42.4-5.92 44.992-6.432 44.992-11.424 0-4-4.48-7.456-104-79.232-40.928-29.696-84.48-61.152-96.736-70.048-12.064-8.928-24.64-18.048-27.424-20.128-13.312-9.344-57.728-41.728-70.016-51.2-7.776-5.952-13.952-12.416-13.952-14.368 0-4.704 11.584-7.648 47.296-12.096 94.752-11.648 271.2-18.144 278.944-9.952 1.696 1.792 1.44 7.168-1.12 18.624-1.952 8.608-3.648 16.832-3.648 18.048 0 3.456 40.256 45.568 95.808 100.096 146.944 143.968 150.24 147.456 150.24 158.848 0 9.92-7.904 18.88-19.456 21.792-5.6 1.472-39.424 5.472-75.168 9.12-35.68 3.52-75.2 7.456-87.52 8.704-12.224 1.568-38.272 4.192-57.92 6.4-74.944 7.904-97.92 10.976-103.328 13.6-10.368 4.928-20.128 25.28-91.68 194.176-51.104 120.832-55.616 130.528-62.688 137.12-5.856 5.76-15.136 8.032-21.472 5.28v0 0z"/>
      <glyph unicode="&#xe905;" glyph-name="cloud-upload"
             d="M820.824 511.552c0.177 4.011 0.261 7.768 0.261 11.412 0 165.5-134.638 300.138-300.138 300.138s-300.138-134.638-300.138-300.138c0-3.665 0.085-7.408 0.261-11.412-106.588-9.958-188.578-99.060-188.578-207.378 0-114.879 93.459-208.331 208.331-208.331h170.549c5.847 0 10.593 4.746 10.593 10.593s-4.746 10.593-10.593 10.593h-170.549c-103.191 0-187.145 83.954-187.145 187.145 0 100.55 78.643 182.66 179.045 186.94 2.86 0.127 5.551 1.398 7.458 3.538s2.86 4.958 2.655 7.811c-0.565 7.804-0.833 14.322-0.833 20.501 0 153.812 125.14 278.952 278.952 278.952s278.952-125.14 278.952-278.952c0-6.151-0.261-12.662-0.833-20.501-0.205-2.853 0.749-5.678 2.655-7.811 1.914-2.14 4.597-3.411 7.465-3.538 100.394-4.273 179.045-86.383 179.045-186.94 0-103.191-83.954-187.145-187.145-187.145h-112.146c-91.757 0-166.404 74.646-166.404 166.404l0.049 273.577 161.693-161.693c4.138-4.138 10.84-4.138 14.979 0s4.138 10.84 0 14.979l-179.765 179.772c-0.918 0.918-1.999 1.568-3.136 2.083-0.353 0.162-0.706 0.261-1.073 0.381-0.847 0.282-1.702 0.445-2.592 0.501-0.367 0.021-0.72 0.071-1.095 0.056-1.13-0.042-2.246-0.233-3.333-0.65-0.092-0.035-0.191-0.035-0.282-0.071-0.014-0.007-0.028 0-0.035-0.007-1.186-0.494-2.203-1.236-3.107-2.083-0.099-0.092-0.226-0.12-0.325-0.219l-179.779-179.765c-4.138-4.138-4.138-10.84 0-14.979 2.069-2.069 4.781-3.1 7.493-3.1s5.424 1.031 7.493 3.1l161.679 161.686-0.056-273.57c0-103.438 84.152-187.59 187.59-187.59h112.139c114.879 0 208.331 93.452 208.331 208.331 0.007 108.318-81.998 197.42-188.585 207.378z"/>
      <glyph unicode="&#xe906;" glyph-name="qzone-circle"
             d="M512 960c-282.752 0-512-229.248-512-512 0-282.816 229.248-512 512-512 282.784 0 512 229.184 512 512 0 282.752-229.216 512-512 512zM768.832 450.944c-39.072-38.336-67.392-67.936-67.392-70.368 0-0.832 1.184-6.624 2.56-12.672 1.792-8.064 1.952-11.84 0.768-13.088-5.44-5.76-129.504-1.184-196.128 7.008-25.12 3.136-33.28 5.184-33.28 8.512 0 1.376 4.352 5.92 9.824 10.080 8.608 6.656 39.872 29.44 49.216 36 1.984 1.472 10.784 7.872 19.296 14.144 8.64 6.24 39.232 28.384 68 49.248 69.984 50.464 73.12 52.896 73.12 55.712 0 3.488-1.824 3.872-31.616 8.032-31.904 4.352-86.080 8.384-132.128 9.76-70.176 2.208-236.256-13.408-203.68-19.168 3.136-0.512 30.080-2.304 59.84-3.616 89.152-4.384 103.392-5.632 158.112-12.896 34.592-4.736 35.232-5.056 26.944-13.248-4.832-4.672-63.328-48.896-153.44-115.776-28.768-21.44-54.016-40.352-56.032-42.304-3.808-3.52-4.96-8.832-2.496-10.656 3.2-2.048 59.712-6.368 107.264-8.16 60.832-2.24 106.4-1.216 155.776 3.68 43.392 4.128 51.936 5.408 92.928 13.184 22.112 4.192 32.8 5.632 33.952 4.448 3.456-3.68-5.504-10.304-24.64-17.824-13.792-5.408-13.792-6.080-7.648-42.88 13.344-77.216 18.816-108.032 20.128-113.632 0.864-3.328 2.336-12.864 3.328-21.44 2.144-19.008 0.352-28.544-6.016-30.112-9.408-2.624-17.6 0.672-45.344 18.112-32.576 20.416-137.344 83.552-153.952 92.8-6.336 3.616-14.272 6.944-17.632 7.648-7.808 1.568-21.44-3.68-37.216-13.984-6.688-4.352-12.64-7.808-13.312-7.808s-5.984-3.136-11.84-6.944c-5.792-3.84-10.976-6.976-11.328-6.976-0.448 0-7.776-4.352-16.256-9.76-8.512-5.408-21.152-13.248-27.968-17.28-6.784-3.968-21.792-12.992-33.248-20-31.392-19.328-32.896-20.192-48.864-28.704-17.12-9.056-23.584-9.76-29.248-3.456-6.016 6.624-5.824 8.352 5.632 69.6 2.144 11.52 8.16 44.448 13.312 73.152 5.152 28.736 11.488 63.552 14.304 77.472 2.656 13.984 4.992 28.416 4.992 32.384 0 8.192 7.328 0.576-105.728 109.888-35.744 34.624-65.504 64.256-66.176 65.76-2.144 6.016-0.992 16.032 2.016 18.848 4.16 4.032 11.776 5.248 80.96 13.408 153.12 17.92 147.968 17.28 155.648 24.032 3.136 2.624 8.8 12.224 14.112 23.616 4.96 10.496 9.664 19.936 10.464 20.928 0.704 1.088 2.208 4.384 3.008 7.168 0.992 2.944 17.952 40.416 37.728 83.264 19.808 42.688 35.904 78.624 35.904 79.52 0 2.624 10.336 14.080 14.016 15.648 4.448 1.952 10.944 0.352 15.072-3.712 4.992-4.64 8.128-11.424 44.064-96.416 50.304-118.752 57.184-133.056 64.48-136.544 3.808-1.856 19.968-4 72.64-9.568 13.824-1.568 32.128-3.392 40.704-4.512 8.672-0.864 36.448-3.648 61.536-6.112 25.12-2.56 48.896-5.376 52.832-6.4 8.128-2.048 13.696-8.352 13.696-15.328 0.032-7.968-2.272-10.432-105.568-111.712z"/>
      <glyph unicode="&#xe907;" glyph-name="cloud-update"
             d="M672.846 324.859c-5.056 2.924-11.539 1.201-14.477-3.87-26.349-45.557-75.381-73.862-127.944-73.862-78.297 0-142.385 61.285-147.237 138.374h18.291l-30.014 60.028-30.014-60.028h20.353c4.859-88.798 78.629-159.56 168.628-159.56 60.105 0 116.157 32.358 146.291 84.441 2.917 5.064 1.186 11.546-3.877 14.477zM519.599 571.989c-60.105 0-116.164-32.358-146.298-84.441-2.924-5.064-1.193-11.546 3.87-14.477 5.064-2.924 11.546-1.193 14.477 3.87 26.349 45.557 75.381 73.862 127.951 73.862 78.29 0 142.378-61.285 147.23-138.374h-18.948l30.014-60.028 30.014 60.028h-19.689c-4.859 88.798-78.629 159.56-168.621 159.56zM819.942 511.552c0.177 4.011 0.261 7.768 0.261 11.412 0 165.5-134.638 300.138-300.138 300.138s-300.138-134.638-300.138-300.138c0-3.651 0.085-7.401 0.261-11.412-106.581-9.958-188.578-99.060-188.578-207.378 0-114.879 93.452-208.331 208.331-208.331h560.262c114.879 0 208.331 93.452 208.331 208.331 0 108.318-82.005 197.42-188.593 207.378zM800.203 117.029h-560.262c-103.191 0-187.145 83.954-187.145 187.145 0 100.55 78.65 182.66 179.045 186.94 2.86 0.127 5.551 1.398 7.465 3.538 1.907 2.14 2.86 4.958 2.655 7.811-0.572 7.839-0.833 14.35-0.833 20.501 0 153.812 125.14 278.952 278.952 278.952s278.952-125.14 278.952-278.952c0-6.151-0.261-12.662-0.833-20.501-0.205-2.853 0.749-5.678 2.655-7.811 1.914-2.14 4.597-3.411 7.465-3.538 100.394-4.273 179.045-86.383 179.045-186.94-0.014-103.198-83.968-187.145-187.159-187.145z"/>
      <glyph unicode="&#xe908;" glyph-name="picture-o"
             d="M731.328 557.632c0-49.472-40.128-89.6-89.6-89.6-49.568 0-89.6 40.128-89.6 89.6 0 49.632 40.032 89.6 89.6 89.6 49.472 0 89.6-39.968 89.6-89.6zM1006.048 835.712c-9.632 9.6-21.728 14.688-36.32 14.944l-915.776-2.656c-28.224-0.096-51.072-23.008-51.072-51.232v-679.584c0-13.6 5.408-26.656 15.072-36.288 9.6-9.568 22.592-14.944 36.16-14.944 0.064 0 0.096 0 0.16 0l915.808 2.656c28.224 0.096 51.072 23.008 51.072 51.232v679.584c-0.032 13.6-5.44 26.656-15.104 36.288zM918.688 748.064v-577.152h-4.256l-132.832 173.856c-8.576 11.2-21.344 18.368-35.36 19.84-13.952 1.248-27.968-2.944-38.688-12.128l-118.496-101.856-148.608 196.256c-8.928 11.84-22.592 19.2-37.408 20.192-14.624 0.768-29.312-4.512-39.744-15.040l-257.984-260.192v553.888l813.376 2.336z"/>
      <glyph unicode="&#xe909;" glyph-name="buyihua"
             d="M696.384 412.992c-2.864 3.344-7.888 3.696-11.232 0.896l-124.128-105.136-132.256 179.728c-1.376 1.872-3.488 3.040-5.792 3.232-2.304 0.144-4.576-0.624-6.24-2.256l-230-224.976c-3.152-3.088-3.216-8.16-0.128-11.312 1.568-1.616 3.648-2.4 5.712-2.4 2.016 0 4.032 0.768 5.6 2.288l223.424 218.528 131.872-179.216c1.312-1.792 3.312-2.96 5.52-3.216 2.144-0.224 4.416 0.416 6.096 1.84l124.624 105.552 119.152-138.080c2.864-3.36 7.936-3.696 11.28-0.848 3.344 2.896 3.712 7.936 0.832 11.28l-124.336 144.096zM575.792 488.224c29.104 0 52.8 23.68 52.8 52.8s-23.68 52.8-52.8 52.8-52.8-23.68-52.8-52.8 23.68-52.8 52.8-52.8zM575.792 577.808c20.288 0 36.8-16.496 36.8-36.8s-16.512-36.8-36.8-36.8-36.8 16.496-36.8 36.8 16.512 36.8 36.8 36.8zM897.2 769.408v4.72h-784v-560h3.264l-0.832-0.864 83.808-81.536h779.248v555.28l-81.488 82.4zM962.672 680.448v-520.496l-65.472 65.472v521.232l65.472-66.208zM129.2 758.128h752v-528h-752v528zM137.68 214.128h748.208l66.384-66.384h-746.352l-68.24 66.384z"/>
      <glyph unicode="&#xe90a;" glyph-name="youkuanghua"
             d="M255.552 287.584l171.84 183.52 125.728-178.624c1.344-1.904 3.472-3.136 5.808-3.36 2.32-0.144 4.64 0.608 6.32 2.256l106.816 104.32 85.44-113.728c1.584-2.080 3.984-3.184 6.4-3.184 1.664 0 3.36 0.512 4.8 1.616 3.536 2.656 4.24 7.664 1.6 11.2l-90.912 121.008c-1.376 1.824-3.488 2.992-5.792 3.152-2.272 0.336-4.544-0.64-6.192-2.256l-106.624-104.112-125.984 178.976c-1.376 1.968-3.584 3.2-5.984 3.376-2.384 0.176-4.752-0.752-6.384-2.512l-178.56-190.688c-3.024-3.216-2.864-8.288 0.368-11.312s8.304-2.896 11.312 0.352zM575.792 488.224c29.104 0 52.8 23.68 52.8 52.8s-23.68 52.8-52.8 52.8-52.8-23.68-52.8-52.8 23.68-52.8 52.8-52.8zM575.792 577.808c20.288 0 36.8-16.496 36.8-36.8s-16.512-36.8-36.8-36.8-36.8 16.496-36.8 36.8 16.512 36.8 36.8 36.8zM80 778.272v-640h13.472l0.192-0.192 0.192 0.192h850.144v640h-864zM911.2 762.272l-95.488-95.504h-612.912l-95.488 95.504h803.888zM816 650.768v-384h-608v384h608zM96 750.96l96-96v-395.888l-96-96v587.888zM109.84 154.272l96.496 96.496h605.84l96.48-96.496h-798.816zM928 157.552l-96 96.016v406.864l96 96.016v-598.896z"/>
      <glyph unicode="&#xe90b;" glyph-name="huaxin"
             d="M83.328 779.52v-640h730.704l133.296 137.232v502.768h-864zM99.328 763.52h832v-480.272l-1.696-1.744h-31.296v449.488h-768v-544h673.008v-31.488h-704v608.016zM882.336 281.504h-79.008v-78.496h-656.992v512h736v-433.504zM178.32 237.328c2.128 0 4.256 0.848 5.824 2.512l216.176 230.176 139.392-205.504c1.408-2.080 3.68-3.36 6.192-3.504 2.4-0.176 4.912 0.896 6.512 2.784l105.552 123.456 104-137.072c2.672-3.536 7.712-4.208 11.2-1.552 3.536 2.672 4.224 7.68 1.552 11.2l-110 145.008c-1.472 1.936-3.712 3.088-6.144 3.168-2.432 0.064-4.752-0.96-6.32-2.8l-105.184-123.024-139.104 205.088c-1.376 2.016-3.584 3.296-6 3.488-2.336 0.192-4.8-0.736-6.448-2.48l-223.024-237.456c-3.024-3.232-2.864-8.304 0.352-11.312 1.536-1.456 3.504-2.176 5.472-2.176zM566.544 484.48c29.104 0 52.8 23.68 52.8 52.8s-23.68 52.8-52.8 52.8-52.8-23.68-52.8-52.8 23.68-52.8 52.8-52.8zM566.544 574.080c20.304 0 36.8-16.496 36.8-36.8s-16.496-36.8-36.8-36.8-36.8 16.496-36.8 36.8 16.496 36.8 36.8 36.8z"/>
      <glyph unicode="&#xe90c;" glyph-name="juanzhouhua"
             d="M864.912 301.728l-138 134c-2.704 2.624-6.848 3.008-9.984 0.944l-106.688-70.48-128.512 122.384c-2.688 2.544-6.72 2.944-9.824 0.944l-288.88-184.784c-3.712-2.368-4.816-7.328-2.416-11.040 2.352-3.728 7.328-4.784 11.040-2.416l283.6 181.392 128.576-122.448c2.72-2.56 6.816-2.944 9.92-0.88l106.64 70.448 133.376-129.52c1.552-1.52 3.552-2.272 5.568-2.272 2.080 0 4.176 0.816 5.728 2.416 3.088 3.184 3.024 8.24-0.144 11.312zM640.56 462.256c29.104 0 52.8 23.68 52.8 52.8s-23.68 52.8-52.8 52.8-52.8-23.68-52.8-52.8 23.696-52.8 52.8-52.8zM640.56 551.84c20.304 0 36.8-16.496 36.8-36.8s-16.496-36.8-36.8-36.8-36.8 16.496-36.8 36.8 16.512 36.8 36.8 36.8zM944.608 640.112v54.448c0 8.816-7.184 15.968-16.016 15.968h-136.992l-259.744 63.856c-1.232 0.32-2.48 0.32-3.728 0.032l-273.088-63.888h-126.416c-8.832 0-16.016-7.152-16.016-15.968v-54.448c0-8.816 7.184-15.968 16.016-15.968h0.704v-348.736h-0.704c-8.832 0-16.016-7.152-16.016-15.968v-54.464c0-8.816 7.184-15.968 16.016-15.968h384.384c-9.728-5.504-16.4-15.824-16.4-27.76 0-17.648 14.352-32 32-32s32 14.352 32 32c0 11.952-6.672 22.272-16.4 27.76h384.384c8.832 0 16.016 7.152 16.016 15.968v54.464c0 8.56-6.816 15.408-15.28 15.824v349.024c8.48 0.4 15.28 7.264 15.28 15.824zM528.608 145.232c-8.832 0-16 7.168-16 16s7.168 16 16 16 16-7.168 16-16-7.168-16-16-16zM529.904 758.384l194.704-47.856h-399.248l204.544 47.856zM128.608 640.112l0.016 54.416 661.824 0.016c0.064 0 0.144-0.016 0.208-0.016 0.048 0 0.096 0.016 0.16 0.016h137.792v-54.416c0 0 0 0-0.016 0l-791.104-0.032c-0.048 0-0.096 0.032-0.16 0.032s-0.096-0.032-0.16-0.032h-8.56zM145.328 624.144h768v-348.736h-768v348.736zM928.608 204.992c0 0 0 0 0 0l-800-0.032 0.016 54.432h8.704c0 0 0 0 0 0s0 0 0 0l783.84 0.032c0.048 0 0.096-0.032 0.16-0.032s0.096 0.032 0.16 0.032h7.136v-54.432z"/>
      <glyph unicode="&#xe90d;" glyph-name="smile-o"
             d="M512 912c255.84 0 464-208.16 464-464s-208.16-464-464-464-464 208.16-464 464 208.16 464 464 464zM512 960c-282.752 0-512-229.184-512-512 0-282.752 229.248-512 512-512 282.784 0 512 229.248 512 512 0 282.816-229.216 512-512 512v0zM512 131.648c-101.28 0-197.056 49.184-256.224 131.584-7.68 10.72-14.72 21.92-20.864 33.248-6.304 11.648-2.016 26.208 9.664 32.544s26.208 2.016 32.544-9.664c5.184-9.568 11.136-19.040 17.696-28.128 50.144-69.888 131.328-111.584 217.216-111.584 98.016 0 188.032 53.536 234.912 139.712 6.368 11.616 20.832 15.904 32.576 9.632 11.648-6.336 15.936-20.896 9.632-32.576-55.36-101.632-161.568-164.768-277.152-164.768zM359.328 539.136c0-17.664-14.336-32-32-32v0c-17.664 0-32 14.336-32 32v64c0 17.664 14.336 32 32 32v0c17.664 0 32-14.336 32-32v-64zM753.344 539.136c0-17.664-14.336-32-32-32v0c-17.664 0-32 14.336-32 32v64c0 17.664 14.336 32 32 32v0c17.664 0 32-14.336 32-32v-64z"/>
      <glyph unicode="&#xe90e;" glyph-name="home"
             d="M1008.96 460.48l-473.984 473.984c-9.376 9.376-24.576 9.376-33.952 0l-485.984-485.984c-9.376-9.376-9.376-24.576 0-33.952 4.672-4.672 10.816-7.040 16.96-7.040s12.288 2.336 16.96 7.040l87.040 87.040v-523.072c0-13.248 10.752-24 24-24h704c13.248 0 24 10.752 24 24v535.072l87.040-87.040c9.376-9.376 24.576-9.376 33.952 0s9.344 24.576-0.032 33.952zM840 554.496v-552h-656v547.072l334.016 333.984 323.2-323.2c-0.544-1.92-1.216-3.776-1.216-5.856z"/>
      <glyph unicode="&#xe90f;" glyph-name="angle-left"
             d="M704 52c-3.072 0-6.144 1.168-8.48 3.52l-384 384c-4.688 4.688-4.688 12.288 0 16.976l384 384c4.688 4.688 12.288 4.688 16.976 0s4.688-12.288 0-16.976l-375.536-375.52 375.52-375.52c4.688-4.688 4.688-12.288 0-16.976-2.336-2.336-5.408-3.504-8.48-3.504z"/>
      <glyph unicode="&#xe910;" glyph-name="angle-right"
             d="M320 52c-3.072 0-6.144 1.168-8.48 3.52-4.688 4.688-4.688 12.288 0 16.976l375.504 375.504-375.504 375.52c-4.688 4.688-4.688 12.288 0 16.976s12.288 4.688 16.976 0l384-384c4.688-4.688 4.688-12.288 0-16.976l-384-384c-2.352-2.352-5.424-3.52-8.496-3.52z"/>
      <glyph unicode="&#xe911;" glyph-name="baozhen"
             d="M229.68 55.856c-39.984 0-64.608 8.848-77.536 27.84-27.344 40.192-13.696 124.032 0.736 212.8 7.824 48.096 15.92 97.808 15.92 136.24 0 38.576-7.040 90.544-14.48 145.6-13.28 98.016-25.824 190.624-2.16 225.088 12.128 17.664 36.528 25.904 76.768 25.904 32.16 0 72.624-5.104 115.472-10.528 52.464-6.64 111.92-14.16 169.696-14.16 57.632 0 117.584 8.288 170.464 15.6 43.264 5.984 84.128 11.632 116.32 11.632 25.648 0 61.376-3.008 75.584-29.152 17.936-33.008 8.208-110.992-3.056-201.28-6.896-55.2-14.016-112.288-14.016-157.872 0-44.496 7.296-97.168 14.336-148.128 11.664-84.288 22.688-163.904 3.072-210.336-11.072-26.208-45.12-29.232-69.776-29.232-29.84 0-67.168 5.008-110.4 10.784-55.504 7.424-118.416 15.824-182.528 15.824-59.056 0-118.496-8.176-170.928-15.376-42.048-5.776-81.776-11.248-113.488-11.248 0.016 0 0 0 0 0zM514.096 98.464c65.168 0 128.64-8.48 184.64-15.984 42.672-5.696 79.52-10.624 108.288-10.624 31.936 0 49.424 6.192 55.040 19.456 17.904 42.368 6.672 123.488-4.192 201.92-7.12 51.488-14.496 104.704-14.496 150.32 0 46.592 7.184 104.176 14.144 159.856 10 80.224 20.352 163.168 4.88 191.664-7.696 14.176-27.248 20.784-61.52 20.784-31.088 0-71.424-5.584-114.128-11.472-53.392-7.392-113.936-15.744-172.656-15.744-58.784 0-118.768 7.6-171.696 14.288-42.336 5.36-82.32 10.416-113.472 10.416-34.496 0-54.704-6.032-63.584-18.992-20.16-29.376-6.896-127.408 4.816-213.888 7.52-55.584 14.64-108.080 14.64-147.728 0-39.712-8.192-90.096-16.128-138.8-13.312-81.776-27.072-166.32-3.312-201.232 9.68-14.224 30.128-20.848 64.336-20.848 30.608 0 68 5.136 111.296 11.088 52.944 7.28 112.944 15.52 173.104 15.52zM236.688 610.576c-3.84 0-7.232 2.768-7.888 6.672-6.816 40.544 44.704 113.872 79.248 123.968 4.272 1.248 8.672-1.184 9.92-5.424 1.232-4.256-1.2-8.688-5.44-9.92-27.44-8.032-73.376-73.776-67.952-105.968 0.72-4.352-2.208-8.48-6.56-9.216-0.448-0.080-0.896-0.112-1.328-0.112zM282.544 136.8c-0.736 0-1.488 0.112-2.24 0.336-34.544 10.080-86.064 83.408-79.248 123.968 0.72 4.352 4.8 7.36 9.216 6.56 4.352-0.736 7.296-4.864 6.56-9.216-5.408-32.208 40.512-97.952 67.952-105.968 4.24-1.232 6.672-5.664 5.44-9.904-1.024-3.52-4.208-5.776-7.68-5.776zM784.208 610.576c-0.432 0-0.88 0.032-1.328 0.112-4.352 0.736-7.296 4.864-6.56 9.216 5.424 32.192-40.512 97.936-67.952 105.968-4.24 1.232-6.672 5.664-5.44 9.92 1.248 4.24 5.68 6.672 9.92 5.424 34.544-10.096 86.064-83.424 79.248-123.968-0.656-3.904-4.048-6.672-7.888-6.672zM738.352 136.8c-3.472 0-6.656 2.272-7.68 5.76-1.232 4.24 1.2 8.672 5.44 9.904 27.44 8.016 73.376 73.76 67.952 105.968-0.72 4.352 2.208 8.48 6.56 9.216 4.416 0.816 8.48-2.208 9.216-6.56 6.816-40.56-44.704-113.888-79.248-123.968-0.752-0.208-1.504-0.32-2.24-0.32z"/>
      <glyph unicode="&#xe912;" glyph-name="all-product"
             d="M83.226 537.6h128v-128h-128v128zM467.226 537.6h128v-128h-128v128zM851.226 537.6h128v-128h-128v128z"/>
      <glyph unicode="&#xe913;" glyph-name="about"
             d="M76.8 809.651h921.6v-76.8h-921.6v76.8zM76.8 195.251h921.6v-76.8h-921.6v76.8zM76.8 502.451h768v-76.8h-768v76.8z"/>
      <glyph unicode="&#xe914;" glyph-name="lvxingbei"
             d="M681.456 832.896c-6.352 6.976-36.016 29.664-150.672 29.664-80.048 0-135.984-19.216-149.2-27.984-2.288-1.536-3.648-4.112-3.584-6.864l18-758.672c0.064-2.368 1.168-4.608 3.040-6.080 34.672-27.44 100.080-29.568 119.312-29.568h0.144c26.496 0 107.12 0 146.24 28.816 2 1.472 3.2 3.792 3.264 6.288l15.552 758.864c0.048 2.032-0.704 4.016-2.096 5.536zM396.768 711.456c3.328 0.384 6.448 0.784 9.744 1.248 13.76 1.968 34.576 4.928 119.344 8.704 72.48 3.232 138.048-4.368 138.704-4.448 0.256-0.032 0.48 0.064 0.72 0.048l-0.448-22.192c-10.304 1.36-67.264 8.368-134.4 5.312-85.248-3.776-109.296-7.312-125.2-9.648-2.784-0.4-5.344-0.768-7.936-1.104l-0.528 22.080zM530.784 846.544c85.616 0 124.976-13.312 136.704-22.464l-1.872-91.152c-7.664 0.864-70.928 7.552-140.464 4.448-85.552-3.792-105.984-6.704-120.896-8.832-2.688-0.384-5.232-0.72-7.872-1.040l-2.272 95.776c15.952 7.84 65.616 23.264 136.672 23.264zM518.496 49.392l-0.144-8v8c-35.504 0-81.344 6.336-106.448 23.92l-14.24 600c3.248 0.384 6.416 0.816 9.872 1.328 15.6 2.288 39.152 5.728 123.6 9.504 72.32 3.136 132.624-5.328 133.216-5.424 0.048 0 0.096 0.016 0.144 0.016l-12.416-605.84c-24.048-15.6-68.944-23.504-133.584-23.504z"/>
      <glyph unicode="&#xe915;" glyph-name="fanbudai"
             d="M737.008 596h-73.056c-14.432 39.328-103.232 274.672-143.952 274.672-40.96 0-143.44-233.92-159.824-274.672h-73.168c-4.416 0-8-3.584-8-8v-464c0-1.072 0.080-26.656 7.168-42.32 9.68-21.408 25.84-30.128 26.512-30.48 0.592-0.304 1.2-0.528 1.84-0.688 1.088-0.272 28.704-6.512 197.44-6.512 154.512 0 198.688 7.792 201.216 8.304 0.816 0.24 20.32 6 27.984 31.936 3.68 12.48 3.824 43.28 3.824 46.768v456.992c0.016 4.416-3.584 8-7.984 8zM519.888 854.672c24.576-3.856 107.152-202.048 127.328-258.672h-270.208c22.432 58.192 118.064 256.192 142.88 258.672zM729.008 130.992c0-8.784-0.592-33.52-3.168-42.24-5.024-17.008-16.464-20.912-16.256-20.912v0c-0.432-0.080-44.544-7.856-197.6-7.856-149.648 0-186.512 4.848-192.672 5.872-2.864 1.824-12.368 8.704-18.56 22.4-4.704 10.368-5.744 29.296-5.744 35.712v456h434v-448.976z"/>
      <glyph unicode="&#xe916;" glyph-name="T-Shirt"
             d="M955.712 599.904l-292.048 224.816c-0.192 0.144-0.448 0.16-0.656 0.288-0.688 0.448-1.424 0.768-2.256 0.976-0.4 0.096-0.752 0.192-1.168 0.24-0.272 0.032-0.512 0.16-0.8 0.16h-238.88c-0.288 0-0.528-0.128-0.8-0.16-0.432-0.032-0.816-0.144-1.232-0.24-0.768-0.208-1.44-0.496-2.096-0.912-0.208-0.128-0.448-0.128-0.64-0.272l-301.088-224.832c-3.248-2.416-4.176-6.896-2.144-10.4l78.288-135.488c1.072-1.856 2.864-3.216 4.944-3.744s4.304-0.208 6.144 0.928l83.888 51.024v-432.944c0-4.416 3.584-8 8-8h481.024c4.416 0 8 3.584 8 8v432.896l83.152-50.976c1.856-1.12 4.048-1.472 6.096-0.96 2.064 0.496 3.856 1.808 4.96 3.664l81.296 135.488c2.096 3.472 1.232 7.968-1.984 10.448zM647.184 810.368c-9.696-21.92-39.616-71.344-112.336-71.344-61.824 0-92.24 49.152-102.832 71.344h215.168zM866.832 469.12l-88.448 54.208c-2.464 1.552-5.552 1.584-8.096 0.176-2.528-1.424-4.096-4.096-4.096-6.992v-439.168h-465.024v439.168c0 2.896-1.568 5.568-4.080 6.976-2.512 1.424-5.616 1.376-8.080-0.144l-89.056-54.176-70.624 122.24 287.232 214.464c11.296-23.904 46.464-82.848 118.288-82.848 82.272 0 116.688 58.048 127.536 82.48l277.936-213.952-73.488-122.432z"/>
      <glyph unicode="&#xe917;" glyph-name="renzheng"
             d="M512 928c-265.072 0-480-214.864-480-480 0-265.072 214.928-480 480-480 265.104 0 480 214.928 480 480 0 265.136-214.896 480-480 480zM512-8c-251.44 0-456 204.56-456 456s204.56 456 456 456 456-204.56 456-456-204.56-456-456-456zM789.2 672.096h-180.224c-20.16 16.912-72.128 58.576-94.464 58.576-20.544 0-80.080-39.344-107.936-58.576h-171.984c-3.248 0-6.352-1.312-8.624-3.664-2.256-2.336-3.472-5.488-3.376-8.72 0.272-8 6.736-197.376 49.216-329.376 41.28-128.336 167.12-231.664 243.792-231.664 70.912 0 205.28 95.312 245.584 227.008 32.832 107.216 39.728 324.848 40.016 334.064 0.096 3.232-1.12 6.384-3.392 8.72-2.24 2.32-5.36 3.632-8.608 3.632zM738.256 332.704c-36.688-119.84-160.352-210.032-222.64-210.032-59.696 0-181.488 92.336-220.96 215.008-35.344 109.824-45.312 265.712-47.536 310.4h163.184c2.448 0 4.848 0.752 6.848 2.144 38.688 26.896 87.040 55.984 97.344 56.432 10.208-0.16 50.8-28.944 82.32-55.712 2.16-1.84 4.928-2.864 7.76-2.864h172.176c-2-48.256-10.992-225.504-38.496-315.376zM524 608c0 6.624-5.376 12-12 12s-12-5.376-12-12v-148h-135.344c-6.624 0-12-5.376-12-12s5.376-12 12-12h135.344v-212c0-6.624 5.376-12 12-12s12 5.376 12 12v212h135.344c6.624 0 12 5.376 12 12s-5.376 12-12 12h-135.344v148z"/>
      <glyph unicode="&#xe918;" glyph-name="shangjia"
             d="M512 928c-265.072 0-480-214.864-480-480 0-265.072 214.928-480 480-480 265.104 0 480 214.928 480 480 0 265.136-214.896 480-480 480zM512-8c-251.44 0-456 204.56-456 456s204.56 456 456 456 456-204.56 456-456-204.56-456-456-456zM511.904 613.728c-6.624 0-12-5.376-12-12v-452.16c0-6.624 5.376-12 12-12s12 5.376 12 12v452.16c0 6.624-5.376 12-12 12zM520.4 702.288c-4.56 4.32-11.712 4.416-16.368 0.144l-223.472-204.976c-4.896-4.48-5.216-12.080-0.736-16.96 2.352-2.576 5.6-3.888 8.848-3.888 2.912 0 5.808 1.040 8.112 3.152l215.216 197.392 207.568-197.248c4.8-4.56 12.384-4.352 16.976 0.432 4.56 4.8 4.368 12.4-0.432 16.976l-215.712 204.976z"/>
      <glyph unicode="&#xe919;" glyph-name="shouqian"
             d="M512 928c-265.072 0-480-214.864-480-480 0-265.072 214.928-480 480-480 265.104 0 480 214.928 480 480 0 265.136-214.896 480-480 480zM512-8c-251.44 0-456 204.56-456 456s204.56 456 456 456 456-204.56 456-456-204.56-456-456-456zM696.688 704.656l-184.416-192.24-173.36 191.968c-4.464 4.928-12.048 5.296-16.96 0.864-4.928-4.432-5.296-12.032-0.864-16.96l178.912-198.096v-32.144h-165.792c-6.624 0-12-5.376-12-12s5.376-12 12-12h165.792v-91.184h-165.792c-6.624 0-12-5.376-12-12s5.376-12 12-12h165.792v-166.512c0-6.624 5.376-12 12-12s12 5.376 12 12v166.512h165.792c6.624 0 12 5.376 12 12s-5.376 12-12 12h-165.792v91.184h165.792c6.624 0 12 5.376 12 12s-5.376 12-12 12h-165.792v31.936l190 198.048c4.592 4.784 4.432 12.384-0.336 16.976-4.8 4.608-12.4 4.432-16.976-0.352z"/>
      <glyph unicode="&#xe91a;" glyph-name="e-mail"
             d="M985.312 760.352c-6.912 15.552-18.72 27.936-33.408 34.464-7.392 3.264-15.456 5.184-23.904 5.184h-832c-8.448 0-16.48-1.92-23.904-5.184-14.688-6.528-26.496-18.88-33.408-34.464-4.16-9.312-6.688-19.68-6.688-30.752v-563.2c0-12.704 3.296-24.48 8.672-34.784 7.872-15.104 20.576-26.56 35.904-31.968 6.176-2.176 12.608-3.648 19.424-3.648h832c6.816 0 13.248 1.472 19.424 3.648 15.328 5.408 28.032 16.864 35.904 31.968 5.376 10.304 8.672 22.048 8.672 34.784v563.2c0 11.072-2.528 21.44-6.688 30.752zM909.088 752l-377.312-377.344c-9.472-9.472-19.232-13.632-25.024-14.496l-391.808 391.84h794.144zM80 170.944v548.096l274.048-274.048-274.048-274.048zM120.928 144l267.072 267.072 88.224-88.224c7.328-7.328 17.472-10.848 28.832-10.848 19.232 0 42.016 10.080 60.672 28.736l70.336 70.336 267.040-267.072h-782.176zM944 170.944l-274.048 274.048 274.048 274.048v-548.096z"/>
      <glyph unicode="&#xe91b;" glyph-name="save"
             d="M932 928h-840c-33.152 0-60-21.504-60-48v-864c0-26.496 26.848-48 60-48h839.968c33.152 0 60.032 21.504 60.032 48v864c0 26.496-26.88 48-60 48zM725.344 880c2.944 0 5.344-2.4 5.344-5.344v-213.344c0-2.944-2.4-5.344-5.344-5.344h-426.688c-2.944 0-5.344 2.4-5.344 5.344v213.344c0 2.944 2.4 5.344 5.344 5.344h426.688zM301.408 16c-2.88 2.976-8.096 12.064-8.096 26.656v298.656c0 14.624 5.216 23.68 8.096 26.656h421.184c2.88-2.976 8.096-12.064 8.096-26.656v-298.656c0-14.624-5.216-23.68-8.096-26.656h-421.184zM944 19.2c-1.984-1.376-6.144-3.2-12-3.2h-156.992c2.272 8.32 3.648 17.248 3.648 26.656v298.656c0 41.248-23.872 74.656-53.344 74.656h-426.656c-29.472 0-53.344-33.44-53.344-74.656v-298.656c0-9.44 1.376-18.368 3.648-26.656h-156.96c-5.824 0-10.016 1.792-12 3.2v857.6c1.984 1.376 6.176 3.2 12 3.2h153.856c-0.16-1.792-0.512-3.52-0.512-5.344v-213.344c0-29.44 23.872-53.312 53.312-53.312h426.656c29.472 0 53.344 23.872 53.344 53.344v213.312c0 1.824-0.352 3.552-0.544 5.344h153.856c5.856 0 10.016-1.792 12-3.2v-857.6z"/>
      <glyph unicode="&#xe91c;" glyph-name="zhaopianqiang"
             d="M58.608 366.624h256v304h-256v-304zM74.608 654.624h224v-272h-224v272zM106.608 414.624h160v208h-160v-208zM122.608 606.624h128v-176h-128v176zM586.336 800.992h-224v-272h224v272zM570.336 544.992h-192v240h192v-240zM538.336 752.992h-128v-176h128v176zM522.336 592.992h-96v144h96v-144zM905.328 752.992h-272v-224h272v224zM889.328 544.992h-240v192h240v-192zM857.328 704.992h-176v-128h176v128zM841.328 592.992h-144v96h144v-96zM761.328 480.96v-192h224v192h-224zM969.328 304.96h-192v160h192v-160zM937.328 432.96h-128v-96h128v96zM921.328 352.96h-96v64h96v-64zM347.328 160.96h368v320h-368v-320zM363.328 464.96h336v-288h-336v288zM395.328 208.96h272v224h-272v-224zM411.328 416.96h240v-192h-240v192z"/>
      <glyph unicode="&#xe91d;" glyph-name="people"
             d="M996.288 283.584c-21.696 4.896-77.376 22.688-102.272 49.024 29.28 0.256 71.008 5.984 84.288 34.688 1.76 3.776 2.24 7.968 0.672 11.808s-4.288 6.72-8.16 8.224c-0.352 0.192-32.864 18.336-31.424 128.192 0.032 1.152 2.080 114.624-120.8 128.352-0.416 0.128-0.864 0.096-1.28 0.192-1.44 0.16-2.656 0.448-4.128 0.576-0.096 0-0.16-0.032-0.256-0.032s-0.16 0.032-0.256 0.032c-0.832-0.064-1.504-0.288-2.304-0.352-1.088-0.128-2.208-0.16-3.232-0.512-27.328-3.008-49.728-10.72-67.072-22.976 0 0.288 0 0.544 0 0.8 0 1.792-2.496 176.192-191.68 197.504-2.016 0.704-4.16 0.8-6.336 0.896-0.8 0.064-1.44 0.256-2.24 0.32-0.128 0-0.224-0.032-0.32-0.032-0.128 0-0.224 0.064-0.352 0.032-0.896-0.064-1.664-0.288-2.56-0.352-2.016-0.128-4.032-0.192-5.92-0.832-189.76-21.312-186.656-196.416-186.624-197.76 0.48-36.192-1.472-65.664-4.736-90.176-5.024 31.424-27.136 101.984-122.464 112.704-0.544 0.128-1.216 0.096-1.824 0.192-1.28 0.128-2.368 0.416-3.68 0.512-0.096 0-0.16-0.032-0.256-0.032s-0.16 0.032-0.256 0.032c-1.76-0.128-3.2-0.48-4.896-0.672-0.16-0.032-0.32 0-0.48-0.064-122.912-13.696-120.896-127.2-120.864-128.064 1.44-109.696-30.816-128.16-30.656-128.16-3.904-1.504-6.976-4.512-8.544-8.384-1.568-3.84-1.44-8.16 0.288-11.936 13.28-28.704 54.976-34.432 84.256-34.688-24.896-26.272-80.544-44.096-102.24-49.024-8.096-1.824-13.152-9.856-11.328-17.952 1.568-6.976 7.776-11.712 14.624-11.712 1.088 0 2.208 0.128 3.328 0.384 12.448 2.784 121.888 29.216 136.448 91.136 1.12 4.736-0.16 9.728-3.36 13.376s-7.968 5.44-12.864 4.992c-22.976-2.464-57.12-0.896-73.376 8.192 15.296 17.12 34.624 56.256 33.44 144.544-0.128 3.616-1.632 88.256 96.448 97.856 97.888-9.6 99.744-94.752 99.776-98.144-0.512-38.56-1.12-63.584-1.728-80.288-7.456-10.752-13.152-14.176-13.088-14.176-5.824-2.24-10.464-6.784-12.8-12.576s-2.208-12.288 0.416-17.952c20.96-45.312 88.064-53.408 133.408-53.408 0.352 0 0.672 0 0.992 0-33.76-43.616-108.032-54.816-108.928-54.944-1.056-0.16-2.144-0.384-3.168-0.672-151.552-44.128-161.728-135.232-162.080-139.104-1.152-12.224 7.744-22.912 19.936-24.288 0.832-0.096 1.664-0.128 2.496-0.128 11.2 0 20.928 8.448 22.4 19.808 0.352 2.656 9.856 64.992 128.448 100.032 16.8 2.656 137.088 25.024 159.136 118.592 1.664 7.104-0.192 14.624-5.056 20.064-4.864 5.504-12.192 8.352-19.328 7.52-36.032-3.872-89.856-1.472-115.040 13.28 23.68 25.984 54.112 86.304 52.256 224.256-0.128 5.696-1.504 137.728 150.336 152.64 152.576-14.944 155.456-147.648 155.488-152.992-1.824-137.664 28.576-197.92 52.256-223.904-25.216-14.656-78.912-17.152-115.040-13.28-7.104 0.736-14.432-2.048-19.296-7.52-4.832-5.504-6.72-12.96-5.056-20.064 22.048-93.6 142.304-115.936 159.136-118.592 117.792-34.784 127.968-96.544 128.448-99.968 1.248-11.52 11.008-20.096 22.4-20.096 0.704 0 1.408 0.032 2.112 0.096 12.416 1.184 21.504 12.16 20.352 24.544-0.352 3.872-10.528 95.008-162.080 139.104-1.024 0.288-2.112 0.544-3.168 0.672-0.896 0.16-75.168 11.328-108.928 54.944 0.32 0 0.64 0 0.992 0 45.344 0 112.448 8.096 133.408 53.408 2.624 5.664 3.328 11.936 0.96 17.728-2.336 5.792-6.464 10.112-12.288 12.352-0.48 0.256-42.656 24-48.416 158.304 0.704 1.088 1.248 2.208 2.048 3.264 13.504 17.792 37.216 28.288 70.208 31.424 97.28-9.6 96.416-94.24 96.32-98.144-1.152-88.096 18.144-127.168 33.44-144.256-16.256-9.152-50.4-10.688-73.376-8.192-4.8 0.416-9.632-1.376-12.864-4.992-3.2-3.68-4.48-8.672-3.36-13.376 14.56-61.92 124-88.32 136.448-91.136 1.12-0.256 2.24-0.384 3.328-0.384 6.88 0 13.056 4.736 14.656 11.712 1.888 8.128-3.168 16.16-11.264 17.984z"/>
      <glyph unicode="&#xe91e;" glyph-name="book"
             d="M979.872 777.408c-4.864 2.592-120.672 63.616-240.608 63.616-100.384 0-195.968-42.688-227.392-58.176-31.776 15.392-129.216 58.176-229.76 58.176-120 0-233.472-61.12-238.24-63.744-7.328-4-11.872-11.68-11.872-20.064v-609.536c0-8.064 4.288-15.584 11.264-19.68 3.584-2.112 7.584-3.168 11.584-3.168 3.84 0 7.68 0.96 11.136 2.88 1.056 0.608 105.312 58.080 216.16 58.080 110.56 0 217.856-57.6 218.944-58.176 2.24-1.216 4.768-1.344 7.232-1.76 1.28-0.224 2.432-1.024 3.712-1.024 0.064 0 0.128 0.064 0.224 0.064 1.536 0 2.944 0.832 4.448 1.152 2.176 0.48 4.448 0.544 6.464 1.664 1.056 0.608 105.312 58.080 216.16 58.080 110.56 0 217.856-57.6 218.944-58.176 7.040-3.84 15.68-3.68 22.592 0.448 6.88 4.096 11.136 11.584 11.136 19.648v609.504c0 8.448-4.64 16.192-12.128 20.192zM77.728 184.224v558.912c30.848 14.848 117.12 52.16 204.448 52.16 87.232 0 175.456-37.472 207.008-52.32v-559.072c-43.424 18.944-123.136 47.584-207.008 47.584-83.488 0.032-161.568-28.352-204.448-47.264zM946.272 183.904c-43.424 18.944-123.136 47.584-207.008 47.584-83.456 0-161.536-28.352-204.448-47.296v558.944c30.848 14.848 117.12 52.16 204.448 52.16 87.232 0 175.456-37.472 207.008-52.32v-559.072z"/>
      <glyph unicode="&#xe91f;" glyph-name="minus"
             d="M832 472h-640c-13.248 0-24-10.752-24-24s10.752-24 24-24h640c13.248 0 24 10.752 24 24s-10.752 24-24 24z"/>
      <glyph unicode="&#xe920;" glyph-name="new-product-upload"
             d="M828.768 512.192c-0.096 174.56-142.144 316.544-316.768 316.544s-316.672-142.016-316.768-316.576c-108.544-16.16-190.432-109.184-190.432-221.44 0-123.456 100.48-223.936 223.968-223.936h172.448c13.248 0 24 10.752 24 24s-10.752 24-24 24h-172.48c-97.024 0-175.968 78.944-175.968 175.936 0 94.528 73.952 171.712 168.32 175.744 6.496 0.288 12.576 3.168 16.896 8s6.496 11.232 6.016 17.696c-0.48 6.56-0.8 13.152-0.8 19.776 0 148.224 120.576 268.768 268.768 268.768s268.768-120.576 268.768-268.768c0-6.624-0.352-13.216-0.8-19.776-0.48-6.464 1.696-12.832 6.016-17.696 4.32-4.832 10.432-7.712 16.896-8 94.368-4.032 168.32-81.216 168.32-175.744 0-96.992-78.944-175.936-175.968-175.936h-113.376c-85.44 0-154.976 69.536-154.976 154.976l0.032 244.544 140.832-140.768c9.376-9.376 24.576-9.376 33.952 0s9.376 24.576 0 33.952l-176.512 176.48c-1.152 3.424-2.848 6.688-5.568 9.408-9.376 9.376-24.576 9.376-33.952 0l-187.84-187.84c-9.376-9.376-9.376-24.576 0-33.952 4.672-4.672 10.816-7.040 16.96-7.040s12.288 2.336 16.96 7.040l147.168 147.168-0.064-248.96c0-111.904 91.072-202.976 202.976-202.976h113.376c123.488 0 223.968 100.48 223.968 223.936 0.064 112.256-81.824 205.28-190.368 221.44z"/>
      <glyph unicode="&#xe921;" glyph-name="compass"
             d="M512 912c255.84 0 464-208.16 464-464s-208.16-464-464-464-464 208.16-464 464 208.16 464 464 464zM512 960c-282.752 0-512-229.184-512-512 0-282.752 229.248-512 512-512 282.784 0 512 229.248 512 512 0 282.816-229.216 512-512 512v0zM816.96 752.96c-7.328 7.328-18.56 9.12-27.776 4.48l-382.816-193.152c-4.608-2.304-8.32-6.048-10.624-10.656l-193.152-382.816c-4.672-9.248-2.88-20.48 4.448-27.776 4.608-4.64 10.752-7.040 16.96-7.040 3.68 0 7.36 0.832 10.816 2.56l382.816 193.152c4.576 2.304 8.288 6.016 10.624 10.624l193.184 382.848c4.64 9.248 2.848 20.48-4.48 27.776zM278.272 214.24l156.768 310.72 153.92-153.92-310.688-156.8z"/>
      <glyph unicode="&#xe922;" glyph-name="home-pressed"
             d="M1008.96 460.48l-473.984 473.984c-9.376 9.376-24.576 9.376-33.952 0l-485.984-485.984c-9.376-9.376-9.376-24.576 0-33.952 4.672-4.672 10.816-7.040 16.96-7.040s12.288 2.336 16.96 7.040l469.056 469.024 457.024-457.024c9.376-9.376 24.576-9.376 33.952 0s9.344 24.576-0.032 33.952zM880.672 458.464l-345.984 334.752c-9.28 8.992-24 8.992-33.344 0.032l-358.016-344.48c-5.44-5.216-7.936-12.608-7.136-19.872-0.032-0.384-0.224-0.704-0.224-1.088v-449.312c0-13.248 10.752-24 24-24h704c13.248 0 24 10.752 24 24v449.312c0 2.24-0.704 4.256-1.28 6.336 2.72 8.576 0.544 18.016-6.016 24.32z"/>
      <glyph unicode="&#xe923;" glyph-name="file-text"
             d="M885.344-24h-704c-13.248 0-24 10.752-24 24v896c0 13.248 10.752 24 24 24h448c6.080 0 11.936-2.304 16.384-6.464l256-238.944c4.864-4.544 7.616-10.88 7.616-17.536v-657.056c0-13.248-10.752-24-24-24zM205.344 24h656v622.624l-241.472 225.376h-414.528v-848zM882.496 608.48h-256c-13.248 0-24 10.752-24 24v256c0 13.248 10.752 24 24 24s24-10.752 24-24v-232h232c13.248 0 24-10.752 24-24s-10.752-24-24-24zM741.792 226.208h-448c-13.248 0-24 10.752-24 24s10.752 24 24 24h448c13.248 0 24-10.752 24-24s-10.752-24-24-24zM741.792 418.208h-448c-13.248 0-24 10.752-24 24s10.752 24 24 24h448c13.248 0 24-10.752 24-24s-10.752-24-24-24zM517.792 610.208h-224c-13.248 0-24 10.752-24 24s10.752 24 24 24h224c13.248 0 24-10.752 24-24s-10.752-24-24-24z"/>
      <glyph unicode="&#xe924;" glyph-name="question-circle"
             d="M582.656 100.16c0-26.51-21.49-48-48-48s-48 21.49-48 48c0 26.51 21.49 48 48 48s48-21.49 48-48zM512 912c255.84 0 464-208.16 464-464s-208.16-464-464-464-464 208.16-464 464 208.16 464 464 464zM512 960c-282.752 0-512-229.184-512-512 0-282.752 229.248-512 512-512 282.784 0 512 229.248 512 512 0 282.816-229.216 512-512 512v0zM531.36 207.392c-16.352 0-30.272 12.448-31.84 29.024-4.224 45.216-10.112 154.272 26.048 190.368 6.656 6.624 16.608 15.136 28.32 25.056 34.048 28.928 91.104 77.312 103.488 121.024 9.6 33.696 2.752 70.688-18.784 101.568-25.952 37.152-68.896 59.776-121.024 63.712-128.576 9.408-157.632-128.576-158.784-134.432-3.392-17.312-20.576-28.384-37.472-25.28-17.312 3.36-28.672 20.032-25.376 37.344 13.216 69.312 77.024 197.12 226.432 186.176 71.648-5.376 131.552-37.696 168.704-90.944 32.576-46.688 42.72-103.424 27.84-155.648-17.728-62.4-81.472-116.512-123.648-152.32-10.144-8.64-18.816-15.904-24.576-21.632-9.344-12.256-13.088-78.752-7.456-139.104 1.632-17.6-11.328-33.184-28.896-34.816-0.96-0.032-1.952-0.096-2.976-0.096z"/>
      <glyph unicode="&#xe925;" glyph-name="circle"
             d="M512-52.364c-275.921 0-500.364 224.442-500.364 500.364s224.442 500.364 500.364 500.364 500.364-224.442 500.364-500.364-224.442-500.364-500.364-500.364zM512 878.545c-237.428 0-430.545-193.117-430.545-430.545s193.117-430.545 430.545-430.545 430.545 193.117 430.545 430.545-193.117 430.545-430.545 430.545z"/>
      <glyph unicode="&#xe926;" glyph-name="credit-card"
             d="M928 798.24h-832c-53.024 0-96-42.976-96-96v-576c0-53.024 42.976-96 96-96h832c53.024 0 96 42.976 96 96v576c0 53.024-42.976 96-96 96zM96 750.24h832c26.464 0 48-21.536 48-48v-80h-928v80c0 26.464 21.536 48 48 48zM928 78.24h-832c-26.464 0-48 21.536-48 48v368h928v-368c0-26.464-21.536-48-48-48zM377.344 191.232h-256c-13.248 0-24 10.752-24 24s10.752 24 24 24h256c13.248 0 24-10.752 24-24s-10.752-24-24-24z"/>
      <glyph unicode="&#xe927;" glyph-name="vertical-center"
             d="M800 464h-97.344v144h-160v-144h-62.656v208h-160v-208h-96v-32h96v-208h160v208h62.656v-144h160v144h97.344v32zM352 640h96v-176h-96v176zM448 256h-96v176h96v-176zM574.656 576h96v-112h-96v112zM670.656 320h-96v112h96v-112z"/>
      <glyph unicode="&#xe928;" glyph-name="horizontal-center"
             d="M704 416h-176v62.656h144v160h-144v97.344h-32v-97.344h-144v-160h144v-62.656h-208v-160h208v-96h32v96h208v160h-32zM640 606.656v-96h-112v96h112zM384 510.656v96h112v-96h-112zM320 288v96h176v-96h-176zM704 288h-176v96h176v-96z"/>
      <glyph unicode="&#xe929;" glyph-name="image-full"
             d="M735.872 736.384h-448v-480h480v480h-32zM735.872 704.384v-293.216l-52.064 71.072c-2.72 3.712-6.88 6.048-11.424 6.496-4.512 0.384-9.088-1.152-12.448-4.288l-103.584-97.504-119.968 166.272c-2.752 3.84-7.040 6.24-11.744 6.592-4.672 0.384-9.28-1.376-12.64-4.704l-92.128-93.408v242.688h416zM319.872 288.384v127.648l101.632 103.072 119.552-165.728c2.688-3.712 6.88-6.112 11.424-6.56 0.544-0.032 1.024-0.064 1.536-0.064 4.064 0 8 1.536 10.976 4.352l103.68 97.6 64.128-87.552c0.864-1.152 1.984-1.92 3.072-2.784v-69.984h-416zM694.272 599.712c0-30.044-24.356-54.4-54.4-54.4s-54.4 24.356-54.4 54.4c0 30.044 24.356 54.4 54.4 54.4s54.4-24.356 54.4-54.4z"/>
      <glyph unicode="&#xe92a;" glyph-name="image-fill"
             d="M736.32 736.384h-448v-480h480v480h-32zM736.32 288.384h-416v416h416v-416zM640 608.384c0-17.673-14.327-32-32-32s-32 14.327-32 32c0 17.673 14.327 32 32 32s32-14.327 32-32zM387.392 391.776l101.6 103.072 57.92-80.192c2.688-3.744 6.88-6.144 11.424-6.592 4.8-0.224 9.152 1.12 12.512 4.288l48.512 45.664 47.744-65.216c3.136-4.288 8-6.56 12.896-6.56 3.296 0 6.592 0.992 9.44 3.104 7.168 5.216 8.672 15.232 3.456 22.336l-58.432 79.872c-2.72 3.712-6.88 6.048-11.424 6.496-4.576 0.384-9.12-1.152-12.448-4.288l-48.416-45.568-58.304 80.768c-2.752 3.84-7.072 6.24-11.744 6.592-4.608 0.32-9.312-1.376-12.64-4.704l-114.912-116.512c-6.176-6.304-6.112-16.416 0.16-22.656 6.304-6.208 16.416-6.176 22.656 0.096z"/>
      <glyph unicode="&#xe92b;" glyph-name="search"
             d="M957.133 46.336l-230.451 230.451c60.109 67.789 96.922 156.672 96.922 254.413 0 212.070-171.93 384-384 384s-384-171.93-384-384c0-212.070 171.93-384 384-384 86.682 0 166.349 29.030 230.605 77.466l232.653-232.653c7.475-7.475 17.306-11.264 27.136-11.264s19.661 3.738 27.136 11.264c15.002 15.053 15.002 39.322 0 54.323zM132.403 531.2c0 169.37 137.83 307.2 307.2 307.2s307.2-137.83 307.2-307.2-137.83-307.2-307.2-307.2-307.2 137.83-307.2 307.2z"/>
      <glyph unicode="&#xe92c;" glyph-name="phone-case"
             d="M455.92 720.272h-77.072c-14.048 0-25.472 13.712-25.472 30.576v2.832c0 16.88 11.424 30.592 25.472 30.592h77.072c14.032 0 25.456-13.712 25.456-30.592v-2.832c0-16.864-11.424-30.576-25.456-30.576zM378.848 768.272c-4.48 0-9.472-6-9.472-14.592v-2.832c0-7.76 4.416-14.576 9.472-14.576h77.072c5.024 0 9.456 6.816 9.456 14.576v2.832c0 7.776-4.416 14.592-9.456 14.592h-77.072zM672 72h-320c-22.064 0-40 17.936-40 40v672c0 22.064 17.936 40 40 40h320c22.064 0 40-17.936 40-40v-672c0-22.064-17.936-40-40-40zM352 808c-13.232 0-24-10.768-24-24v-672c0-13.232 10.768-24 24-24h320c13.232 0 24 10.768 24 24v672c0 13.232-10.768 24-24 24h-320z"/>
      <glyph unicode="&#xe92d;" glyph-name="setting"
             d="M659.776-5.472v0c-23.584 0-45.696 8.608-60.672 23.616-16.8 16.832-51.744 51.84-87.872 51.84-20.576 0-55.68-26.016-81.376-51.808-25.728-25.792-65.408-30.432-99.488-9.952-23.232 11.52-55.808 29.088-79.776 42.016-13.696 7.424-24.512 13.28-29.216 15.584-25.664 12.864-41.376 59.552-23.264 95.744 11.104 22.176 13.984 58.4-11.168 93.6-18.944 23.616-54.208 34.848-70.208 35.872-38.368-7.968-68.192 14.944-76.704 57.472-6.912 34.592-14.048 148.64 0.448 199.392 14.816 35.104 35.392 50.816 63.776 50.816 5.088 0 10.112-0.512 14.944-1.056 1.696-0.192 3.328-0.384 4.928-0.512 37.792 13.408 62.336 34.624 72.992 63.040 11.008 27.648 11.008 40.928 0.16 68.096-17.888 53.536 9.28 89.856 30.496 100.48v0c0 0 87.008 46.4 107.648 57.024 7.168 6.176 21.568 15.68 42.4 15.68 19.008 0 38.144-7.936 56.928-23.584 8.32-5.408 17.792-12.704 26.784-19.68 22.656-17.472 39.2-30.656 58.912-27.36 30.624 4.384 61.568 33.536 70.976 44.384 4.736 4.832 24.224 22.912 53.824 22.912 12.832 0 25.44-3.392 37.536-10.112 32.672-10.208 120.992-60.288 130.752-70.048 16.48-16.512 41.056-58.496 16.48-99.488-12.832-21.344-4.768-62.016 10.752-83.84 19.264-18.72 51.584-37.664 73.696-37.664 45.152 0 66.656-29.6 68.288-58.336 7.776-30.208 12.608-125.952 6.432-175.456-9.632-57.888-46.464-65.568-81.216-65.568-23.168 0-60.384-27.008-69.856-50.688-10.976-33.056-10.976-54.016 0.48-88.32 10.048-30.208 10.592-71.968-44.032-99.232-30.016-18.112-89.824-51.424-104.032-58.528-8.096-4.096-19.040-6.336-30.752-6.336zM511.2 115.712c55.072 0 99.072-44.064 120.224-65.248 6.4-6.4 16.992-10.208 28.352-10.208 5.888 0 9.504 1.088 10.304 1.504 12.16 6.112 69.696 37.984 102.528 57.664 24.704 12.448 29.824 23.104 22.592 44.736-14.592 43.744-14.592 74.752 0 118.496 17.088 42.816 70.624 80.672 112.768 80.672 27.456 0 32.16 3.456 35.968 26.432 6.24 50.080-0.896 143.872-5.632 158.080l-1.184 7.232c0 4 0 16.16-22.688 16.16-43.552 0-89.152 34.176-107.2 52.224l-2.112 2.432c-25.664 34.176-38.432 95.936-14.336 136.064 12.416 20.672-9.344 43.424-9.568 43.648-9.408 7.232-91.808 53.728-112.96 59.008l-6.176 2.56c-5.824 3.488-11.296 5.184-16.8 5.184-11.744 0-20.224-8.16-20.288-8.256-0.64-0.864-44.064-50.88-97.504-58.528-4.192-0.704-8.768-1.056-13.248-1.056-32.16 0-56.8 19.040-80.608 37.44-8.224 6.368-16.8 12.992-26.176 19.264-12.128 9.952-21.696 14.432-29.6 14.432-7.648 0-12.256-4.224-13.12-5.088l-5.92-4.16c-12.96-6.496-110.048-58.272-110.048-58.272-3.68-1.92-17.888-16.256-8.576-44.16 14.688-36.704 14.688-62.336-0.48-100.256-10.848-29.056-38.080-68.928-105.024-91.264l-7.232-1.184c-4.224 0-8.704 0.448-13.312 0.96-3.2 0.352-6.56 0.768-9.952 0.768-5.088 0-12.064 0-20.8-20.384-10.752-38.272-4.704-144.512 1.408-175.136 4.48-22.272 13.76-22.272 17.248-22.272 2.048 0 4.384 0.288 6.88 0.928l5.536 0.672c27.232 0 79.008-16.8 108.896-54.080 37.664-52.704 32.608-107.52 15.584-141.568-7.104-14.24 0.224-31.84 3.936-35.104 3.744-1.728 15.104-7.84 29.408-15.552 23.616-12.736 55.648-30.048 80.032-42.24 24.48-14.464 40.512-2.4 45.184 2.208 19.488 19.584 69.696 65.248 113.696 65.248zM512 646.080c-107.296 0-198.080-90.784-198.080-198.080s90.784-198.080 198.080-198.080c107.296 0 198.080 90.784 198.080 198.080s-90.784 198.080-198.080 198.080zM512 295.616c-82.528 0-152.384 69.824-152.384 152.384 0 82.528 69.824 152.384 152.384 152.384 82.528 0 152.384-69.856 152.384-152.384s-69.856-152.384-152.384-152.384z"/>
      <glyph unicode="&#xe92e;" glyph-name="cotton"
             d="M898.432 332.752c-4.528 32.928-18.192 63.84-39.36 89.392-3.136 4.4-4.384 9.888-3.456 15.088 6.912 38.4 0.32 78.256-18.352 112.432-29.168 54.288-87.824 87.52-149.312 84.528h-0.304c-8.8-0.608-16.96 4.4-20.256 12.72-14.736 40.176-44.4 72.336-83.264 90.336-38.928 18.048-82.672 19.904-122.992 5.184-44.384-16.32-79.2-51.008-95.536-95.36-3.264-8.176-11.44-13.344-20.384-12.736-61.776 3.936-121.072-28.688-150.88-82.944-18.672-34.224-25.088-74.208-18.336-112.32 0.944-5.344-0.336-10.848-3.472-15.216-43.296-53.024-52.704-126.736-24-188.528l0.32-0.64c14.416-27.76 36.4-50.96 63.392-67.12 26.96-16 57.712-24.304 89.072-23.84h0.8c64.464 4.576 136.608 40.64 185.392 92.080h58.336c49.392-51.616 121.376-87.504 185.072-92.080h0.768c0.976 0 1.744 0 2.672 0 30.448 0 60.24 8.16 86.432 23.84 26.976 16.016 48.768 39.216 63.36 67.12l0.304 0.8c13.696 30.448 18.56 64.176 13.984 97.264v0zM858.768 247.456c-24.768-47.232-73.104-76.112-126.416-75.312-49.872 3.76-107.44 30.288-150.736 68.368 17.088 3.952 33.696 9.888 49.408 18.224 33.728 21.312 60.384 52.224 76.544 88.752-39.536 4.256-79.392-3.104-114.672-21.312-25.712-16.32-47.2-38.112-63.184-63.664 9.872 22.752 15.36 47.184 16.16 72.128-0.8 35.136-10.992 69.328-29.808 98.992-18.512-29.312-28.848-63.216-29.792-97.872 0.48-25.248 6.112-50.208 16.16-73.232-16 25.568-37.488 47.36-63.184 63.664-35.328 18.208-75.328 25.712-114.848 21.312 16.32-36.528 43.008-67.44 76.864-88.752 16-8.336 32.8-14.448 50.192-18.352-42.96-38.432-99.744-64.464-150.88-68.24-53.328-0.64-101.632 28.256-126.416 75.44-24.176 51.936-16.16 114.048 20.384 158.128l0.48 0.608c7.664 10.496 10.992 23.984 8.768 37.008-5.648 32-0.336 65.424 15.36 93.952 24.64 44.72 73.424 71.68 124.24 68.384 21.184-1.568 40.784 10.848 48.448 30.592l0.192 0.304c13.472 36.704 42.176 65.424 78.896 78.896 33.248 12.256 69.168 10.688 101.328-4.24 32.128-14.88 56.432-41.392 68.672-74.656l0.192-0.304c7.824-19.744 27.28-32.016 48.304-30.592 50.656 2.336 98.976-24.944 123.12-69.808 15.68-28.528 21.008-61.936 15.376-94.096-2.224-12.88 0.944-26.336 8.752-36.88l0.64-0.592c36.048-43.472 44.672-104.96 21.456-156.848v0z"/>
      <glyph unicode="&#xe92f;" glyph-name="shear"
             d="M479.344 467.44c-4.272 0-8.512 1.408-11.376 5.664l-207.328 296.8c-4.256 7.072-2.832 15.632 2.848 19.872 7.088 4.288 15.632 2.864 19.888-2.832l207.328-296.816c4.272-7.088 2.848-15.616-2.848-19.888-2.848-1.424-5.68-2.848-8.512-2.848v0.048zM744.896 88.272c-4.272 0-8.512 1.424-11.344 5.68l-232.912 332.304c-4.256 7.088-2.848 15.616 2.848 19.872 7.088 4.272 15.616 2.848 19.888-2.848l224.352-319.52c26.992 22.72 44.016 53.968 51.12 88.048 7.104 39.76-1.408 79.536-25.568 112.192-36.928 53.968-105.072 76.688-167.584 56.816-7.088-2.848-15.616 1.408-18.448 9.936-2.848 7.088 1.424 15.632 9.936 18.448 73.84 22.72 154.8-4.256 198.816-68.16 56.816-80.96 36.928-191.712-44.016-248.512-1.408-2.848-4.272-4.256-7.088-4.256v0 0zM280.528 88.272c-2.848 0-5.68 1.424-8.528 2.848-80.944 56.8-100.816 167.568-44.016 248.512 45.44 63.888 124.976 90.88 198.816 68.16 7.088-2.832 11.36-9.936 9.952-18.448-1.44-8.512-9.952-11.36-18.464-9.936-62.496 19.872-129.232-2.848-167.584-56.816-22.72-32.656-31.232-72.416-25.568-112.192 5.68-35.504 24.144-65.328 51.12-88.048l464.352 663.184c4.272 7.088 12.784 8.496 19.872 2.832 7.088-4.256 8.512-12.784 2.848-19.872l-471.456-673.12c-2.832-4.272-7.088-7.104-11.344-7.104v0 0z"/>
      <glyph unicode="&#xe930;" glyph-name="quality-testing"
             d="M315.856 268.688c16.976 28.704 28.144 56.896 33.472 84.544 5.312 28.704 7.984 70.72 7.984 125.984v135.6c127.616 0 238.192 4.8 331.712 14.352l6.416-22.336c-86.16-6.352-191.392-10.64-315.808-12.736v-116.432c0-57.424-3.216-101.040-9.6-130.8-5.328-28.704-17.008-59.008-35.072-90.912-3.184 2.144-7.984 5.312-14.336 9.552-2.144 1.088-3.712 2.144-4.768 3.184v0zM384.432 275.056c61.664 11.728 102.608 27.12 122.768 46.288 21.296 18.064 31.936 49.952 31.936 95.664h20.72c0-25.52-3.184-48.368-9.552-68.576 53.12-23.392 103.664-46.768 151.52-70.16l-12.8-20.768c-36.112 21.296-85.056 45.712-146.704 73.376-17.008-32.928-65.92-58.448-146.72-76.56-2.176 4.288-5.36 10.128-9.6 17.552 1.056-1.040 0.528 0-1.568 3.184v0zM535.952 586.112h22.304v-46.256h135.6v-19.136h-135.6v-54.24h108.496v-132.4h-22.336v113.248h-193.008v-113.248h-22.336v132.4h106.88v54.24h-130.832v19.136h130.832v46.256zM527.744 48.272c-4.304 0-8.464 0.832-12.080 2.368-7.792 3.392-15.36 7.008-22.672 10.496-12.96 6.192-25.184 12.016-37.792 16.432-67.984 23.792-125.232 60.352-170.144 108.672-43.376 46.656-76.56 105.712-98.624 175.552-20.048 63.472-26.592 132.336-20 210.512 3.088 36.736 7.536 73.776 11.824 109.6 1.6 13.312 3.184 26.624 4.72 39.952 0.576 5.264 2.224 9.792 3.008 11.984l0.128 0.336 4.656 15.136 15.872-2.416c11.504-1.744 22.88-3.696 33.872-5.584 23.52-4.032 45.728-7.84 68.144-9.664 6.992-0.576 13.984-0.88 20.88-0.88 55.568 0 109.728 18.864 165.568 57.68 10.192 7.072 19.168 11.792 29.952 11.792 12.752 0 22.912-6.96 31.44-13.488 53.136-40.752 111.392-61.408 173.088-61.408 28.688 0 58.848 4.432 89.616 13.184l0.336 0.080c1.072 0.288 2.144 0.512 3.632 0.832 0.912 0.176 2.048 0.4 3.664 0.784l19.792 4.464 2.752-20.112c0.544-3.888 1.12-7.744 1.696-11.6 1.456-9.456 2.96-19.248 3.6-29.328l0.432-7.472c4.752-79.36 9.664-161.408-3.616-242.336-19.424-118.304-59.44-204.4-125.968-271.008-33.712-33.616-75.184-60.016-130.496-83.12-10.64-4.448-20.944-10.336-31.84-16.576-6.752-3.856-13.712-7.84-20.912-11.552-5.312-2.72-10.832-3.312-14.528-3.312v0zM211.936 713.84c-1.2-10.208-2.416-20.336-3.632-30.464-4.352-36.336-8.864-73.888-11.968-110.832-6.32-74.976-0.16-140.608 18.848-200.736 42.64-134.992 124.864-222.112 251.264-266.352 14.88-5.2 28.928-11.936 42.512-18.384 6.56-3.136 12.784-6.112 19.088-8.928 5.776 3.056 11.44 6.304 17.392 9.696 11.648 6.656 23.712 13.552 36.784 19.024 51.888 21.68 90.448 46.112 121.344 76.848 62.112 62.224 99.68 143.728 118.192 256.56 12.928 78.608 8.016 160.384 3.264 239.52l-0.448 7.6c-0.352 5.904-1.088 11.888-1.984 18.080-30.032-7.44-59.536-11.184-87.952-11.184-71.696 0-139.104 23.792-200.304 70.688-5.696 4.352-8.128 5.568-9.040 5.872-0.848-0.256-3.248-1.28-8.848-5.184-63.728-44.32-126.272-65.84-191.168-65.84-8.112 0-16.352 0.336-24.512 1.008-24.528 2.032-49.168 6.256-73.008 10.32-5.216 0.88-10.496 1.808-15.824 2.688v0z"/>
      <glyph unicode="&#xe931;" glyph-name="eye"
             d="M512 707.2c-274.016 0-480-196-480-292.8 0-96.832 205.12-293.12 480-293.12 282.080 0 480 199.584 480 293.12 0.064 96.832-195.712 292.8-480 292.8zM512.416 174.72c-127.744 0-231.296 107.232-231.296 239.52 0 132.256 103.552 239.488 231.296 239.488 127.776 0 231.36-107.232 231.36-239.488s-103.552-239.52-231.36-239.52zM675.2 414.624c0-93.332-73.067-168.992-163.2-168.992s-163.2 75.66-163.2 168.992c0 93.332 73.067 168.992 163.2 168.992s163.2-75.66 163.2-168.992z"/>
      <glyph unicode="&#xe932;" glyph-name="order-completed"
             d="M512 952c-278.368 0-504-225.632-504-504s225.632-504 504-504c278.368 0 504 225.632 504 504s-225.632 504-504 504zM512 13.312c-239.68 0-434.688 195.008-434.688 434.688s195.008 434.688 434.688 434.688 434.688-195.008 434.688-434.688c0-239.68-195.008-434.688-434.688-434.688zM738.944 640.352l-297.728-311.232-156.736 156.384c-13.536 13.536-35.456 13.472-48.992-0.032-13.536-13.568-13.504-35.488 0.032-48.992l181.792-181.376c6.528-6.496 15.328-10.112 24.48-10.112 0.128 0 0.288 0 0.384 0 9.312 0.096 18.208 3.968 24.64 10.688l322.208 336.768c13.216 13.856 12.736 35.776-1.088 48.992-13.856 13.216-35.744 12.768-48.992-1.088z"/>
      <glyph unicode="&#xe933;" glyph-name="order-closed"
             d="M512 952c-278.368 0-504-225.632-504-504s225.632-504 504-504 504 225.632 504 504c0 278.368-225.632 504-504 504zM512 13.312c-239.68 0-434.688 195.008-434.688 434.688s195.008 434.688 434.688 434.688 434.688-195.008 434.688-434.688c0-239.68-195.008-434.688-434.688-434.688zM741.248 677.248c-13.472 13.536-35.488 13.536-48.96 0l-180.288-180.256-180.256 180.256c-13.472 13.536-35.488 13.536-48.96 0-13.536-13.504-13.536-35.456 0-48.96l180.256-180.288-180.256-180.256c-13.536-13.504-13.536-35.456 0-48.96 6.752-6.752 15.616-10.144 24.48-10.144s17.76 3.392 24.48 10.144l180.256 180.256 180.256-180.256c6.752-6.752 15.616-10.144 24.48-10.144s17.76 3.392 24.48 10.144c13.536 13.504 13.536 35.456 0 48.96l-180.256 180.256 180.256 180.256c13.568 13.504 13.568 35.488 0.032 48.992z"/>
      <glyph unicode="&#xe934;" glyph-name="order-not-pay"
             d="M512 952c-278.368 0-504-225.632-504-504s225.632-504 504-504c278.368 0 504 225.632 504 504s-225.632 504-504 504zM512 13.312c-239.68 0-434.688 195.008-434.688 434.688s195.008 434.688 434.688 434.688 434.688-195.008 434.688-434.688c0-239.68-195.008-434.688-434.688-434.688zM546.624 462.336v300.672c0 19.136-15.488 34.624-34.624 34.624s-34.624-15.488-34.624-34.624v-315.008c0-4.512 0.928-8.992 2.688-13.248s4.32-8.096 7.52-11.296l222.72-222.72c6.752-6.752 15.616-10.144 24.48-10.144s17.76 3.392 24.48 10.144c13.536 13.504 13.536 35.456 0 48.96l-212.64 212.64z"/>
      <glyph unicode="&#xe935;" glyph-name="order-income"
             d="M512 952c-278.368 0-504-225.632-504-504s225.632-504 504-504c278.368 0 504 225.632 504 504s-225.632 504-504 504zM512 13.312c-239.68 0-434.688 195.008-434.688 434.688s195.008 434.688 434.688 434.688 434.688-195.008 434.688-434.688-195.008-434.688-434.688-434.688zM732.512 459.264c19.136 0 34.624 15.488 34.624 34.624s-15.488 34.624-34.624 34.624h-186.304c0 0.128-0.064 0.224-0.064 0.32l149.984 180c12.288 14.72 10.272 36.544-4.416 48.8-14.688 12.288-36.608 10.272-48.8-4.416l-130.912-157.056-130.88 157.056c-12.256 14.688-34.112 16.736-48.8 4.416-14.688-12.256-16.704-34.080-4.416-48.8l149.984-180c0-0.128-0.064-0.224-0.064-0.32h-186.336c-19.136 0-34.624-15.488-34.624-34.624s15.488-34.624 34.624-34.624h185.856v-86.432h-185.856c-19.136 0-34.624-15.488-34.624-34.624s15.488-34.624 34.624-34.624h185.856v-155.264c0-19.136 15.488-34.624 34.624-34.624s34.624 15.488 34.624 34.624v155.264h185.856c19.136 0 34.624 15.488 34.624 34.624s-15.488 34.624-34.624 34.624h-185.856v86.432h185.92z"/>
      <glyph unicode="&#xe936;" glyph-name="category"
             d="M247.232 698.784h722.944c25.28 0 45.824 20.512 45.824 45.824s-20.512 45.792-45.824 45.792h-722.944c-25.28 0-45.824-20.512-45.824-45.824s20.512-45.792 45.824-45.792zM121.536 744.608c0-31.352-25.416-56.768-56.768-56.768s-56.768 25.416-56.768 56.768c0 31.352 25.416 56.768 56.768 56.768s56.768-25.416 56.768-56.768zM970.176 493.824h-722.944c-25.28 0-45.824-20.512-45.824-45.824s20.512-45.824 45.824-45.824h722.944c25.28 0 45.824 20.512 45.824 45.824s-20.512 45.824-45.824 45.824zM121.536 448c0-31.352-25.416-56.768-56.768-56.768s-56.768 25.416-56.768 56.768c0 31.352 25.416 56.768 56.768 56.768s56.768-25.416 56.768-56.768zM970.176 197.216h-722.944c-25.28 0-45.824-20.512-45.824-45.824s20.512-45.824 45.824-45.824h722.944c25.28 0 45.824 20.512 45.824 45.824s-20.512 45.824-45.824 45.824zM121.536 151.392c0-31.352-25.416-56.768-56.768-56.768s-56.768 25.416-56.768 56.768c0 31.352 25.416 56.768 56.768 56.768s56.768-25.416 56.768-56.768z"/>
      <glyph unicode="&#xe937;" glyph-name="information"
             d="M512 944c-273.92 0-496-222.016-496-496 0-273.92 222.080-496 496-496 273.952 0 496 222.080 496 496 0 273.984-222.048 496-496 496zM559.296 101.248h-94.656v520.608h94.656v-520.608zM509.824 710.048c-33.344 0-56.992 25.792-56.992 58.080 0 33.376 24.736 59.2 59.168 59.2 35.488 0 58.080-25.824 58.080-59.2 1.056-32.288-22.624-58.080-60.256-58.080z"/>
      <glyph unicode="&#xe938;" glyph-name="T-Shirt-child"
             d="M838.992 627.408l-210.976 110.704c-1.76 0.928-3.76 1.088-5.664 0.608-0.512 0.112-1.008 0.32-1.552 0.32h-217.6c-3.104 0-5.712-1.808-7.040-4.384l-211.056-107.2c-3.792-1.92-5.408-6.48-3.68-10.352l60.832-137.28c1.728-3.936 6.288-5.808 10.256-4.208l63.68 25.088v-335.744c0-4.416 3.584-8 8-8h373.824c4.416 0 8 3.584 8 8v335.712l63.12-25.056c3.952-1.536 8.448 0.224 10.224 4.096l63.184 137.28c1.776 3.856 0.208 8.448-3.552 10.416zM609.504 723.040c-13.6-18.352-45.536-51.872-97.52-51.872-44.016 0-75.744 33.376-89.984 51.872h187.504zM767.984 493.296l-67.024 26.608c-2.464 0.976-5.232 0.672-7.456-0.816-2.192-1.504-3.504-3.968-3.504-6.624v-339.504h-357.824v339.504c0 2.64-1.312 5.12-3.504 6.608-2.192 1.504-4.976 1.808-7.44 0.832l-67.488-26.592-54.64 123.328 204.752 104c12.064-17.696 49.984-65.472 108.128-65.472 66.64 0 103.568 47.136 115.296 65.28l197.552-103.664-56.848-123.488z"/>
      <glyph unicode="&#xe939;" glyph-name="angle-down2"
             d="M512.032 600c-6.624 0-12.96-2.752-17.504-7.584l-240.032-256c-9.056-9.664-8.608-24.832 1.088-33.92s24.832-8.608 33.92 1.088l222.528 237.312 222.464-237.312c9.024-9.632 24.256-10.176 33.92-1.088 9.696 9.056 10.144 24.256 1.088 33.92l-239.968 256c-4.544 4.832-10.88 7.584-17.504 7.584z"/>
      <glyph unicode="&#xe93a;" glyph-name="pencil"
             d="M910.048 845.952c-38.528 38.528-85.856 58.048-140.736 58.048-72.768 0-132.48-35.296-134.976-36.768-1.696-1.024-3.264-2.24-4.64-3.616l-521.44-521.472c-0.032-0.032-0.064-0.032-0.096-0.064s-0.032-0.064-0.064-0.096l-6.528-6.528c-3.744-3.744-6.144-8.672-6.848-13.952l-38.432-302.496c-0.928-7.36 1.6-14.752 6.848-20 4.544-4.544 10.656-7.040 16.96-7.040 0.992 0 2.016 0.064 3.040 0.192l302.496 38.464c5.28 0.672 10.176 3.104 13.952 6.848l528.128 528.096c1.376 1.376 2.592 2.944 3.616 4.64 32.992 55.040 71.040 183.456-21.28 275.744zM876.128 812c64-64 44.544-145.824 27.584-188.448l-215.936 215.936c20.32 7.968 49.504 16.512 81.568 16.512 41.6 0 77.536-14.784 106.784-44zM389.216 95.008l-98.080 98.080 487.584 487.584 98.080-98.080-487.584-487.584zM646.688 812.672l98.080-98.080-487.584-487.552-98.080 98.080 487.584 487.552zM137.696 278.656l205.024-205.056-234.88-29.888 29.856 234.944z"/>
      <glyph unicode="&#xe93b;" glyph-name="pencil-pressed"
             d="M662.848 864.352l265.6-265.6c6.336-6.336 8-15.232 5.792-23.264 32.192 57.472 65.376 180.864-24.224 270.464-38.496 38.528-85.824 58.048-140.672 58.048-61.664 0-113.536-25.152-129.6-33.824 8 2.144 16.832 0.448 23.104-5.824zM141.376 342.848l115.84-115.84 487.552 487.584-115.84 115.84c-8 8-8.736 20.032-3.104 29.28l-513.824-513.824c9.248 5.696 21.344 4.992 29.376-3.040zM911.488 557.792c-6.144 0-12.288 2.336-16.96 7.040l-115.84 115.84-487.552-487.584 115.84-115.84c8.032-8.032 8.768-20.128 3.040-29.376l513.92 513.92c-3.904-2.4-8.064-4-12.448-4zM373.024 43.328l-265.6 265.6c-8.032 8.032-8.768 20.128-3.040 29.376l-2.816-2.816c-3.744-3.744-6.144-8.672-6.848-13.952l-38.432-302.496c-0.928-7.36 1.6-14.752 6.848-20 4.544-4.544 10.656-7.040 16.96-7.040 0.992 0 2.016 0.064 3.040 0.192l302.496 38.432c5.28 0.672 10.176 3.104 13.952 6.848l2.816 2.816c-3.84-2.368-8.032-4-12.416-4-6.144 0-12.288 2.336-16.96 7.040z"/>
      </font>
</defs>
</svg>
