<?xml version="1.0" encoding="utf-8"?>
<!-- Generator: Adobe Illustrator 16.0.0, SVG Export Plug-In . SVG Version: 6.00 Build 0)  -->
<!DOCTYPE svg PUBLIC "-//W3C//DTD SVG 1.1//EN" "http://www.w3.org/Graphics/SVG/1.1/DTD/svg11.dtd">
<svg version="1.1" xmlns="http://www.w3.org/2000/svg" xmlns:xlink="http://www.w3.org/1999/xlink" x="0px" y="0px" width="64px"
	 height="64.002px" viewBox="0 0 64 64.002" enable-background="new 0 0 64 64.002" xml:space="preserve">
<g id="shape" display="none">
	<g display="inline">
		<g>
			<path fill="#95D3E2" d="M34.233,20.688c-0.868,0-1.653,0.352-2.222,0.92v-5.952h-5.951c0.568,0.568,0.92,1.353,0.92,2.221
				c0,1.734-1.406,3.14-3.141,3.14c-1.733,0-3.14-1.406-3.14-3.14c0-0.868,0.351-1.652,0.92-2.221h-5.953v5.952
				c-0.568-0.568-1.354-0.92-2.221-0.92c-1.734,0-3.141,1.406-3.141,3.141s1.406,3.14,3.141,3.14c0.867,0,1.652-0.352,2.221-0.92V32
				h5.953c-0.569-0.568-0.92-1.353-0.92-2.221c0-1.734,1.406-3.14,3.14-3.14c1.734,0,3.141,1.406,3.141,3.14
				c0,0.868-0.352,1.652-0.92,2.221h5.951v-5.951c0.568,0.568,1.354,0.92,2.222,0.92c1.733,0,3.14-1.406,3.14-3.14
				S35.967,20.688,34.233,20.688z"/>
			<path fill="#0095B6" d="M32.012,33.027h-5.951c-0.415,0-0.79-0.25-0.948-0.634c-0.159-0.383-0.071-0.825,0.222-1.119
				c0.399-0.399,0.62-0.931,0.62-1.495c0-1.166-0.948-2.114-2.114-2.114c-1.165,0-2.113,0.948-2.113,2.114
				c0,0.533,0.196,1.035,0.553,1.425c0.23,0.188,0.378,0.475,0.378,0.795c0,0.567-0.46,1.027-1.027,1.027c-0.003,0-0.006,0-0.01,0
				h-5.953c-0.567,0-1.026-0.46-1.026-1.027v-4.177c-0.383,0.114-0.784,0.173-1.194,0.173c-2.298,0-4.167-1.87-4.167-4.167
				c0-2.298,1.869-4.167,4.167-4.167c0.41,0,0.812,0.059,1.194,0.173v-4.178c0-0.567,0.459-1.027,1.026-1.027h5.953
				c0.416,0,0.79,0.25,0.949,0.634c0.159,0.384,0.07,0.825-0.223,1.119c-0.4,0.399-0.62,0.93-0.62,1.495
				c0,1.166,0.948,2.114,2.113,2.114c1.166,0,2.114-0.948,2.114-2.114c0-0.564-0.22-1.095-0.62-1.495
				c-0.293-0.293-0.381-0.735-0.222-1.119c0.159-0.384,0.533-0.634,0.948-0.634h5.951c0.567,0,1.026,0.46,1.026,1.027v4.178
				c0.383-0.114,0.784-0.173,1.195-0.173c2.297,0,4.166,1.869,4.166,4.167c0,2.297-1.869,4.167-4.166,4.167
				c-0.411,0-0.813-0.059-1.195-0.173V32C33.038,32.567,32.579,33.027,32.012,33.027z M27.834,30.974h3.15v-4.925
				c0-0.416,0.25-0.79,0.634-0.949c0.383-0.16,0.826-0.071,1.119,0.223c0.399,0.399,0.931,0.62,1.496,0.62
				c1.165,0,2.113-0.948,2.113-2.114s-0.948-2.114-2.113-2.114c-0.565,0-1.097,0.22-1.496,0.619
				c-0.293,0.294-0.734,0.382-1.119,0.223c-0.383-0.159-0.634-0.533-0.634-0.949v-4.925h-3.15c0.114,0.383,0.173,0.784,0.173,1.194
				c0,2.298-1.87,4.167-4.167,4.167c-2.297,0-4.167-1.869-4.167-4.167c0-0.41,0.059-0.812,0.173-1.194h-3.152v4.925
				c0,0.416-0.25,0.79-0.634,0.949c-0.384,0.158-0.825,0.07-1.119-0.223c-0.399-0.399-0.93-0.619-1.495-0.619
				c-1.166,0-2.114,0.948-2.114,2.114s0.948,2.114,2.114,2.114c0.564,0,1.095-0.22,1.495-0.62c0.293-0.293,0.735-0.382,1.119-0.223
				c0.384,0.159,0.634,0.533,0.634,0.949v4.925h3.152c-0.114-0.382-0.173-0.784-0.173-1.194c0-2.298,1.869-4.167,4.167-4.167
				c2.298,0,4.167,1.869,4.167,4.167C28.007,30.19,27.948,30.592,27.834,30.974z"/>
		</g>
		<g>
			<path fill="#0095B6" d="M48.332,49.372H42.38c-0.416,0-0.79-0.25-0.948-0.634c-0.159-0.384-0.071-0.825,0.222-1.119
				c0.399-0.399,0.619-0.93,0.619-1.495c0-1.165-0.948-2.113-2.113-2.113c-1.166,0-2.114,0.948-2.114,2.113
				c0,0.533,0.196,1.036,0.553,1.426c0.23,0.188,0.378,0.475,0.378,0.795c0,0.567-0.46,1.027-1.027,1.027c-0.003,0-0.006,0-0.01,0
				h-5.952c-0.567,0-1.026-0.46-1.026-1.027v-4.178c-0.383,0.114-0.785,0.173-1.195,0.173c-2.297,0-4.166-1.869-4.166-4.167
				s1.869-4.167,4.166-4.167c0.411,0,0.813,0.059,1.195,0.173V32c0-0.567,0.459-1.026,1.026-1.026h5.952
				c0.415,0,0.79,0.25,0.948,0.634c0.159,0.384,0.071,0.825-0.223,1.119c-0.399,0.399-0.62,0.931-0.62,1.495
				c0,1.166,0.948,2.114,2.114,2.114c1.165,0,2.113-0.948,2.113-2.114c0-0.564-0.22-1.096-0.619-1.495
				c-0.293-0.293-0.381-0.735-0.222-1.119c0.159-0.383,0.533-0.633,0.948-0.633h5.952c0.567,0,1.026,0.459,1.026,1.026v4.178
				c0.383-0.114,0.784-0.173,1.194-0.173c2.298,0,4.167,1.869,4.167,4.167s-1.869,4.167-4.167,4.167
				c-0.41,0-0.812-0.059-1.194-0.172v4.177C49.358,48.912,48.899,49.372,48.332,49.372z M44.154,47.318h3.151v-4.926
				c0-0.415,0.25-0.79,0.634-0.948c0.383-0.159,0.825-0.071,1.119,0.223c0.399,0.4,0.93,0.62,1.495,0.62
				c1.166,0,2.113-0.948,2.113-2.114s-0.948-2.114-2.113-2.114c-0.564,0-1.096,0.22-1.495,0.619
				c-0.293,0.293-0.736,0.382-1.119,0.223c-0.384-0.159-0.634-0.533-0.634-0.949v-4.925h-3.151c0.113,0.383,0.173,0.784,0.173,1.194
				c0,2.298-1.87,4.167-4.167,4.167c-2.298,0-4.167-1.869-4.167-4.167c0-0.41,0.06-0.812,0.173-1.194h-3.151v4.925
				c0,0.415-0.25,0.79-0.633,0.948c-0.383,0.159-0.825,0.071-1.119-0.222c-0.4-0.4-0.931-0.62-1.496-0.62
				c-1.165,0-2.113,0.948-2.113,2.114s0.948,2.114,2.113,2.114c0.564,0,1.096-0.22,1.496-0.62c0.294-0.293,0.735-0.381,1.119-0.222
				c0.383,0.159,0.633,0.533,0.633,0.948v4.926h3.151c-0.113-0.383-0.173-0.784-0.173-1.195c0-2.297,1.869-4.167,4.167-4.167
				c2.297,0,4.167,1.869,4.167,4.167C44.327,46.534,44.268,46.936,44.154,47.318z"/>
		</g>
		<g>
			<path fill="#0095B6" d="M40.16,38.389c-2.298,0-4.167-1.869-4.167-4.167c0-0.41,0.06-0.812,0.173-1.194h-4.178
				c-0.567,0-1.026-0.46-1.026-1.027v-5.951c0-0.416,0.25-0.79,0.634-0.949c0.383-0.16,0.825-0.071,1.119,0.223
				c0.398,0.399,0.93,0.619,1.494,0.619c1.166,0,2.114-0.948,2.114-2.114s-0.948-2.114-2.114-2.114c-0.564,0-1.096,0.22-1.494,0.619
				c-0.294,0.294-0.736,0.382-1.119,0.223c-0.384-0.159-0.634-0.533-0.634-0.948v-5.952c0-0.567,0.459-1.027,1.026-1.027h4.178
				c-0.114-0.382-0.173-0.784-0.173-1.194c0-2.298,1.869-4.167,4.167-4.167c2.297,0,4.167,1.87,4.167,4.167
				c0,0.41-0.059,0.812-0.173,1.194h4.178c0.567,0,1.026,0.46,1.026,1.027v5.952c0,0.415-0.25,0.789-0.634,0.948
				c-0.384,0.159-0.825,0.07-1.119-0.223c-0.399-0.399-0.93-0.62-1.495-0.62c-1.166,0-2.114,0.948-2.114,2.114
				s0.948,2.114,2.114,2.114c0.565,0,1.096-0.22,1.495-0.62c0.293-0.293,0.735-0.382,1.119-0.223s0.634,0.533,0.634,0.949V32
				c0,0.567-0.459,1.027-1.026,1.027h-4.178c0.113,0.383,0.173,0.784,0.173,1.194C44.327,36.52,42.458,38.389,40.16,38.389z
				 M33.015,30.974h4.926c0.415,0,0.79,0.25,0.948,0.634c0.159,0.384,0.071,0.825-0.223,1.119c-0.399,0.399-0.62,0.931-0.62,1.495
				c0,1.166,0.948,2.114,2.114,2.114c1.165,0,2.113-0.948,2.113-2.114c0-0.564-0.22-1.096-0.619-1.495
				c-0.293-0.293-0.381-0.735-0.222-1.119c0.159-0.383,0.533-0.633,0.948-0.633h4.925v-3.151c-0.382,0.114-0.784,0.173-1.194,0.173
				c-2.297,0-4.167-1.87-4.167-4.167c0-2.298,1.87-4.167,4.167-4.167c0.411,0,0.812,0.059,1.194,0.173v-3.152H42.38
				c-0.416,0-0.79-0.25-0.949-0.634c-0.159-0.384-0.07-0.825,0.223-1.119c0.399-0.399,0.619-0.93,0.619-1.494
				c0-1.166-0.948-2.114-2.113-2.114c-1.166,0-2.114,0.948-2.114,2.114c0,0.564,0.22,1.095,0.62,1.494
				c0.294,0.293,0.382,0.735,0.223,1.119c-0.158,0.384-0.533,0.634-0.948,0.634h-4.926v3.151c0.383-0.114,0.784-0.173,1.194-0.173
				c2.298,0,4.167,1.869,4.167,4.167c0,2.297-1.869,4.167-4.167,4.167c-0.41,0-0.812-0.059-1.194-0.173V30.974z"/>
		</g>
		<g>
			<path fill="#0095B6" d="M23.84,54.733c-2.297,0-4.167-1.87-4.167-4.167c0-0.411,0.059-0.812,0.173-1.194h-4.178
				c-0.567,0-1.026-0.46-1.026-1.027v-5.952c0-0.415,0.25-0.79,0.634-0.948c0.383-0.16,0.825-0.071,1.119,0.223
				c0.398,0.399,0.93,0.619,1.494,0.619c1.166,0,2.114-0.948,2.114-2.114s-0.948-2.113-2.114-2.113c-0.564,0-1.096,0.22-1.495,0.619
				c-0.294,0.293-0.735,0.382-1.119,0.222c-0.384-0.159-0.634-0.533-0.634-0.948V32c0-0.567,0.459-1.026,1.026-1.026h4.178
				c-0.114-0.382-0.173-0.784-0.173-1.194c0-2.298,1.869-4.167,4.167-4.167c2.298,0,4.167,1.869,4.167,4.167
				c0,0.411-0.059,0.812-0.173,1.194h4.177c0.567,0,1.026,0.459,1.026,1.026v5.952c0,0.416-0.25,0.79-0.634,0.948
				c-0.384,0.159-0.825,0.071-1.119-0.222c-0.399-0.399-0.93-0.619-1.495-0.619c-1.166,0-2.114,0.948-2.114,2.113
				s0.948,2.114,2.114,2.114c0.564,0,1.096-0.22,1.494-0.619c0.294-0.293,0.736-0.382,1.119-0.223
				c0.384,0.159,0.634,0.533,0.634,0.948v5.952c0,0.567-0.459,1.027-1.026,1.027h-4.177c0.114,0.382,0.173,0.784,0.173,1.194
				C28.007,52.863,26.138,54.733,23.84,54.733z M16.694,47.318h4.926c0.416,0,0.79,0.25,0.949,0.634
				c0.159,0.383,0.07,0.825-0.224,1.119c-0.399,0.398-0.619,0.929-0.619,1.494c0,1.166,0.948,2.114,2.113,2.114
				c1.166,0,2.114-0.948,2.114-2.114c0-0.564-0.22-1.095-0.62-1.495c-0.293-0.294-0.381-0.735-0.222-1.119
				c0.159-0.384,0.533-0.634,0.948-0.634h4.924v-3.151c-0.382,0.114-0.784,0.172-1.194,0.172c-2.298,0-4.167-1.869-4.167-4.167
				c0-2.297,1.869-4.167,4.167-4.167c0.41,0,0.812,0.059,1.194,0.173v-3.152h-4.924c-0.415,0-0.79-0.25-0.948-0.634
				c-0.159-0.383-0.071-0.825,0.222-1.119c0.399-0.399,0.62-0.931,0.62-1.495c0-1.166-0.948-2.114-2.114-2.114
				c-1.165,0-2.113,0.948-2.113,2.114c0,0.565,0.22,1.096,0.62,1.495c0.293,0.293,0.382,0.735,0.223,1.119
				c-0.159,0.384-0.533,0.634-0.949,0.634h-4.926v3.152c0.383-0.114,0.784-0.173,1.194-0.173c2.298,0,4.167,1.869,4.167,4.167
				c0,2.298-1.87,4.167-4.167,4.167c-0.41,0-0.812-0.059-1.194-0.172V47.318z"/>
		</g>
	</g>
</g>
<g id="shape_x5F_复制">
	<g>
		<g>
			<path fill="#BDBDBD" d="M34.233,20.688c-0.868,0-1.653,0.352-2.222,0.92v-5.952h-5.951c0.568,0.568,0.92,1.353,0.92,2.221
				c0,1.734-1.406,3.14-3.141,3.14c-1.733,0-3.14-1.406-3.14-3.14c0-0.868,0.351-1.652,0.92-2.221h-5.953v5.952
				c-0.568-0.568-1.354-0.92-2.221-0.92c-1.734,0-3.141,1.406-3.141,3.141s1.406,3.14,3.141,3.14c0.867,0,1.652-0.352,2.221-0.92V32
				h5.953c-0.569-0.568-0.92-1.353-0.92-2.221c0-1.734,1.406-3.14,3.14-3.14c1.734,0,3.141,1.406,3.141,3.14
				c0,0.868-0.352,1.652-0.92,2.221h5.951v-5.951c0.568,0.568,1.354,0.92,2.222,0.92c1.733,0,3.14-1.406,3.14-3.14
				S35.967,20.688,34.233,20.688z"/>
			<path fill="#606060" d="M32.012,33.027h-5.951c-0.415,0-0.79-0.25-0.948-0.634c-0.159-0.383-0.071-0.825,0.222-1.119
				c0.399-0.399,0.62-0.931,0.62-1.495c0-1.166-0.948-2.114-2.114-2.114c-1.165,0-2.113,0.948-2.113,2.114
				c0,0.533,0.196,1.035,0.553,1.425c0.23,0.188,0.378,0.475,0.378,0.795c0,0.567-0.46,1.027-1.027,1.027c-0.003,0-0.006,0-0.01,0
				h-5.953c-0.567,0-1.026-0.46-1.026-1.027v-4.177c-0.383,0.114-0.784,0.173-1.194,0.173c-2.298,0-4.167-1.87-4.167-4.167
				c0-2.298,1.869-4.167,4.167-4.167c0.41,0,0.812,0.059,1.194,0.173v-4.178c0-0.567,0.459-1.027,1.026-1.027h5.953
				c0.416,0,0.79,0.25,0.949,0.634c0.159,0.384,0.07,0.825-0.223,1.119c-0.4,0.399-0.62,0.93-0.62,1.495
				c0,1.166,0.948,2.114,2.113,2.114c1.166,0,2.114-0.948,2.114-2.114c0-0.564-0.22-1.095-0.62-1.495
				c-0.293-0.293-0.381-0.735-0.222-1.119c0.159-0.384,0.533-0.634,0.948-0.634h5.951c0.567,0,1.026,0.46,1.026,1.027v4.178
				c0.383-0.114,0.784-0.173,1.195-0.173c2.297,0,4.166,1.869,4.166,4.167c0,2.297-1.869,4.167-4.166,4.167
				c-0.411,0-0.813-0.059-1.195-0.173V32C33.038,32.567,32.579,33.027,32.012,33.027z M27.834,30.974h3.15v-4.925
				c0-0.416,0.25-0.79,0.634-0.949c0.383-0.16,0.826-0.071,1.119,0.223c0.399,0.399,0.931,0.62,1.496,0.62
				c1.165,0,2.113-0.948,2.113-2.114s-0.948-2.114-2.113-2.114c-0.565,0-1.097,0.22-1.496,0.619
				c-0.293,0.294-0.734,0.382-1.119,0.223c-0.383-0.159-0.634-0.533-0.634-0.949v-4.925h-3.15c0.114,0.383,0.173,0.784,0.173,1.194
				c0,2.298-1.87,4.167-4.167,4.167c-2.297,0-4.167-1.869-4.167-4.167c0-0.41,0.059-0.812,0.173-1.194h-3.152v4.925
				c0,0.416-0.25,0.79-0.634,0.949c-0.384,0.158-0.825,0.07-1.119-0.223c-0.399-0.399-0.93-0.619-1.495-0.619
				c-1.166,0-2.114,0.948-2.114,2.114s0.948,2.114,2.114,2.114c0.564,0,1.095-0.22,1.495-0.62c0.293-0.293,0.735-0.382,1.119-0.223
				c0.384,0.159,0.634,0.533,0.634,0.949v4.925h3.152c-0.114-0.382-0.173-0.784-0.173-1.194c0-2.298,1.869-4.167,4.167-4.167
				c2.298,0,4.167,1.869,4.167,4.167C28.007,30.19,27.948,30.592,27.834,30.974z"/>
		</g>
		<g>
			<path fill="#606060" d="M48.332,49.372H42.38c-0.416,0-0.79-0.25-0.948-0.634c-0.159-0.384-0.071-0.825,0.222-1.119
				c0.399-0.399,0.619-0.93,0.619-1.495c0-1.165-0.948-2.113-2.113-2.113c-1.166,0-2.114,0.948-2.114,2.113
				c0,0.533,0.196,1.036,0.553,1.426c0.23,0.188,0.378,0.475,0.378,0.795c0,0.567-0.46,1.027-1.027,1.027c-0.003,0-0.006,0-0.01,0
				h-5.952c-0.567,0-1.026-0.46-1.026-1.027v-4.178c-0.383,0.114-0.785,0.173-1.195,0.173c-2.297,0-4.166-1.869-4.166-4.167
				s1.869-4.167,4.166-4.167c0.411,0,0.813,0.059,1.195,0.173V32c0-0.567,0.459-1.026,1.026-1.026h5.952
				c0.415,0,0.79,0.25,0.948,0.634c0.159,0.384,0.071,0.825-0.223,1.119c-0.399,0.399-0.62,0.931-0.62,1.495
				c0,1.166,0.948,2.114,2.114,2.114c1.165,0,2.113-0.948,2.113-2.114c0-0.564-0.22-1.096-0.619-1.495
				c-0.293-0.293-0.381-0.735-0.222-1.119c0.159-0.383,0.533-0.633,0.948-0.633h5.952c0.567,0,1.026,0.459,1.026,1.026v4.178
				c0.383-0.114,0.784-0.173,1.194-0.173c2.298,0,4.167,1.869,4.167,4.167s-1.869,4.167-4.167,4.167
				c-0.41,0-0.812-0.059-1.194-0.172v4.177C49.358,48.912,48.899,49.372,48.332,49.372z M44.154,47.318h3.151v-4.926
				c0-0.415,0.25-0.79,0.634-0.948c0.383-0.159,0.825-0.071,1.119,0.223c0.399,0.4,0.93,0.62,1.495,0.62
				c1.166,0,2.113-0.948,2.113-2.114s-0.948-2.114-2.113-2.114c-0.564,0-1.096,0.22-1.495,0.619
				c-0.293,0.293-0.736,0.382-1.119,0.223c-0.384-0.159-0.634-0.533-0.634-0.949v-4.925h-3.151c0.113,0.383,0.173,0.784,0.173,1.194
				c0,2.298-1.87,4.167-4.167,4.167c-2.298,0-4.167-1.869-4.167-4.167c0-0.41,0.06-0.812,0.173-1.194h-3.151v4.925
				c0,0.415-0.25,0.79-0.633,0.948c-0.383,0.159-0.825,0.071-1.119-0.222c-0.4-0.4-0.931-0.62-1.496-0.62
				c-1.165,0-2.113,0.948-2.113,2.114s0.948,2.114,2.113,2.114c0.564,0,1.096-0.22,1.496-0.62c0.294-0.293,0.735-0.381,1.119-0.222
				c0.383,0.159,0.633,0.533,0.633,0.948v4.926h3.151c-0.113-0.383-0.173-0.784-0.173-1.195c0-2.297,1.869-4.167,4.167-4.167
				c2.297,0,4.167,1.869,4.167,4.167C44.327,46.534,44.268,46.936,44.154,47.318z"/>
		</g>
		<g>
			<path fill="#606060" d="M40.16,38.389c-2.298,0-4.167-1.869-4.167-4.167c0-0.41,0.06-0.812,0.173-1.194h-4.178
				c-0.567,0-1.026-0.46-1.026-1.027v-5.951c0-0.416,0.25-0.79,0.634-0.949c0.383-0.16,0.825-0.071,1.119,0.223
				c0.398,0.399,0.93,0.619,1.494,0.619c1.166,0,2.114-0.948,2.114-2.114s-0.948-2.114-2.114-2.114c-0.564,0-1.096,0.22-1.494,0.619
				c-0.294,0.294-0.736,0.382-1.119,0.223c-0.384-0.159-0.634-0.533-0.634-0.948v-5.952c0-0.567,0.459-1.027,1.026-1.027h4.178
				c-0.114-0.382-0.173-0.784-0.173-1.194c0-2.298,1.869-4.167,4.167-4.167c2.297,0,4.167,1.87,4.167,4.167
				c0,0.41-0.059,0.812-0.173,1.194h4.178c0.567,0,1.026,0.46,1.026,1.027v5.952c0,0.415-0.25,0.789-0.634,0.948
				c-0.384,0.159-0.825,0.07-1.119-0.223c-0.399-0.399-0.93-0.62-1.495-0.62c-1.166,0-2.114,0.948-2.114,2.114
				s0.948,2.114,2.114,2.114c0.565,0,1.096-0.22,1.495-0.62c0.293-0.293,0.735-0.382,1.119-0.223s0.634,0.533,0.634,0.949V32
				c0,0.567-0.459,1.027-1.026,1.027h-4.178c0.113,0.383,0.173,0.784,0.173,1.194C44.327,36.52,42.458,38.389,40.16,38.389z
				 M33.015,30.974h4.926c0.415,0,0.79,0.25,0.948,0.634c0.159,0.384,0.071,0.825-0.223,1.119c-0.399,0.399-0.62,0.931-0.62,1.495
				c0,1.166,0.948,2.114,2.114,2.114c1.165,0,2.113-0.948,2.113-2.114c0-0.564-0.22-1.096-0.619-1.495
				c-0.293-0.293-0.381-0.735-0.222-1.119c0.159-0.383,0.533-0.633,0.948-0.633h4.925v-3.151c-0.382,0.114-0.784,0.173-1.194,0.173
				c-2.297,0-4.167-1.87-4.167-4.167c0-2.298,1.87-4.167,4.167-4.167c0.411,0,0.812,0.059,1.194,0.173v-3.152H42.38
				c-0.416,0-0.79-0.25-0.949-0.634c-0.159-0.384-0.07-0.825,0.223-1.119c0.399-0.399,0.619-0.93,0.619-1.494
				c0-1.166-0.948-2.114-2.113-2.114c-1.166,0-2.114,0.948-2.114,2.114c0,0.564,0.22,1.095,0.62,1.494
				c0.294,0.293,0.382,0.735,0.223,1.119c-0.158,0.384-0.533,0.634-0.948,0.634h-4.926v3.151c0.383-0.114,0.784-0.173,1.194-0.173
				c2.298,0,4.167,1.869,4.167,4.167c0,2.297-1.869,4.167-4.167,4.167c-0.41,0-0.812-0.059-1.194-0.173V30.974z"/>
		</g>
		<g>
			<path fill="#606060" d="M23.84,54.733c-2.297,0-4.167-1.87-4.167-4.167c0-0.411,0.059-0.812,0.173-1.194h-4.178
				c-0.567,0-1.026-0.46-1.026-1.027v-5.952c0-0.415,0.25-0.79,0.634-0.948c0.383-0.16,0.825-0.071,1.119,0.223
				c0.398,0.399,0.93,0.619,1.494,0.619c1.166,0,2.114-0.948,2.114-2.114s-0.948-2.113-2.114-2.113c-0.564,0-1.096,0.22-1.495,0.619
				c-0.294,0.293-0.735,0.382-1.119,0.222c-0.384-0.159-0.634-0.533-0.634-0.948V32c0-0.567,0.459-1.026,1.026-1.026h4.178
				c-0.114-0.382-0.173-0.784-0.173-1.194c0-2.298,1.869-4.167,4.167-4.167c2.298,0,4.167,1.869,4.167,4.167
				c0,0.411-0.059,0.812-0.173,1.194h4.177c0.567,0,1.026,0.459,1.026,1.026v5.952c0,0.416-0.25,0.79-0.634,0.948
				c-0.384,0.159-0.825,0.071-1.119-0.222c-0.399-0.399-0.93-0.619-1.495-0.619c-1.166,0-2.114,0.948-2.114,2.113
				s0.948,2.114,2.114,2.114c0.564,0,1.096-0.22,1.494-0.619c0.294-0.293,0.736-0.382,1.119-0.223
				c0.384,0.159,0.634,0.533,0.634,0.948v5.952c0,0.567-0.459,1.027-1.026,1.027h-4.177c0.114,0.382,0.173,0.784,0.173,1.194
				C28.007,52.863,26.138,54.733,23.84,54.733z M16.694,47.318h4.926c0.416,0,0.79,0.25,0.949,0.634
				c0.159,0.383,0.07,0.825-0.224,1.119c-0.399,0.398-0.619,0.929-0.619,1.494c0,1.166,0.948,2.114,2.113,2.114
				c1.166,0,2.114-0.948,2.114-2.114c0-0.564-0.22-1.095-0.62-1.495c-0.293-0.294-0.381-0.735-0.222-1.119
				c0.159-0.384,0.533-0.634,0.948-0.634h4.924v-3.151c-0.382,0.114-0.784,0.172-1.194,0.172c-2.298,0-4.167-1.869-4.167-4.167
				c0-2.297,1.869-4.167,4.167-4.167c0.41,0,0.812,0.059,1.194,0.173v-3.152h-4.924c-0.415,0-0.79-0.25-0.948-0.634
				c-0.159-0.383-0.071-0.825,0.222-1.119c0.399-0.399,0.62-0.931,0.62-1.495c0-1.166-0.948-2.114-2.114-2.114
				c-1.165,0-2.113,0.948-2.113,2.114c0,0.565,0.22,1.096,0.62,1.495c0.293,0.293,0.382,0.735,0.223,1.119
				c-0.159,0.384-0.533,0.634-0.949,0.634h-4.926v3.152c0.383-0.114,0.784-0.173,1.194-0.173c2.298,0,4.167,1.869,4.167,4.167
				c0,2.298-1.87,4.167-4.167,4.167c-0.41,0-0.812-0.059-1.194-0.172V47.318z"/>
		</g>
	</g>
</g>
</svg>
