<?xml version="1.0" standalone="no"?><!DOCTYPE svg PUBLIC "-//W3C//DTD SVG 1.1//EN" "http://www.w3.org/Graphics/SVG/1.1/DTD/svg11.dtd"><svg class="icon" width="200px" height="200.00px" viewBox="0 0 1024 1024" version="1.1" xmlns="http://www.w3.org/2000/svg"><path fill="#cdcdcd" d="M547.726884 330.997656c-13.887566 0-26.447174 5.631824-35.550889 14.71954v-95.229024H416.96297a50.23843 50.23843 0 1 1-71.05378 0h-95.245023v95.229024a50.25443 50.25443 0 1 0 0 71.05378V511.984h95.245023a50.23843 50.23843 0 1 1 71.05378 0h95.213025v-95.213024a50.23843 50.23843 0 1 0 35.550889-85.77332zM512.191994 528.415487h-95.213025a16.447486 16.447486 0 0 1-11.615637-28.047124 33.854942 33.854942 0 0 0-23.903253-57.742195 33.854942 33.854942 0 0 0-24.95922 56.62223 16.415487 16.415487 0 0 1-10.383675 29.15109h-95.405019c-9.071717 0-16.415487-7.35977-16.415487-16.431487v-66.829912a66.749914 66.749914 0 0 1-85.773319-63.902003 66.733915 66.733915 0 0 1 85.773319-63.902003v-66.845911c0-9.071717 7.343771-16.431487 16.415487-16.431486h95.245024a16.415487 16.415487 0 0 1 11.615637 28.047123 33.854942 33.854942 0 0 0 23.887253 57.742196 33.854942 33.854942 0 0 0 23.903253-57.742196 16.431487 16.431487 0 0 1 11.615637-28.047123h95.213025c9.071717 0 16.415487 7.35977 16.415487 16.431486v66.845911a66.733915 66.733915 0 0 1 85.77332 63.902003 66.749914 66.749914 0 0 1-85.77332 63.902003V511.984c0 9.071717-7.343771 16.431487-16.415487 16.431487z m-66.845911-32.846974h50.398425v-78.797537a16.415487 16.415487 0 0 1 28.047124-11.615637 33.854942 33.854942 0 0 0 57.742195-23.903253 33.854942 33.854942 0 0 0-57.742195-23.919253 16.399488 16.399488 0 0 1-28.047124-11.615637v-78.797537h-50.398425a66.749914 66.749914 0 0 1-63.902003 85.773319 66.749914 66.749914 0 0 1-63.902003-85.773319h-50.430424v78.797537a16.415487 16.415487 0 0 1-28.047124 11.615637 33.854942 33.854942 0 0 0-57.742195 23.919253 33.854942 33.854942 0 0 0 57.742195 23.903253 16.447486 16.447486 0 0 1 28.047124 11.615637v78.797537h50.430424a66.733915 66.733915 0 0 1 63.902003-85.773319 66.733915 66.733915 0 0 1 63.902003 85.773319zM773.303834 789.927315H678.07481a16.447486 16.447486 0 0 1-11.615637-28.047124 33.854942 33.854942 0 0 0-23.903253-57.726196 33.854942 33.854942 0 0 0-24.975219 56.622231 16.415487 16.415487 0 0 1-10.383676 29.151089h-95.389019c-9.071717 0-16.415487-7.35977-16.415487-16.431487v-66.845911a66.733915 66.733915 0 0 1-85.77332-63.902003 66.733915 66.733915 0 0 1 85.77332-63.902003V511.984c0-9.071717 7.343771-16.415487 16.415487-16.415487h95.229024a16.399488 16.399488 0 0 1 11.599638 28.047124 33.854942 33.854942 0 0 0 23.903253 57.742196 33.854942 33.854942 0 0 0 23.903253-57.742196 16.431487 16.431487 0 0 1 11.615637-28.031124h95.229024c9.071717 0 16.415487 7.343771 16.415487 16.415487v66.845911a66.733915 66.733915 0 0 1 85.773319 63.902003 66.733915 66.733915 0 0 1-85.773319 63.918003v66.829911a16.399488 16.399488 0 0 1-16.399488 16.431487z m-66.845911-32.862973h50.414425v-78.813537a16.399488 16.399488 0 0 1 28.047123-11.599638 33.838943 33.838943 0 1 0 23.919253-57.726196c-9.023718 0-17.535452 3.51989-23.919253 9.903691a16.447486 16.447486 0 0 1-28.047123-11.615637v-78.797538h-50.414425a66.749914 66.749914 0 0 1-63.902003 85.77332 66.733915 66.733915 0 0 1-63.902003-85.77332h-50.414424v78.797538a16.415487 16.415487 0 0 1-28.031125 11.615637 33.854942 33.854942 0 0 0-57.742195 23.903253 33.854942 33.854942 0 0 0 57.742195 23.903253 16.447486 16.447486 0 0 1 28.031125 11.615637v78.813537h50.414424a66.749914 66.749914 0 0 1 63.902003-85.789319 66.749914 66.749914 0 0 1 63.902003 85.789319zM642.55592 614.204806a66.733915 66.733915 0 0 1-63.902003-85.773319h-66.845911c-9.071717 0-16.415487-7.35977-16.415487-16.431487V416.786975a16.415487 16.415487 0 0 1 28.047124-11.615637 33.854942 33.854942 0 0 0 57.726196-23.919252 33.854942 33.854942 0 0 0-57.726196-23.919253 16.431487 16.431487 0 0 1-28.047124-11.599637v-95.229024c0-9.071717 7.343771-16.431487 16.415487-16.431487h66.845911a66.733915 66.733915 0 0 1 63.902003-85.773319 66.765914 66.765914 0 0 1 63.902003 85.773319h66.845911c9.071717 0 16.415487 7.35977 16.415487 16.431487v95.229024a16.415487 16.415487 0 0 1-28.047123 11.599637 33.854942 33.854942 0 0 0-57.742196 23.903253 33.854942 33.854942 0 0 0 57.742196 23.903253 16.447486 16.447486 0 0 1 28.047123 11.615637V511.984c0 9.071717-7.343771 16.431487-16.415487 16.431487h-66.845911a66.749914 66.749914 0 0 1-63.902003 85.789319z m-114.316427-118.636293h78.813537a16.399488 16.399488 0 0 1 11.599637 28.047124 33.854942 33.854942 0 0 0 23.903253 57.742196 33.854942 33.854942 0 0 0 23.903253-57.742196 16.431487 16.431487 0 0 1 11.615637-28.031124h78.797538v-50.414425a66.765914 66.765914 0 0 1-85.77332-63.902003 66.749914 66.749914 0 0 1 85.77332-63.902003v-50.430424H678.07481a16.415487 16.415487 0 0 1-11.615637-28.047123 33.854942 33.854942 0 0 0-23.903253-57.726196 33.854942 33.854942 0 0 0-33.822943 33.822943c0 9.023718 3.51989 17.519453 9.91969 23.903253a16.415487 16.415487 0 0 1-11.599637 28.047123h-78.813537v50.414425a66.733915 66.733915 0 0 1 85.773319 63.902003 66.749914 66.749914 0 0 1-85.773319 63.902003v50.414424zM381.44408 875.700634a66.765914 66.765914 0 0 1-63.902003-85.773319h-66.845911c-9.071717 0-16.415487-7.35977-16.415487-16.431487v-95.229024a16.399488 16.399488 0 0 1 28.047123-11.599637 33.854942 33.854942 0 0 0 57.726196-23.919253 33.838943 33.838943 0 0 0-57.742195-23.903253 16.415487 16.415487 0 0 1-28.047124-11.615637V511.984c0-9.071717 7.343771-16.415487 16.415487-16.415487h66.845911a66.733915 66.733915 0 0 1 63.902003-85.773319 66.733915 66.733915 0 0 1 63.902003 85.773319h66.829912c9.071717 0 16.415487 7.343771 16.415487 16.415487v95.229025a16.447486 16.447486 0 0 1-28.047124 11.615637 33.854942 33.854942 0 0 0-57.742195 23.903253c0 18.639418 15.167526 33.822943 33.822943 33.822943 9.023718 0 17.535452-3.51989 23.903253-9.903691a16.447486 16.447486 0 0 1 28.047124 11.599638v95.229024c0 9.071717-7.343771 16.431487-16.415487 16.431486h-66.829912a66.781913 66.781913 0 0 1-63.870004 85.789319z m-114.332427-118.636292h78.813537a16.415487 16.415487 0 0 1 11.599637 28.047123 33.854942 33.854942 0 0 0 23.903253 57.726196 33.854942 33.854942 0 0 0 23.903253-57.742195 16.447486 16.447486 0 0 1 11.615637-28.047124h78.781538v-50.414424a66.733915 66.733915 0 0 1-85.773319-63.918003 66.749914 66.749914 0 0 1 85.773319-63.902003v-50.430424h-78.781538a16.447486 16.447486 0 0 1-11.615637-28.047124 33.854942 33.854942 0 0 0-23.903253-57.742195 33.854942 33.854942 0 0 0-23.887253 57.742195 16.447486 16.447486 0 0 1-11.615637 28.047124h-78.813537v50.430424a66.733915 66.733915 0 0 1 85.773319 63.902003 66.749914 66.749914 0 0 1-85.773319 63.918003v50.430424z" /></svg>