<?xml version="1.0" standalone="no"?><!DOCTYPE svg PUBLIC "-//W3C//DTD SVG 1.1//EN" "http://www.w3.org/Graphics/SVG/1.1/DTD/svg11.dtd"><svg class="icon" width="200px" height="200.00px" viewBox="0 0 1024 1024" version="1.1" xmlns="http://www.w3.org/2000/svg"><path fill="#cdcdcd" d="M367.172526 217.769195l-13.983563 95.597012 16.815474-1.391956 43.438643-10.335677 14.911534-7.263773zM368.612481 397.363582c-7.487766 0-14.015562-5.055842-15.887504-12.303615l-15.423518-67.581888a16.191494 16.191494 0 0 1-0.383988-6.319803l13.983563-95.613012c0.895972-6.655792 5.75982-12.111622 12.287616-13.727571 6.527796-1.647949 13.391582 0.863973 17.311459 6.335802l61.182088 76.605606c1.199963 1.663948 2.079935 3.51989 2.57592 5.503828l20.127371 86.189307a16.383488 16.383488 0 0 1-15.839505 20.527358l-79.853505 0.367989-0.079997 0.015999z m1.27996-85.021343l11.407643 52.094372 45.998563-0.207993-14.07956-62.766039-35.278898-40.670729-8.047748 51.550389zM517.839818 138.87566l-38.542796 89.021218 16.495484 2.847911 44.670605 0.879973 16.351489-3.727884zM619.628637 191.882004l-1.231962 61.246086 76.317615 13.567576 19.951377-57.91819zM594.525421 397.363582a16.415487 16.415487 0 0 1-16.111496-19.647386l23.583263-126.38005 1.215962-59.774132a16.479485 16.479485 0 0 1 19.295397-15.839505l95.02103 16.895472a16.399488 16.399488 0 0 1 12.655605 21.503328l-19.599388 56.894222-21.183338 112.908471c-1.551952 7.631762-8.255742 13.11959-16.031499 13.151589l-78.797537 0.303991-0.047999-0.016z m41.134715-185.946189l-0.863973 42.046686a16.031499 16.031499 0 0 1-0.303991 2.89591l-19.935377 108.092622 45.310584-0.175995 18.751414-100.844848c0.143996-0.703978 0.33599-1.407956 0.559983-2.095935l13.679572-39.742758-57.198212-10.175682zM556.8146 397.059592h-77.533578c-9.055717 0-16.415487-7.35977-16.415487-16.415487v-152.747227c0-1.743946 0.287991-3.503891 0.831974-5.151839l38.542796-100.092872a16.431487 16.431487 0 0 1 31.199025 0l37.582826 97.148964a15.839505 15.839505 0 0 1 2.23993 8.095747v152.747227a16.463486 16.463486 0 0 1-16.447486 16.415487z m-61.086092-32.830974h44.670605v-132.347864l-22.559295-76.541608-22.11131 75.213649v133.675823zM380.020124 792.775226c-2.047936 0-4.111872-0.383988-6.07981-1.167964l-73.005718-29.11909a16.431487 16.431487 0 0 1-5.183838-27.19915c4.511859-4.271867 111.212525-104.780726 165.162838-136.859723 24.01525-14.287554 61.310084-23.871254 92.8131-23.871254v32.846974c-25.27921 0-57.246211 8.111747-76.013625 19.279397-37.854817 22.495297-107.084654 84.349364-140.443611 114.940408l38.942783 15.535515c33.342958-32.414987 110.39655-106.668667 125.148089-114.956408 28.17512-15.823506 39.566764-15.615512 64.33399-15.087528 5.055842 0.111997 10.847661 0.223993 17.679448 0.223993v32.862973c-7.087779 0-13.103591-0.127996-18.335427-0.239993-23.087279-0.463986-27.231149-0.543983-47.598513 10.89566-9.455705 5.727821-71.501766 64.157995-125.948064 117.276335-3.119903 3.007906-7.263773 4.639855-11.471642 4.639855zM519.807756 912.62748H322.661917a16.399488 16.399488 0 0 1-16.063498-19.82338l31.03903-130.347927 32.142995 6.799788-26.86316 110.524546h176.890472v32.846973zM363.988625 637.804069l32.126996 6.799787-10.255679 48.542483-32.142996-6.799787zM375.524265 586.781663l-68.47786-200.729727a16.415487 16.415487 0 0 1 15.615512-21.551327h197.145839v32.862973H345.333208l61.422081 179.178401-31.231024 10.23968zM716.969595 912.62748H519.807756v-32.862973h176.906472L643.1959 643.339896l32.142996-6.799788 57.694197 256.263992a16.431487 16.431487 0 0 1-16.063498 19.82338zM664.091247 586.781663l-31.215024-10.23968 61.42208-179.178401H519.807756v-32.862973h197.161839a16.431487 16.431487 0 0 1 15.615512 21.551327l-68.49386 200.729727zM425.474704 660.17137h-47.118528c-24.895222 0-41.6147-17.631449-41.614699-43.83863 0-20.031374 13.823568-41.438705 52.622355-41.438705h258.647918a15.983501 15.983501 0 0 0 3.775882-0.287991 10.319678 10.319678 0 0 0-5.727821 5.807818 12.063623 12.063623 0 0 0-0.97597 4.031874l20.943346-22.511296c3.871879 3.583888 16.111497 16.399488 10.447673 30.847036-2.655917 6.831787-9.759695 14.959533-28.46311 14.959532H389.363832c-9.007719 0-19.759383 1.503953-19.759382 8.591732 0 10.143683 4.335865 10.991657 8.751726 10.991656h47.118528v32.846974zM650.299678 660.17137h-66.909909v-32.862973h66.909909c19.791382 0 41.102716-12.49561 41.102716-39.950752 0-30.207056-29.43908-42.526671-30.703041-43.038655l12.063623-30.559045c2.111934 0.831974 51.486391 20.751352 51.486391 73.6137 0 47.278523-38.09481 72.797725-73.949689 72.797725zM568.174245 672.842974c-12.831599 0-25.327209-7.583763-33.086966-20.767351l28.335114-16.65548c2.25593 3.823881 4.335865 4.575857 4.703853 4.575857 1.407956-0.303991 6.207806-6.671792 4.783851-22.335302-1.311959-14.639543-9.519703-23.231274-13.487579-25.039217l-29.599075-2.607919c1.983938-22.511297 16.831474-30.511047 28.943096-30.527046h0.031999c22.671292 0 44.126621 25.27921 46.830536 55.230274 3.087904 34.222931-12.143621 51.662386-27.439142 56.574232a33.438955 33.438955 0 0 1-10.015687 1.551952z" /></svg>