<?xml version="1.0" standalone="no"?><!DOCTYPE svg PUBLIC "-//W3C//DTD SVG 1.1//EN" "http://www.w3.org/Graphics/SVG/1.1/DTD/svg11.dtd"><svg class="icon" width="200px" height="200.00px" viewBox="0 0 1024 1024" version="1.1" xmlns="http://www.w3.org/2000/svg"><path fill="#cdcdcd" d="M410.179182 519.503766c-4.351864 0-8.703728-1.711947-11.935627-5.13584a2226.362426 2226.362426 0 0 1-41.326709-44.926596c-29.039093-32.670979-77.661573-87.35727-77.661573-180.826349C279.255273 247.176276 296.038749 111.9965 512.016 111.9965s232.744727 135.195775 232.744726 176.63448c0 93.45308-48.622481 148.15537-77.677572 180.842349-17.695447 19.935377-36.014875 39.022781-36.782851 39.838755a16.447486 16.447486 0 0 1-23.711259-22.751289 1552.207494 1552.207494 0 0 0 35.918878-38.910784c27.647136-31.087029 69.389832-78.045561 69.389831-159.019031 0-43.230649-19.471392-143.755508-199.913753-143.755507s-199.913753 100.524859-199.913752 143.755507c0 80.97347 41.742696 127.932002 69.373832 159.003031a2232.282241 2232.282241 0 0 0 40.63873 44.15862 16.415487 16.415487 0 0 1-11.903628 27.711135zM558.654542 512.31999c-4.49586 0-8.97572-1.839943-12.223618-5.43983a4196.748852 4196.748852 0 0 1-26.047186-29.45508c-8.127746-9.247711-15.855505-18.015437-20.49536-23.199275l-0.287991-0.31999c-80.109497-89.405206-88.893222-115.964376-88.893222-151.531264 0-61.950064 52.318365-84.013375 101.276835-84.013375s101.276835 22.063311 101.276836 84.013375c0 34.094935-8.063748 59.902128-79.325521 140.747601l11.087653 12.591607c9.439705 10.735665 19.455392 22.111309 25.807194 29.183088a16.431487 16.431487 0 0 1-12.17562 27.423143zM512 251.20815c-25.551202 0-68.429862 6.655792-68.429862 51.166401 0 23.327271 4.831849 43.422643 68.429862 115.980375 63.598013-72.557733 68.429862-92.653105 68.429862-115.980375 0-44.510609-42.87866-51.166401-68.429862-51.166401zM351.317021 911.9875c-5.967814 0-11.53564-3.247899-14.447548-8.62373-2.943908-5.45583-71.757758-118.236305-36.398863-220.505109 2.57592-7.455767 16.687479-46.046561 41.806694-74.301678 10.975657-12.335615 16.879473-19.103403 22.559295-25.6152 8.623731-9.855692 16.735477-19.167401 40.990719-46.174557a16.415487 16.415487 0 0 1 24.447236 21.935315 3623.566764 3623.566764 0 0 0-40.686729 45.838567c-5.727821 6.559795-11.679635 13.375582-22.751289 25.823193-21.407331 24.079248-33.950939 59.262148-35.326896 63.198025-18.767414 54.318303-1.855942 112.556483 14.175557 156.139121 7.487766-30.495047 19.327396-61.662073 36.638855-97.164964 10.383676-21.295335 25.103216-42.174682 32.238993-50.206431 5.503828-6.143808 8.991719-10.111684 13.839567-15.647511 9.791694-11.135652 25.103216-28.591107 72.909722-82.029436a16.415487 16.415487 0 0 1 24.479235 21.887316c-47.662511 53.310334-62.942033 70.701791-72.701728 81.805443-4.927846 5.631824-8.463736 9.647699-14.015562 15.839505-4.751852 5.343833-18.095435 24.01525-27.231149 42.718665-31.519015 64.669979-44.142621 121.948189-44.270617 122.764164-1.055967 6.991782-6.447799 20.79935-13.407581 22.015312a12.607606 12.607606 0 0 1-2.847911 0.30399zM672.682979 911.9875c-0.943971 0-1.887941-0.079998-2.831912-0.239992-6.959783-1.215962-12.367614-15.023531-13.407581-22.015312-0.127996-0.815975-12.735602-58.078185-44.254617-122.748164-9.135715-18.735415-22.479298-37.374832-27.279147-42.766664a1683.147402 1683.147402 0 0 1-13.711572-15.519515 10667.074654 10667.074654 0 0 0-72.95772-82.093434 16.415487 16.415487 0 1 1 24.479235-21.887316c48.206494 53.902316 63.37402 71.181776 73.165714 82.333427 4.719853 5.375832 8.175745 9.327709 13.535577 15.311521 7.167776 8.047749 21.887316 28.927096 32.286991 50.25443 17.311459 35.502891 29.13509 66.669917 36.638855 97.148964 16.031499-43.582638 32.942971-101.820818 14.175557-156.139121-1.359958-3.935877-13.903566-39.086779-35.326896-63.198025-11.071654-12.463611-17.023468-19.279398-22.767289-25.839192a3630.846536 3630.846536 0 0 0-40.670729-45.822568 16.431487 16.431487 0 1 1 24.447236-21.951314c24.239243 26.991157 32.350989 36.302866 40.97472 46.142558 5.679823 6.511797 11.599638 13.279585 22.575294 25.631199 25.119215 28.271117 39.246774 66.845911 41.806694 74.285678 35.342896 102.268804-33.470954 215.04928-36.414862 220.505109a16.495485 16.495485 0 0 1-14.463548 8.607731zM644.347864 500.672354l-61.726071 70.845786c-4.47986-3.119903-52.446361-36.318865-115.180401-57.006218a417.042967 417.042967 0 0 0-14.015562-4.223869l190.762039-9.631699h0.159995zM644.187869 500.672354l-190.762039 9.631699h-0.095997c-0.079998 0-0.079998-0.079998-0.079997-0.079998 82.173432-24.575232 185.946189-10.303678 190.938033-9.551701zM453.329833 510.304053h-0.255992c0.079998 0 0.079998 0 0.175995-0.079998 0 0 0 0.079998 0.079997 0.079998zM510.848036 632.028249c-24.559233 0-44.766601-4.431862-63.582013-26.079185l-82.397425-94.477048 24.751226-21.583325 82.413425 94.493047c9.983688 11.503641 18.687416 14.815537 38.798787 14.815537s28.8151-3.311897 38.782789-14.783538l82.333427-94.509047 24.767226 21.567326-82.301428 94.477048c-18.799413 21.647324-39.006781 26.079185-63.566014 26.079185zM453.265835 526.655542a16.63948 16.63948 0 0 1-4.287866-0.575982c-39.566764-10.655667-70.365801-9.039718-70.669791-9.007718a16.607481 16.607481 0 0 1-17.343458-15.423519 16.399488 16.399488 0 0 1 15.375519-17.359457c1.455955-0.095997 36.126871-2.047936 81.197463 10.079685a16.431487 16.431487 0 0 1-4.271867 32.286991zM582.957783 588.205619c-3.567889 0-7.135777-1.151964-10.079685-3.455892-7.327771-5.055842-52.734352-35.550889-110.588545-54.638293a460.113621 460.113621 0 0 0-13.279585-3.999875 16.431487 16.431487 0 0 1 8.799725-31.631012c4.735852 1.311959 9.551702 2.799913 14.559545 4.367864 62.814037 20.719353 110.684541 52.942346 119.644262 59.19815a16.447486 16.447486 0 0 1-9.055717 30.159058zM453.073841 526.71954a16.415487 16.415487 0 0 1-6.943783-31.295022c0.783976-0.367989 1.583951-0.687979 2.415925-0.943971 88.077248-26.351177 197.017843-10.207681 198.105809-10.047686a16.399488 16.399488 0 1 1-4.943845 32.462986c-1.007969-0.159995-103.388769-14.767539-183.114278 8.847724a15.871504 15.871504 0 0 1-5.519828 0.975969zM453.42583 526.71954h-0.095997c-9.071717 0-16.543483-7.343771-16.543483-16.415487s7.231774-16.431487 16.303491-16.431487 16.591482 7.35977 16.591481 16.431487-7.199775 16.415487-16.255492 16.415487zM644.347864 517.103841h-0.159995a16.415487 16.415487 0 0 1 0-32.846974c9.071717 0 16.511484 7.35977 16.511484 16.431486s-7.279773 16.415487-16.351489 16.415488z" /></svg>