<?xml version="1.0" encoding="utf-8"?>
<!-- Generator: Adobe Illustrator 16.0.0, SVG Export Plug-In . SVG Version: 6.00 Build 0)  -->
<!DOCTYPE svg PUBLIC "-//W3C//DTD SVG 1.1//EN" "http://www.w3.org/Graphics/SVG/1.1/DTD/svg11.dtd">
<svg version="1.1" xmlns="http://www.w3.org/2000/svg" xmlns:xlink="http://www.w3.org/1999/xlink" x="0px" y="0px" width="64px"
	 height="64.002px" viewBox="0 0 64 64.002" enable-background="new 0 0 64 64.002" xml:space="preserve">
<g id="shape" display="none">
	<g display="inline">
		<g>
			<circle fill="#0095B6" cx="32.042" cy="55.05" r="1.364"/>
			<path fill="#0095B6" d="M32.003,57.125c-1.318,0-2.391-1.072-2.391-2.391s1.072-2.39,2.391-2.39s2.391,1.071,2.391,2.39
				S33.322,57.125,32.003,57.125z M32.003,54.397c-0.186,0-0.337,0.151-0.337,0.337c0,0.187,0.151,0.338,0.337,0.338
				c0.187,0,0.338-0.151,0.338-0.338C32.341,54.549,32.19,54.397,32.003,54.397z"/>
		</g>
		<g>
			<path fill="#0095B6" d="M37.647,13.785L32.003,8.92l-5.644,4.865l-1.148-1.333l6.218-5.361c0.329-0.284,0.819-0.284,1.148,0
				l6.218,5.361L37.647,13.785z"/>
		</g>
		<g>
			<path fill="#0095B6" d="M46.323,17.96H17.761c-0.486,0-0.88-0.394-0.88-0.88v-3.77c0-0.485,0.394-0.88,0.88-0.88h28.562
				c0.486,0,0.88,0.395,0.88,0.88v3.77C47.203,17.566,46.809,17.96,46.323,17.96z M18.641,16.2h26.802v-2.009H18.641V16.2z"/>
		</g>
		<g>
			<path fill="#0095B6" d="M46.323,49.195H17.761c-0.486,0-0.88-0.394-0.88-0.88v-3.769c0-0.485,0.394-0.88,0.88-0.88h28.562
				c0.486,0,0.88,0.395,0.88,0.88v3.769C47.203,48.802,46.809,49.195,46.323,49.195z M18.641,47.436h26.802v-2.009H18.641V47.436z"
				/>
		</g>
		<g>
			<line fill="#0095B6" x1="32.042" y1="53.687" x2="32.042" y2="48.833"/>
			<rect x="30.977" y="48.518" fill="#0095B6" width="2.053" height="4.854"/>
		</g>
		<g>
			<path fill="#0095B6" d="M43.347,45.427h-22.61c-0.486,0-0.88-0.394-0.88-0.88V17.08c0-0.486,0.394-0.88,0.88-0.88h22.61
				c0.485,0,0.88,0.394,0.88,0.88v27.467C44.227,45.033,43.833,45.427,43.347,45.427z M21.617,43.667h20.85V17.96h-20.85V43.667z"/>
		</g>
		<path fill="#95D3E2" d="M21.617,17.96v25.707h20.85V17.96H21.617z M40.915,42.115H23.169V19.512h17.745V42.115z"/>
	</g>
</g>
<g id="shape_x5F_复制">
	<g>
		<g>
			<circle fill="#606060" cx="32.042" cy="55.05" r="1.364"/>
			<path fill="#606060" d="M32.003,57.125c-1.318,0-2.391-1.072-2.391-2.391s1.072-2.39,2.391-2.39s2.391,1.071,2.391,2.39
				S33.322,57.125,32.003,57.125z M32.003,54.397c-0.186,0-0.337,0.151-0.337,0.337c0,0.187,0.151,0.338,0.337,0.338
				c0.187,0,0.338-0.151,0.338-0.338C32.341,54.549,32.19,54.397,32.003,54.397z"/>
		</g>
		<g>
			<path fill="#606060" d="M37.647,13.785L32.003,8.92l-5.644,4.865l-1.148-1.333l6.218-5.361c0.329-0.284,0.819-0.284,1.148,0
				l6.218,5.361L37.647,13.785z"/>
		</g>
		<g>
			<path fill="#606060" d="M46.323,17.96H17.761c-0.486,0-0.88-0.394-0.88-0.88v-3.77c0-0.485,0.394-0.88,0.88-0.88h28.562
				c0.486,0,0.88,0.395,0.88,0.88v3.77C47.203,17.566,46.809,17.96,46.323,17.96z M18.641,16.2h26.802v-2.009H18.641V16.2z"/>
		</g>
		<g>
			<path fill="#606060" d="M46.323,49.195H17.761c-0.486,0-0.88-0.394-0.88-0.88v-3.769c0-0.485,0.394-0.88,0.88-0.88h28.562
				c0.486,0,0.88,0.395,0.88,0.88v3.769C47.203,48.802,46.809,49.195,46.323,49.195z M18.641,47.436h26.802v-2.009H18.641V47.436z"
				/>
		</g>
		<g>
			<line fill="#606060" x1="32.042" y1="53.687" x2="32.042" y2="48.833"/>
			<rect x="30.977" y="48.518" fill="#606060" width="2.053" height="4.854"/>
		</g>
		<g>
			<path fill="#606060" d="M43.347,45.427h-22.61c-0.486,0-0.88-0.394-0.88-0.88V17.08c0-0.486,0.394-0.88,0.88-0.88h22.61
				c0.485,0,0.88,0.394,0.88,0.88v27.467C44.227,45.033,43.833,45.427,43.347,45.427z M21.617,43.667h20.85V17.96h-20.85V43.667z"/>
		</g>
		<path fill="#BDBDBD" d="M21.617,17.96v25.707h20.85V17.96H21.617z M40.915,42.115H23.169V19.512h17.745V42.115z"/>
	</g>
</g>
</svg>
