<?xml version="1.0" standalone="no"?><!DOCTYPE svg PUBLIC "-//W3C//DTD SVG 1.1//EN" "http://www.w3.org/Graphics/SVG/1.1/DTD/svg11.dtd"><svg class="icon" width="200px" height="200.00px" viewBox="0 0 1024 1024" version="1.1" xmlns="http://www.w3.org/2000/svg"><path fill="#cdcdcd" d="M545.662948 805.014843v-32.846973c1.951939 0 9.215712-1.007969 15.727509-2.175932 103.708759-25.727196 298.998656-133.259836 298.998656-357.220837C860.389113 191.754008 671.163026 145.035468 512 144.859473c-159.163026 0.175995-348.389113 46.894535-348.389113 267.911628 0 219.881129 192.265992 328.94972 293.926815 355.908878 6.047811 1.59995 15.599513 3.471892 22.591294 3.471891v32.846974c-12.751602 0-26.975157-3.503891-31.007031-4.575857-110.108559-29.199088-318.358051-147.803381-318.358051-387.651886 0-193.401956 134.939783-300.16662 380.052123-300.758601h2.367926c245.11234 0.607981 380.052123 107.356645 380.052123 300.758601 0 244.680354-212.249367 361.6047-324.485859 389.235836a21.871317 21.871317 0 0 1-0.991969 0.207994c-3.599888 0.65598-15.839505 2.799913-22.09531 2.799912zM282.007187 709.513828a16.431487 16.431487 0 0 1-14.575544-23.99925c43.246649-83.389394 139.771632-137.29171 245.944314-137.29171 105.052717 0 201.177713 53.11834 244.888347 135.307772a16.431487 16.431487 0 0 1-29.007093 15.423518c-38.07881-71.613762-122.828162-117.884316-215.881254-117.884316-94.029062 0-179.114403 46.926534-216.777226 119.564263-2.911909 5.647824-8.63973 8.879723-14.591544 8.879723zM512.895972 911.9875c-9.071717 0-16.431487-7.151777-16.431487-15.9835v-76.925596c0-8.815725 7.35977-15.983501 16.431487-15.983501s16.415487 7.151777 16.415487 15.983501v76.925596c0.016 8.831724-7.343771 15.983501-16.415487 15.9835zM480.128996 774.423799a5.791819 5.791819 0 0 1-1.999938-0.351989c-112.460486-40.782726-165.866817-122.332177-168.090747-125.788069a5.855817 5.855817 0 1 1 9.855692-6.351801c0.527984 0.815975 53.662323 81.741446 162.23493 121.116215a5.871817 5.871817 0 0 1-1.999937 11.375644zM485.904815 758.07231a5.75982 5.75982 0 0 1-3.167901-0.94397c-69.11784-44.382613-123.420143-143.595513-125.692072-147.787382a5.871817 5.871817 0 0 1 10.303678-5.599825c0.543983 1.007969 55.166276 100.764851 121.724196 143.515515 2.719915 1.743946 3.51989 5.375832 1.759945 8.095747a5.839818 5.839818 0 0 1-4.927846 2.719915zM497.440455 753.528452a5.855817 5.855817 0 0 1-5.215837-3.167901c-40.942721-78.925534-50.830412-104.844724-66.221931-173.306584a5.871817 5.871817 0 0 1 11.439643-2.575919c15.263523 67.949877 24.399238 91.85313 65.181963 170.474672a5.855817 5.855817 0 0 1-5.183838 8.575732zM512 752.232493a5.855817 5.855817 0 0 1-5.871817-5.855817V564.654355a5.871817 5.871817 0 1 1 11.727634 0v181.706321a5.839818 5.839818 0 0 1-5.855817 5.871817zM544.766976 774.423799a5.871817 5.871817 0 0 1-1.999937-11.391644c108.556608-39.35877 161.690947-120.300241 162.21893-121.116215a5.871817 5.871817 0 0 1 9.855692 6.351802c-2.223931 3.455892-55.646261 85.005344-168.090747 125.788069a5.311834 5.311834 0 0 1-1.983938 0.367988zM539.007156 758.07231a5.871817 5.871817 0 0 1-3.1839-10.799662c66.57392-42.734665 121.180213-142.507547 121.724196-143.515515a5.871817 5.871817 0 1 1 10.303678 5.599825c-2.287929 4.191869-56.574232 103.404769-125.708072 147.787381a5.727821 5.727821 0 0 1-3.135902 0.927971zM527.455517 753.528452a5.855817 5.855817 0 0 1-5.199837-8.575732c40.782726-78.653542 49.93444-102.540796 65.181963-170.474672a5.871817 5.871817 0 0 1 11.439642 2.575919c-15.37552 68.461861-25.27921 94.365051-66.22193 173.306584a5.839818 5.839818 0 0 1-5.199838 3.167901zM512.895972 834.117934a9.391707 9.391707 0 0 1-9.391707-9.391707c0-0.799975-0.97597-7.887754-4.511859-7.887753-15.839505 0-28.255117-12.415612-28.255117-28.255117v-22.703291c0-15.567514 12.783601-28.655105 27.375145-27.583138l30.239055-0.015999a5.503828 5.503828 0 0 1 0.943971-0.031999c13.951564 0 25.743196 12.671604 25.743195 27.647136v22.70329c0 15.839505-12.415612 28.255117-28.255117 28.255117-3.53589 0-4.511859 7.087779-4.511859 7.887754a9.375707 9.375707 0 0 1-9.375707 9.375707z m-16.399488-77.11759c-3.151902 0-6.975782 3.951877-6.975782 8.879722v22.703291c0 5.503828 3.999875 9.487704 9.487704 9.487703 5.727821 0 10.335677 1.999938 13.903566 5.039843 3.551889-3.055905 8.159745-5.039843 13.903565-5.039843a9.183713 9.183713 0 0 0 9.487704-9.487703v-22.703291c0-4.927846-3.823881-8.879723-6.975782-8.879722a18.607419 18.607419 0 0 1-0.943971 0.031999l-31.887004-0.031999z" /></svg>