<?xml version="1.0" encoding="utf-8"?>
<!-- Generator: Adobe Illustrator 16.0.0, SVG Export Plug-In . SVG Version: 6.00 Build 0)  -->
<!DOCTYPE svg PUBLIC "-//W3C//DTD SVG 1.1//EN" "http://www.w3.org/Graphics/SVG/1.1/DTD/svg11.dtd">
<svg version="1.1" id="shape" xmlns="http://www.w3.org/2000/svg" xmlns:xlink="http://www.w3.org/1999/xlink" x="0px" y="0px"
	 width="64px" height="64.002px" viewBox="0 0 64 64.002" enable-background="new 0 0 64 64.002" xml:space="preserve">
<g>
	<g>
		<path fill="#0095B6" d="M50.314,49.437H13.686C10,49.437,7,46.437,7,42.749V21.251c0-3.686,3-6.686,6.687-6.686h36.628
			c3.687,0,6.687,3,6.687,6.686v21.498C57,46.437,54,49.437,50.314,49.437z M13.686,16.618c-2.555,0-4.633,2.078-4.633,4.633v21.498
			c0,2.555,2.078,4.635,4.633,4.635h36.628c2.555,0,4.633-2.08,4.633-4.635V21.251c0-2.555-2.078-4.633-4.633-4.633H13.686z"/>
	</g>
	<g>
		<g>
			<g>
				<circle fill="#95D3E2" cx="27.818" cy="24.14" r="1.685"/>
			</g>
			<g>
				<circle fill="#95D3E2" cx="24.093" cy="24.79" r="1.2"/>
			</g>
			<g>
				<circle fill="#95D3E2" cx="21.501" cy="26.438" r="0.937"/>
			</g>
			<g>
				<circle fill="#95D3E2" cx="20.109" cy="28.749" r="0.917"/>
			</g>
			<g>
				<path fill="#95D3E2" d="M26.133,27.437c-2.91,1.195-3.209,1.641-3.576,1.982c-2.787,2.582-0.639,5.68,0.187,7.137
					c0.944,1.668,2.981,4.424,4.563,4.221c1.802-0.229,2.672-1.631,0.897-5.688c-0.926-2.111,1.539-4.121,1.774-5.209
					C30.324,28.288,29.045,26.241,26.133,27.437z"/>
			</g>
		</g>
		<g>
			<g>
				<circle fill="#95D3E2" cx="36.182" cy="24.14" r="1.685"/>
			</g>
			<g>
				<circle fill="#95D3E2" cx="39.907" cy="24.79" r="1.2"/>
			</g>
			<g>
				<circle fill="#95D3E2" cx="42.499" cy="26.438" r="0.937"/>
			</g>
			<g>
				<circle fill="#95D3E2" cx="43.891" cy="28.749" r="0.917"/>
			</g>
			<g>
				<path fill="#95D3E2" d="M37.867,27.437c2.91,1.195,3.209,1.641,3.576,1.982c2.787,2.582,0.639,5.68-0.187,7.137
					c-0.945,1.668-2.982,4.424-4.563,4.221c-1.802-0.229-2.672-1.631-0.897-5.688c0.926-2.111-1.539-4.121-1.774-5.209
					C33.675,28.288,34.955,26.241,37.867,27.437z"/>
			</g>
		</g>
	</g>
</g>
</svg>
