<?xml version="1.0" encoding="utf-8"?>
<!-- Generator: Adobe Illustrator 16.0.0, SVG Export Plug-In . SVG Version: 6.00 Build 0)  -->
<!DOCTYPE svg PUBLIC "-//W3C//DTD SVG 1.1//EN" "http://www.w3.org/Graphics/SVG/1.1/DTD/svg11.dtd">
<svg version="1.1" id="shape" xmlns="http://www.w3.org/2000/svg" xmlns:xlink="http://www.w3.org/1999/xlink" x="0px" y="0px"
	 width="64px" height="64.002px" viewBox="0 0 64 64.002" enable-background="new 0 0 64 64.002" xml:space="preserve">
<g>
	<g>
		<path fill="#0095B6" d="M34.104,50.315v-2.053c0.122,0,0.576-0.063,0.983-0.136c6.482-1.608,18.688-8.329,18.688-22.327
			C53.775,11.985,41.948,9.065,32,9.054c-9.948,0.011-21.775,2.931-21.775,16.745c0,13.743,12.017,20.56,18.371,22.245
			c0.378,0.1,0.975,0.217,1.412,0.217v2.053c-0.797,0-1.686-0.219-1.938-0.286c-6.882-1.825-19.898-9.238-19.898-24.229
			c0-12.088,8.434-18.761,23.754-18.798c0.006,0,0.012,0,0.018,0h0.112c0.006,0,0.012,0,0.018,0
			c15.32,0.038,23.754,6.71,23.754,18.798c0,15.293-13.266,22.601-20.281,24.328c-0.021,0.005-0.041,0.009-0.062,0.013
			C35.26,50.181,34.495,50.315,34.104,50.315z"/>
	</g>
	<g>
		<path fill="#0095B6" d="M17.625,44.346c-0.159,0-0.32-0.037-0.472-0.116c-0.503-0.261-0.7-0.88-0.439-1.384
			c2.703-5.212,8.736-8.581,15.372-8.581c6.566,0,12.574,3.32,15.306,8.457c0.266,0.5,0.076,1.122-0.424,1.388
			c-0.501,0.267-1.122,0.076-1.389-0.424c-2.38-4.476-7.677-7.368-13.493-7.368c-5.877,0-11.195,2.933-13.549,7.473
			C18.355,44.144,17.997,44.346,17.625,44.346z"/>
	</g>
	<g>
		<path fill="#0095B6" d="M32.056,57.001c-0.567,0-1.027-0.447-1.027-0.999v-4.808c0-0.551,0.46-0.999,1.027-0.999
			s1.026,0.447,1.026,0.999v4.808C33.083,56.554,32.623,57.001,32.056,57.001z"/>
	</g>
	<g>
		<path fill="#0095B6" d="M30.008,48.403c-0.042,0-0.084-0.007-0.125-0.022c-7.029-2.549-10.367-7.646-10.506-7.862
			c-0.109-0.17-0.061-0.397,0.11-0.506c0.17-0.109,0.397-0.06,0.506,0.109c0.033,0.051,3.354,5.109,10.14,7.57
			c0.19,0.069,0.289,0.279,0.22,0.47C30.298,48.31,30.158,48.403,30.008,48.403z"/>
	</g>
	<g>
		<path fill="#0095B6" d="M30.369,47.381c-0.068,0-0.137-0.019-0.198-0.059c-4.32-2.774-7.714-8.975-7.856-9.237
			c-0.097-0.178-0.03-0.401,0.147-0.498c0.178-0.096,0.4-0.03,0.497,0.148c0.034,0.063,3.448,6.298,7.608,8.97
			c0.17,0.109,0.22,0.336,0.11,0.506C30.607,47.321,30.489,47.381,30.369,47.381z"/>
	</g>
	<g>
		<path fill="#0095B6" d="M31.09,47.097c-0.133,0-0.261-0.072-0.326-0.198c-2.559-4.933-3.177-6.553-4.139-10.832
			c-0.044-0.198,0.08-0.394,0.277-0.438c0.196-0.046,0.394,0.08,0.438,0.277c0.954,4.247,1.525,5.741,4.074,10.655
			c0.093,0.18,0.023,0.401-0.157,0.494C31.205,47.083,31.147,47.097,31.09,47.097z"/>
	</g>
	<g>
		<path fill="#0095B6" d="M32,47.016c-0.203,0-0.367-0.164-0.367-0.366V35.292c0-0.203,0.164-0.367,0.367-0.367
			c0.202,0,0.366,0.164,0.366,0.367v11.357C32.367,46.852,32.203,47.016,32,47.016z"/>
	</g>
	<g>
		<path fill="#0095B6" d="M34.048,48.403c-0.149,0-0.291-0.093-0.345-0.242c-0.069-0.19,0.029-0.4,0.22-0.47
			c6.785-2.46,10.106-7.519,10.139-7.57c0.109-0.169,0.336-0.218,0.506-0.109c0.17,0.109,0.22,0.336,0.11,0.506
			c-0.139,0.216-3.478,5.313-10.506,7.862C34.132,48.396,34.09,48.403,34.048,48.403z"/>
	</g>
	<g>
		<path fill="#0095B6" d="M33.688,47.381c-0.121,0-0.239-0.06-0.309-0.169c-0.109-0.17-0.061-0.397,0.11-0.506
			c4.161-2.671,7.574-8.907,7.608-8.97c0.097-0.178,0.319-0.244,0.497-0.148c0.178,0.097,0.244,0.319,0.147,0.498
			c-0.143,0.262-3.536,6.463-7.857,9.237C33.824,47.362,33.756,47.381,33.688,47.381z"/>
	</g>
	<g>
		<path fill="#0095B6" d="M32.966,47.097c-0.057,0-0.115-0.013-0.168-0.042c-0.18-0.093-0.25-0.314-0.157-0.494
			c2.549-4.916,3.121-6.409,4.074-10.655c0.045-0.197,0.241-0.322,0.438-0.277s0.321,0.24,0.277,0.438
			c-0.961,4.279-1.58,5.898-4.139,10.832C33.227,47.024,33.099,47.097,32.966,47.097z"/>
	</g>
	<g>
		<path fill="#0095B6" d="M32.056,52.134c-0.324,0-0.587-0.263-0.587-0.587c0-0.05-0.061-0.493-0.282-0.493
			c-0.99,0-1.766-0.776-1.766-1.766v-1.419c0-0.973,0.799-1.791,1.711-1.724l1.89-0.001c-0.008-0.001,0.025-0.002,0.059-0.002
			c0.872,0,1.609,0.792,1.609,1.728v1.419c0,0.99-0.776,1.766-1.766,1.766c-0.221,0-0.282,0.443-0.282,0.493
			C32.643,51.871,32.38,52.134,32.056,52.134z M31.031,47.314c-0.197,0-0.436,0.247-0.436,0.555v1.419
			c0,0.344,0.25,0.593,0.593,0.593c0.358,0,0.646,0.125,0.869,0.315c0.222-0.191,0.51-0.315,0.869-0.315
			c0.343,0,0.593-0.249,0.593-0.593v-1.419c0-0.308-0.239-0.555-0.436-0.555c-0.014,0.001-0.045,0.002-0.059,0.002L31.031,47.314z"
			/>
	</g>
</g>
</svg>
