<?xml version="1.0" encoding="utf-8"?>
<!-- Generator: Adobe Illustrator 16.0.0, SVG Export Plug-In . SVG Version: 6.00 Build 0)  -->
<!DOCTYPE svg PUBLIC "-//W3C//DTD SVG 1.1//EN" "http://www.w3.org/Graphics/SVG/1.1/DTD/svg11.dtd">
<svg version="1.1" id="shape" xmlns="http://www.w3.org/2000/svg" xmlns:xlink="http://www.w3.org/1999/xlink" x="0px" y="0px"
	 width="64px" height="64.002px" viewBox="0 0 64 64.002" enable-background="new 0 0 64 64.002" xml:space="preserve">
<g>
	<g>
		<g>
			<path fill="#95D3E2" d="M40.67,10.793c0,4.253-3.853,6.744-8.67,6.744s-8.671-2.49-8.671-6.744c0,0,5.179,1.021,8.671,1.021
				C35.492,11.814,40.67,10.793,40.67,10.793z"/>
		</g>
	</g>
	<g>
		<path fill="#0095B6" d="M44.365,54.235h-24.73c-0.567,0-1.026-0.459-1.026-1.026V28.526l-1.937,1.938
			c-0.379,0.38-0.987,0.403-1.395,0.053L8.451,24.66c-0.398-0.342-0.475-0.929-0.177-1.361c0.993-1.442,6.013-8.688,7.341-9.771
			c1.36-1.1,6.704-3.417,7.309-3.678c0.19-0.082,0.402-0.104,0.605-0.064c0.051,0.01,5.122,1.002,8.472,1.002
			c3.353,0,8.42-0.992,8.471-1.002c0.203-0.04,0.415-0.018,0.605,0.064c0.605,0.261,5.949,2.578,7.306,3.675
			c1.331,1.086,6.351,8.332,7.343,9.773c0.298,0.432,0.222,1.02-0.177,1.361l-6.826,5.857c-0.406,0.35-1.014,0.327-1.395-0.053
			l-1.938-1.938v24.683C45.391,53.776,44.932,54.235,44.365,54.235z M20.661,52.182h22.677V26.048c0-0.416,0.25-0.79,0.633-0.948
			c0.383-0.16,0.825-0.072,1.119,0.222l3.017,3.018l5.402-4.635c-2.269-3.266-5.635-7.943-6.422-8.585
			c-0.817-0.661-4.321-2.294-6.536-3.258c-1.196,0.224-5.461,0.98-8.552,0.98c-3.091,0-7.356-0.756-8.553-0.98
			c-2.214,0.964-5.719,2.598-6.539,3.261c-0.784,0.64-4.15,5.317-6.419,8.583l5.402,4.635l3.017-3.018
			c0.294-0.293,0.734-0.382,1.119-0.222c0.383,0.159,0.634,0.533,0.634,0.948V52.182z"/>
	</g>
	<g>
		<path fill="#0095B6" d="M32,18.563c-5.709,0-9.698-3.195-9.698-7.771h2.054c0,3.949,3.839,5.717,7.644,5.717
			c3.805,0,7.644-1.768,7.644-5.717h2.053C41.697,15.368,37.709,18.563,32,18.563z"/>
	</g>
	<g>
		<path fill="#0095B6" d="M32,36.122c-1.528,0-2.725-0.423-3.557-1.258c-1.151-1.155-1.16-2.667-1.16-2.731
			c0-0.202,0.165-0.365,0.367-0.365c0,0,0,0,0.001,0c0.202,0,0.366,0.165,0.365,0.368c0,0.132,0.055,3.254,3.983,3.254
			c1.326,0,2.348-0.351,3.037-1.042c0.939-0.942,0.945-2.199,0.945-2.211c0-0.203,0.163-0.367,0.366-0.368c0,0,0,0,0.001,0
			c0.202,0,0.366,0.163,0.367,0.365c0,0.064-0.009,1.577-1.16,2.731C34.725,35.699,33.528,36.122,32,36.122z"/>
	</g>
	<g>
		<g>
			<circle fill="#0095B6" cx="29.421" cy="27.995" r="0.97"/>
		</g>
		<g>
			<circle fill="#0095B6" cx="34.578" cy="27.995" r="0.97"/>
		</g>
	</g>
</g>
</svg>
