<?xml version="1.0" encoding="utf-8"?>
<!-- Generator: Adobe Illustrator 16.0.0, SVG Export Plug-In . SVG Version: 6.00 Build 0)  -->
<!DOCTYPE svg PUBLIC "-//W3C//DTD SVG 1.1//EN" "http://www.w3.org/Graphics/SVG/1.1/DTD/svg11.dtd">
<svg version="1.1" id="shape" xmlns="http://www.w3.org/2000/svg" xmlns:xlink="http://www.w3.org/1999/xlink" x="0px" y="0px"
	 width="64px" height="64.002px" viewBox="0 0 64 64.002" enable-background="new 0 0 64 64.002" xml:space="preserve">
<g>
	<g>
		<polygon fill="#95D3E2" points="22.948,13.611 22.074,19.586 23.125,19.499 25.84,18.853 26.772,18.399 		"/>
	</g>
	<g>
		<path fill="#0095B6" d="M23.038,24.836c-0.468,0-0.876-0.316-0.993-0.769l-0.964-4.224c-0.034-0.129-0.042-0.263-0.024-0.395
			l0.874-5.976c0.056-0.416,0.36-0.757,0.768-0.858c0.408-0.103,0.837,0.054,1.082,0.396l3.824,4.788
			c0.075,0.104,0.13,0.22,0.161,0.344l1.258,5.387c0.079,0.307,0.013,0.632-0.181,0.883s-0.492,0.398-0.809,0.4l-4.991,0.023
			C23.041,24.836,23.039,24.836,23.038,24.836z M23.118,19.522l0.713,3.256l2.875-0.013l-0.88-3.923l-2.205-2.542L23.118,19.522z"/>
	</g>
	<g>
		<polygon fill="#95D3E2" points="32.365,8.68 29.956,14.244 30.987,14.422 33.779,14.477 34.801,14.244 		"/>
	</g>
	<g>
		<polygon fill="#95D3E2" points="38.727,11.993 38.65,15.821 43.42,16.669 44.667,13.049 		"/>
	</g>
	<g>
		<g>
			<path fill="#0095B6" d="M37.158,24.836c-0.307,0-0.598-0.138-0.792-0.374c-0.196-0.238-0.274-0.552-0.215-0.854l1.474-7.899
				l0.076-3.736c0.007-0.3,0.144-0.582,0.375-0.772c0.232-0.19,0.534-0.271,0.831-0.218l5.939,1.056
				c0.296,0.053,0.553,0.231,0.705,0.49s0.184,0.571,0.086,0.854l-1.225,3.556l-1.324,7.057c-0.097,0.477-0.516,0.82-1.002,0.822
				l-4.925,0.019C37.161,24.836,37.159,24.836,37.158,24.836z M39.729,13.214l-0.054,2.628c-0.001,0.061-0.007,0.121-0.019,0.181
				l-1.246,6.756l2.832-0.011l1.172-6.303c0.009-0.044,0.021-0.088,0.035-0.131l0.855-2.484L39.729,13.214z"/>
		</g>
		<g>
			<path fill="#0095B6" d="M34.801,24.817h-4.846c-0.566,0-1.026-0.46-1.026-1.026v-9.547c0-0.109,0.018-0.219,0.052-0.322
				l2.409-6.256c0.14-0.421,0.531-0.705,0.975-0.705s0.836,0.284,0.975,0.705l2.349,6.072c0.088,0.149,0.14,0.321,0.14,0.506v9.547
				C35.828,24.357,35.368,24.817,34.801,24.817z M30.983,22.765h2.792v-8.272l-1.41-4.784l-1.382,4.701V22.765z"/>
		</g>
	</g>
	<g>
		<path fill="#0095B6" d="M23.751,49.55c-0.128,0-0.257-0.024-0.38-0.073l-4.563-1.82c-0.325-0.13-0.563-0.417-0.628-0.762
			c-0.065-0.344,0.049-0.698,0.304-0.938c0.282-0.267,6.951-6.549,10.323-8.554c1.501-0.893,3.832-1.492,5.801-1.492v2.053
			c-1.58,0-3.578,0.507-4.751,1.205c-2.366,1.406-6.693,5.272-8.778,7.184l2.434,0.971c2.084-2.026,6.9-6.667,7.822-7.185
			c1.761-0.989,2.473-0.976,4.021-0.943c0.316,0.007,0.678,0.014,1.105,0.014v2.054c-0.443,0-0.819-0.008-1.146-0.015
			c-1.443-0.029-1.702-0.034-2.975,0.681c-0.591,0.358-4.469,4.01-7.872,7.33C24.273,49.448,24.014,49.55,23.751,49.55z"/>
	</g>
	<g>
		<path fill="#0095B6" d="M32.488,57.041H20.166c-0.31,0-0.603-0.14-0.797-0.38c-0.195-0.24-0.271-0.557-0.207-0.859l1.94-8.147
			l2.009,0.425l-1.679,6.908h11.056V57.041z"/>
	</g>
	<g>
		
			<rect x="22.405" y="40.041" transform="matrix(0.9784 0.2069 -0.2069 0.9784 9.1122 -3.9479)" fill="#0095B6" width="2.053" height="3.101"/>
	</g>
	<g>
		<path fill="#0095B6" d="M23.47,36.675l-4.28-12.546c-0.103-0.313-0.048-0.655,0.145-0.922c0.193-0.267,0.502-0.425,0.831-0.425
			h12.322v2.054H21.583l3.839,11.199L23.47,36.675z"/>
	</g>
	<g>
		<path fill="#0095B6" d="M44.811,57.041H32.488v-2.054h11.057L40.2,40.21l2.009-0.425l3.606,16.017
			c0.064,0.303-0.012,0.618-0.207,0.859C45.414,56.901,45.121,57.041,44.811,57.041z"/>
	</g>
	<g>
		<path fill="#0095B6" d="M41.506,36.675l-1.951-0.64l3.839-11.199H32.488v-2.054h12.323c0.328,0,0.638,0.158,0.831,0.425
			c0.192,0.267,0.247,0.609,0.145,0.922L41.506,36.675z"/>
	</g>
	<g>
		<path fill="#0095B6" d="M26.592,41.262h-2.945c-1.556,0-2.601-1.102-2.601-2.74c0-1.252,0.864-2.59,3.289-2.59h16.166
			c0.169,0,0.233-0.017,0.236-0.018c-0.06,0.016-0.252,0.117-0.358,0.363c-0.039,0.092-0.057,0.178-0.061,0.252l1.309-1.407
			c0.242,0.224,1.007,1.025,0.653,1.928c-0.166,0.427-0.61,0.935-1.779,0.935H24.335c-0.563,0-1.235,0.094-1.235,0.537
			c0,0.634,0.271,0.687,0.547,0.687h2.945V41.262z"/>
	</g>
	<g>
		<path fill="#0095B6" d="M40.644,41.262h-4.182v-2.054h4.182c1.237,0,2.569-0.781,2.569-2.497c0-1.888-1.84-2.658-1.919-2.69
			l0.754-1.91c0.132,0.052,3.218,1.297,3.218,4.601C45.266,39.667,42.885,41.262,40.644,41.262z"/>
	</g>
	<g>
		<path fill="#0095B6" d="M35.511,42.054c-0.802,0-1.583-0.474-2.068-1.298l1.771-1.041c0.141,0.239,0.271,0.286,0.294,0.286l0,0
			c0.088-0.019,0.388-0.417,0.299-1.396c-0.082-0.915-0.595-1.452-0.843-1.565l-1.85-0.163c0.124-1.407,1.052-1.907,1.809-1.908
			c0,0,0.001,0,0.002,0c1.417,0,2.758,1.58,2.927,3.452c0.193,2.139-0.759,3.229-1.715,3.536
			C35.93,42.022,35.719,42.054,35.511,42.054z"/>
	</g>
	<g>
		<path fill="none" stroke="#0095B6" stroke-width="3.9685" stroke-linejoin="round" stroke-miterlimit="10" d="M23.111,43.109"/>
	</g>
	<g>
		<path fill="none" stroke="#0095B6" stroke-width="3.9685" stroke-linejoin="round" stroke-miterlimit="10" d="M22.351,46.347"/>
	</g>
</g>
</svg>
