<?xml version="1.0" encoding="utf-8"?>
<!-- Generator: Adobe Illustrator 16.0.0, SVG Export Plug-In . SVG Version: 6.00 Build 0)  -->
<!DOCTYPE svg PUBLIC "-//W3C//DTD SVG 1.1//EN" "http://www.w3.org/Graphics/SVG/1.1/DTD/svg11.dtd">
<svg version="1.1" id="shape" xmlns="http://www.w3.org/2000/svg" xmlns:xlink="http://www.w3.org/1999/xlink" x="0px" y="0px"
	 width="64px" height="64.002px" viewBox="0 0 64 64.002" enable-background="new 0 0 64 64.002" xml:space="preserve">
<g id="XMLID_6_">
	<g>
		<g>
			<g>
				<path fill="#95D3E2" d="M41.913,9.087c-0.005,4.572-5.273,7.246-9.913,7.246c-4.644,0-9.912-2.674-9.918-7.246
					C22.59,9.212,28.32,10.176,32,10.176C35.68,10.176,41.404,9.212,41.913,9.087z"/>
			</g>
		</g>
	</g>
	<g>
		<g>
			<g>
				<path fill="#0095B6" d="M32,17.36c-5.524,0-10.938-3.401-10.944-8.271l2.053-0.012v0.01c0.005,4.296,5.242,6.22,8.892,6.22
					c3.647,0,8.881-1.923,8.886-6.221c0-0.566,0.46-1.031,1.026-1.031h0c0.567,0,1.026,0.455,1.026,1.021
					C42.934,13.958,37.521,17.36,32,17.36z"/>
			</g>
		</g>
		<g>
			<g>
				<path fill="#0095B6" d="M48.63,55.98c-0.003,0-0.007,0-0.01,0H15.38c-0.323,0-0.626-0.151-0.82-0.409
					c-0.194-0.257-0.256-0.591-0.167-0.901c0.028-0.096,2.769-6.547,4.471-15.718c1.107-5.986,0.794-10.317,0.458-12.556l-2.714,2.6
					c-0.352,0.336-0.891,0.38-1.292,0.104L8.06,24.104c-0.435-0.3-0.572-0.881-0.315-1.344c0.02-0.036,2.009-3.624,2.764-5.213
					c1.392-2.943,2.65-4.92,3.847-6.045c1.589-1.493,6.771-3.209,7.357-3.4c0.245-0.08,0.385-0.115,0.611-0.011
					c0.001,0,0.002,0,0.003,0C22.37,8.101,28.235,9.149,32,9.149c3.695,0,9.476-1.013,9.662-1.058
					c0.23-0.113,0.366-0.073,0.62,0.009c0.586,0.191,5.774,1.907,7.362,3.4c1.197,1.125,2.456,3.103,3.848,6.046
					c0.754,1.589,2.743,5.176,2.763,5.212c0.256,0.462,0.12,1.044-0.315,1.344L48.684,29.1c-0.401,0.276-0.941,0.232-1.292-0.104
					L44.678,26.4c-0.333,2.248-0.645,6.594,0.458,12.553c1.587,8.583,4.094,14.393,4.432,15.583
					c0.058,0.127,0.089,0.269,0.089,0.418C49.656,55.521,49.197,55.98,48.63,55.98z M16.733,53.927h30.533
					c-0.815-2.956-2.807-7.341-4.149-14.602c-1.751-9.465-0.132-15.022-0.062-15.254c0.103-0.342,0.376-0.606,0.722-0.697
					c0.345-0.091,0.713,0.004,0.971,0.251l3.46,3.31l5.803-3.996c-0.645-1.177-1.812-3.33-2.374-4.513
					c-1.263-2.671-2.407-4.498-3.399-5.43c-0.907-0.852-4.246-2.162-6.324-2.855c-0.999,0.228-6.439,1.061-9.914,1.061
					c-3.479,0-8.919-0.833-9.919-1.061c-2.076,0.695-5.413,2.004-6.319,2.856c-0.991,0.932-2.135,2.759-3.398,5.429
					c-0.562,1.184-1.729,3.337-2.374,4.514l5.802,3.996l3.455-3.31c0.258-0.247,0.626-0.342,0.971-0.251
					c0.346,0.09,0.619,0.354,0.722,0.696c0.07,0.232,1.695,5.79-0.056,15.255C19.537,46.586,17.547,50.972,16.733,53.927z"/>
			</g>
		</g>
	</g>
</g>
</svg>
