<?xml version="1.0" encoding="utf-8"?>
<!-- Generator: Adobe Illustrator 16.0.0, SVG Export Plug-In . SVG Version: 6.00 Build 0)  -->
<!DOCTYPE svg PUBLIC "-//W3C//DTD SVG 1.1//EN" "http://www.w3.org/Graphics/SVG/1.1/DTD/svg11.dtd">
<svg version="1.1" id="shape" xmlns="http://www.w3.org/2000/svg" xmlns:xlink="http://www.w3.org/1999/xlink" x="0px" y="0px"
	 width="64px" height="64.002px" viewBox="0 0 64 64.002" enable-background="new 0 0 64 64.002" xml:space="preserve">
<g>
	<g>
		<path fill="#95D3E2" d="M19.445,47.815h-2.771c-0.858,0-1.555-0.696-1.555-1.556V17.741c0-0.859,0.697-1.556,1.555-1.556h2.771"/>
		<path fill="#0095B6" d="M19.445,48.842h-2.771c-1.424,0-2.582-1.158-2.582-2.582V17.741c0-1.424,1.158-2.582,2.582-2.582h2.771
			v2.054h-2.771c-0.292,0-0.528,0.236-0.528,0.528V46.26c0,0.292,0.237,0.528,0.528,0.528h2.771V48.842z"/>
	</g>
	<g>
		<path fill="#0095B6" d="M44.527,54.578H19.445c-0.567,0-1.026-0.46-1.026-1.026V10.45c0-0.567,0.459-1.026,1.026-1.026h25.082
			c2.966,0,5.38,2.413,5.38,5.38v34.395C49.907,52.165,47.493,54.578,44.527,54.578z M20.472,52.524h24.055
			c1.834,0,3.326-1.491,3.326-3.326V14.804c0-1.835-1.492-3.327-3.326-3.327H20.472V52.524z"/>
	</g>
	<g>
		<path fill="#95D3E2" d="M28.891,47.393c-0.486,0-0.88-0.394-0.88-0.88V17.488c0-0.486,0.394-0.88,0.88-0.88
			c0.486,0,0.88,0.394,0.88,0.88v29.024C29.771,46.999,29.377,47.393,28.891,47.393z"/>
	</g>
	<g>
		<path fill="#95D3E2" d="M39.434,47.393c-0.486,0-0.88-0.394-0.88-0.88V17.488c0-0.486,0.394-0.88,0.88-0.88
			c0.486,0,0.88,0.394,0.88,0.88v29.024C40.314,46.999,39.92,47.393,39.434,47.393z"/>
	</g>
</g>
</svg>
