<?xml version="1.0" encoding="utf-8"?>
<!-- Generator: Adobe Illustrator 16.0.0, SVG Export Plug-In . SVG Version: 6.00 Build 0)  -->
<!DOCTYPE svg PUBLIC "-//W3C//DTD SVG 1.1//EN" "http://www.w3.org/Graphics/SVG/1.1/DTD/svg11.dtd">
<svg version="1.1" id="shape" xmlns="http://www.w3.org/2000/svg" xmlns:xlink="http://www.w3.org/1999/xlink" x="0px" y="0px"
	 width="64px" height="64.002px" viewBox="0 0 64 64.002" enable-background="new 0 0 64 64.002" xml:space="preserve">
<g>
	<path fill="#95D3E2" d="M9.054,17.215v34.881h45.894V17.215H9.054z M53.396,50.544h-42.79V18.767h42.79V50.544z"/>
	<g>
		<path fill="#0095B6" d="M55.974,54.149H8.027C7.46,54.149,7,53.689,7,53.123V16.188c0-0.567,0.46-1.027,1.027-1.027h47.946
			c0.567,0,1.027,0.46,1.027,1.027v36.935C57.001,53.689,56.541,54.149,55.974,54.149z M9.054,52.096h45.894V17.215H9.054V52.096z"
			/>
	</g>
	<g>
		<path fill="#0095B6" d="M41.088,17.086l-9.087-5.033l-9.088,5.033l-0.995-1.796l9.585-5.309c0.311-0.172,0.685-0.172,0.995,0
			l9.585,5.309L41.088,17.086z"/>
	</g>
	<polygon fill="#0095B6" points="35.468,50.544 53.396,40.187 53.396,50.544 	"/>
	<polygon fill="#95D3E2" points="35.466,50.544 53.396,40.192 44.556,34.798 	"/>
</g>
</svg>
