<?xml version="1.0" encoding="utf-8"?>
<!-- Generator: Adobe Illustrator 16.0.0, SVG Export Plug-In . SVG Version: 6.00 Build 0)  -->
<!DOCTYPE svg PUBLIC "-//W3C//DTD SVG 1.1//EN" "http://www.w3.org/Graphics/SVG/1.1/DTD/svg11.dtd">
<svg version="1.1" id="shape" xmlns="http://www.w3.org/2000/svg" xmlns:xlink="http://www.w3.org/1999/xlink" x="0px" y="0px"
	 width="64px" height="64.002px" viewBox="0 0 64 64.002" enable-background="new 0 0 64 64.002" xml:space="preserve">
<g>
	<g>
		<path fill="#0095B6" d="M25.636,32.47c-0.272,0-0.544-0.107-0.746-0.321c-0.015-0.015-1.479-1.563-2.583-2.808
			c-1.815-2.042-4.854-5.46-4.854-11.302c0-2.59,1.049-11.039,14.548-11.039S46.548,15.45,46.548,18.04
			c0,5.841-3.039,9.26-4.855,11.303c-1.106,1.246-2.251,2.439-2.299,2.49c-0.393,0.409-1.042,0.422-1.452,0.03
			s-0.422-1.042-0.03-1.452c0.012-0.012,1.166-1.216,2.245-2.432c1.728-1.943,4.337-4.878,4.337-9.939
			c0-2.702-1.217-8.985-12.495-8.985s-12.495,6.283-12.495,8.985c0,5.061,2.609,7.996,4.336,9.938c1.083,1.22,2.525,2.745,2.54,2.76
			c0.39,0.412,0.372,1.062-0.04,1.451C26.143,32.377,25.889,32.47,25.636,32.47z"/>
	</g>
	<g>
		<path fill="#0095B6" d="M34.916,32.021c-0.281,0-0.561-0.115-0.764-0.34c-0.401-0.446-1.032-1.163-1.628-1.841
			c-0.508-0.578-0.991-1.126-1.281-1.45c-0.006-0.007-0.012-0.013-0.018-0.02c-5.007-5.588-5.556-7.248-5.556-9.471
			c0-3.872,3.27-5.251,6.33-5.251s6.33,1.379,6.33,5.251c0,2.131-0.504,3.744-4.958,8.797c0.214,0.242,0.451,0.511,0.693,0.787
			c0.59,0.671,1.216,1.382,1.613,1.824c0.379,0.422,0.344,1.071-0.078,1.45C35.406,31.934,35.16,32.021,34.916,32.021z M32,15.701
			c-1.597,0-4.277,0.416-4.277,3.198c0,1.458,0.302,2.714,4.277,7.249c3.975-4.535,4.277-5.791,4.277-7.249
			C36.277,16.117,33.597,15.701,32,15.701z"/>
	</g>
	<g>
		<path fill="#0095B6" d="M21.957,57.001c-0.373,0-0.721-0.203-0.903-0.539c-0.184-0.341-4.485-7.39-2.275-13.782
			c0.161-0.466,1.043-2.878,2.613-4.644c0.686-0.771,1.055-1.194,1.41-1.601c0.539-0.616,1.046-1.198,2.562-2.886
			c0.378-0.422,1.026-0.457,1.45-0.078c0.422,0.378,0.457,1.027,0.078,1.449c-1.505,1.676-2.009,2.253-2.543,2.865
			c-0.358,0.41-0.73,0.836-1.422,1.614c-1.338,1.505-2.122,3.704-2.208,3.95c-1.173,3.395-0.116,7.035,0.886,9.759
			c0.468-1.906,1.208-3.854,2.29-6.073c0.649-1.331,1.569-2.636,2.015-3.138c0.344-0.384,0.562-0.632,0.865-0.978
			c0.612-0.696,1.569-1.787,4.557-5.127c0.377-0.422,1.027-0.459,1.45-0.081c0.422,0.378,0.458,1.027,0.08,1.449
			c-2.979,3.332-3.934,4.419-4.544,5.113c-0.308,0.352-0.529,0.603-0.876,0.99c-0.297,0.334-1.131,1.501-1.702,2.67
			c-1.97,4.042-2.759,7.622-2.767,7.673c-0.066,0.437-0.403,1.3-0.838,1.376C22.074,56.996,22.015,57.001,21.957,57.001z"/>
	</g>
	<g>
		<path fill="#0095B6" d="M42.043,57.001c-0.059,0-0.118-0.005-0.177-0.015c-0.435-0.076-0.773-0.939-0.838-1.376
			c-0.008-0.051-0.796-3.63-2.766-7.672c-0.571-1.171-1.405-2.336-1.705-2.673c-0.338-0.378-0.557-0.627-0.857-0.97
			c-0.609-0.694-1.555-1.771-4.56-5.131c-0.378-0.422-0.342-1.071,0.08-1.449c0.423-0.378,1.072-0.342,1.45,0.081
			c3.013,3.369,3.961,4.449,4.573,5.146c0.295,0.336,0.511,0.583,0.846,0.957c0.448,0.503,1.368,1.808,2.018,3.141
			c1.082,2.219,1.821,4.167,2.29,6.072c1.002-2.724,2.059-6.364,0.886-9.759c-0.085-0.246-0.869-2.443-2.208-3.95
			c-0.692-0.779-1.064-1.205-1.423-1.615c-0.534-0.612-1.038-1.189-2.542-2.864c-0.379-0.422-0.344-1.071,0.078-1.45
			c0.422-0.379,1.071-0.344,1.45,0.078c1.515,1.687,2.022,2.269,2.561,2.884c0.355,0.407,0.725,0.83,1.411,1.602
			c1.57,1.767,2.453,4.178,2.613,4.643c2.209,6.392-2.092,13.441-2.276,13.782C42.764,56.798,42.415,57.001,42.043,57.001z"/>
	</g>
	<g id="XMLID_5_">
		<g>
			<g>
				<path fill="#95D3E2" d="M40.272,31.293c0,0-2.285,2.623-3.858,4.428c-0.28-0.195-3.278-2.27-7.199-3.563
					c-0.301-0.095-0.591-0.185-0.876-0.264l11.923-0.602H40.272z"/>
			</g>
			<g>
				<path fill="#7ECBE0" d="M40.262,31.293l-11.923,0.602h-0.006c-0.005,0-0.005-0.005-0.005-0.005
					C33.464,30.354,39.95,31.246,40.262,31.293z"/>
			</g>
			<g>
				<path fill="#7ECBE0" d="M28.333,31.895h-0.016c0.005,0,0.005,0,0.011-0.005C28.328,31.89,28.328,31.895,28.333,31.895z"/>
			</g>
		</g>
		<g>
			<g>
				<path fill="#0095B6" d="M31.928,39.503c-1.535,0-2.798-0.277-3.974-1.63l-5.15-5.905l1.547-1.349l5.151,5.906
					c0.624,0.719,1.168,0.926,2.425,0.926s1.801-0.207,2.424-0.924l5.146-5.907l1.548,1.348l-5.144,5.905
					C34.726,39.226,33.463,39.503,31.928,39.503z"/>
			</g>
			<g>
				<path fill="#0095B6" d="M28.329,32.917c-0.088,0-0.178-0.012-0.268-0.036c-2.473-0.666-4.398-0.565-4.417-0.563
					c-0.555,0.025-1.051-0.399-1.084-0.964c-0.034-0.565,0.396-1.051,0.961-1.085c0.091-0.006,2.258-0.128,5.075,0.63
					c0.547,0.147,0.872,0.71,0.725,1.258C29.196,32.614,28.781,32.917,28.329,32.917z"/>
			</g>
			<g>
				<path fill="#0095B6" d="M36.435,36.764c-0.223,0-0.446-0.072-0.63-0.216c-0.458-0.316-3.296-2.222-6.912-3.415
					c-0.277-0.087-0.556-0.173-0.83-0.25c-0.546-0.152-0.866-0.718-0.714-1.264c0.152-0.546,0.717-0.866,1.264-0.713
					c0.296,0.082,0.597,0.175,0.91,0.273c3.926,1.295,6.918,3.309,7.478,3.7c0.056,0.04,0.129,0.1,0.177,0.15
					c0.391,0.411,0.375,1.061-0.035,1.452C36.944,36.67,36.689,36.764,36.435,36.764z"/>
			</g>
			<g>
				<path fill="#0095B6" d="M28.317,32.921c-0.567,0-1.026-0.459-1.026-1.026c0-0.412,0.242-0.767,0.592-0.93
					c0.049-0.023,0.099-0.043,0.151-0.059c5.505-1.647,12.314-0.638,12.382-0.628c0.561,0.085,0.946,0.609,0.86,1.169
					s-0.609,0.946-1.169,0.86c-0.063-0.01-6.462-0.923-11.445,0.553C28.551,32.901,28.435,32.921,28.317,32.921z"/>
			</g>
			<g>
				<path fill="#0095B6" d="M28.339,32.921h-0.006c-0.567,0-1.034-0.459-1.034-1.026s0.452-1.027,1.019-1.027
					s1.037,0.46,1.037,1.027S28.905,32.921,28.339,32.921z"/>
			</g>
			<g>
				<path fill="#0095B6" d="M40.272,32.32h-0.01c-0.566,0-1.026-0.459-1.026-1.026s0.46-1.027,1.026-1.027
					c0.567,0,1.032,0.46,1.032,1.027S40.839,32.32,40.272,32.32z"/>
			</g>
		</g>
	</g>
</g>
</svg>
