<?xml version="1.0" encoding="utf-8"?>
<!-- Generator: Adobe Illustrator 16.0.0, SVG Export Plug-In . SVG Version: 6.00 Build 0)  -->
<!DOCTYPE svg PUBLIC "-//W3C//DTD SVG 1.1//EN" "http://www.w3.org/Graphics/SVG/1.1/DTD/svg11.dtd">
<svg version="1.1" id="shape" xmlns="http://www.w3.org/2000/svg" xmlns:xlink="http://www.w3.org/1999/xlink" x="0px" y="0px"
	 width="64px" height="64.002px" viewBox="0 0 64 64.002" enable-background="new 0 0 64 64.002" xml:space="preserve">
<g>
	<g>
		<path fill="#95D3E2" d="M41.521,41.131c0.167-0.004,0.298-0.145,0.291-0.311c-0.051-1.469-0.185-1.619-0.252-1.688
			c-0.62-0.68-3.201-1.499-3.494-1.592c-0.371-0.114-0.645-0.555-0.686-0.713c0.076-0.222,0.425-1.048,0.542-1.218
			c0.337-0.253,0.535-0.526,0.635-0.873c0.173-0.599-0.037-0.908-0.19-1.064c0.009-0.26,0.029-0.858-0.002-1.513
			c-0.047-0.905-0.499-1.322-0.938-1.723l-0.034-0.036c-0.891-0.817-2.774-0.682-2.794-0.682c-0.334,0.049-0.533,0.351-0.679,0.572
			c-0.024,0.043-0.069,0.106-0.092,0.139c-0.154,0.043-0.298,0.088-0.298,0.088c-0.042,0.009-0.078,0.031-0.107,0.054
			c-0.849,0.704-0.801,1.958-0.77,2.709c0.008,0.163,0.015,0.352-0.007,0.418c-0.059,0.082-0.127,0.189-0.142,0.394
			c-0.079,0.91,0.156,1.221,0.535,1.413l0.002,0.001c0.032,0.204,0.159,0.469,0.352,0.854c0.083,0.17,0.205,0.409,0.247,0.535
			c-0.119,0.174-0.372,0.53-0.62,0.647c-0.09,0.04-0.544,0.222-0.945,0.378c-0.442,0.177-0.896,0.358-1.033,0.418
			c-0.046,0.018-0.11,0.045-0.19,0.078c-0.547,0.219-1.102,0.462-1.358,0.762c-0.151,0.179-0.253,0.726-0.307,1.634
			c-0.008,0.167,0.12,0.307,0.283,0.316c0.007,0,0.015,0,0.02,0H41.521z"/>
	</g>
	<g>
		<path fill="#0095B6" d="M43.614,52.938H26.865c-2.831,0-5.133-2.302-5.133-5.133V24.072c0-2.83,2.303-5.65,5.133-5.65h16.749
			c2.83,0,5.133,2.82,5.133,5.65v23.734C48.747,50.636,46.444,52.938,43.614,52.938z M26.865,20.475c-1.698,0-3.08,1.898-3.08,3.597
			v23.734c0,1.698,1.382,3.08,3.08,3.08h16.749c1.698,0,3.08-1.381,3.08-3.08V24.072c0-1.698-1.382-3.597-3.08-3.597H26.865z"/>
	</g>
	<g>
		<path fill="#0095B6" d="M19.125,16.519c-2.135,0-3.872-1.737-3.872-3.872s1.737-3.872,3.872-3.872s3.872,1.737,3.872,3.872
			S21.26,16.519,19.125,16.519z M19.125,10.828c-1.003,0-1.819,0.816-1.819,1.819s0.816,1.819,1.819,1.819s1.819-0.816,1.819-1.819
			S20.128,10.828,19.125,10.828z"/>
	</g>
	<g>
		<path fill="#0095B6" d="M22.792,20.942c-0.231-1.138-0.519-1.361-1.091-1.805c-0.641-0.498-1.519-1.179-2.32-3.081l1.893-0.797
			c0.592,1.407,1.124,1.819,1.687,2.256c0.685,0.532,1.46,1.134,1.843,3.019L22.792,20.942z"/>
	</g>
</g>
</svg>
